<?xml version="1.0" encoding="utf-8"?>
<!-- Generator: Adobe Illustrator 16.0.0, SVG Export Plug-In . SVG Version: 6.00 Build 0)  -->
<!DOCTYPE svg PUBLIC "-//W3C//DTD SVG 1.1//EN" "http://www.w3.org/Graphics/SVG/1.1/DTD/svg11.dtd">
<svg version="1.1" id="Layer_1" xmlns="http://www.w3.org/2000/svg" xmlns:xlink="http://www.w3.org/1999/xlink" x="0px" y="0px"
	 width="53.466px" height="52.993px" viewBox="0 0 53.466 52.993" enable-background="new 0 0 53.466 52.993" xml:space="preserve">
<g>
	<g>
		<path fill="#92D7EC" d="M5.749,28.5c0,0,3.475,14.719,13.585,20.049c10.113,5.328,14.538,3.76,14.538,3.76
			s21.17-11.273,18.958-28.194c0,0-7.268-14.409-19.909-15.665C32.92,8.45,8.904,29.442,5.749,28.5z"/>
		<path fill="#231F20" d="M19.111,48.967C8.736,43.456,5.313,28.639,5.28,28.61l0,0l-0.183-0.793l0.781,0.232
			c0.013,0.006,0.05,0.01,0.104,0.01l0,0c0.679,0.045,2.949-1.171,5.609-3.049l0,0c2.696-1.871,5.932-4.38,9.048-6.883l0,0
			c6.233-5.014,11.956-10.015,11.97-10.035l0,0l0.15-0.129l0.211,0.021C45.962,9.319,53.214,23.88,53.256,23.904l0,0l0.036,0.072
			l0.009,0.073c0.11,0.863,0.165,1.706,0.165,2.544l0,0c-0.067,15.93-19.355,26.084-19.374,26.131l0,0l-0.034,0.012l-0.031,0.014
			c-0.049,0.02-0.713,0.242-2.043,0.242l0,0C29.718,52.993,25.533,52.344,19.111,48.967L19.111,48.967z M9.171,36.321
			c2.11,4.297,5.468,9.227,10.383,11.813l0,0c6.315,3.326,10.348,3.918,12.43,3.918l0,0c0.611,0,1.056-0.051,1.342-0.104l0,0
			c0.19-0.025,0.297-0.055,0.346-0.07l0,0c0.397-0.223,4.912-2.699,9.429-6.945l0,0c4.743-4.441,9.426-10.777,9.421-18.338l0,0
			c0-0.771-0.049-1.547-0.148-2.329l0,0c-0.262-0.494-2.015-3.778-5.111-7.196l0,0c-3.318-3.682-8.131-7.456-14.181-8.124l0,0
			c-1.483,1.286-13.296,11.522-20.949,16.831l0,0c-2.512,1.718-4.459,2.942-5.777,3.184l0,0C6.681,30.135,7.556,33.036,9.171,36.321
			L9.171,36.321z M5.608,28.948L5.744,28.5L5.608,28.948L5.608,28.948z"/>
	</g>
	<g>
		<path fill="#FFFFFF" d="M14.279,4.688c0,0-9.167,5.646-12.958,15.983c-2.612,7.117,0.947,9.71,8.85,9.08
			c7.899-0.623,21.805-10.642,23.381-18.163C35.136,4.065,28.497-5.017,14.279,4.688z"/>
		<path fill="#231F20" d="M2.175,29C0.757,28.094-0.013,26.604,0,24.707l0,0c0-1.218,0.291-2.606,0.876-4.2l0,0
			C4.667,10.199,13.628,4.544,14.012,4.303l0,0C18.477,1.248,22.248,0,25.31,0l0,0c2.928-0.007,5.195,1.162,6.702,2.919l0,0
			c1.501,1.769,2.245,4.103,2.245,6.458l0,0c0,0.776-0.08,1.542-0.238,2.303l0,0c-1.755,7.882-15.627,17.819-23.815,18.543l0,0
			c-0.763,0.063-1.491,0.088-2.179,0.088l0,0C5.559,30.305,3.581,29.915,2.175,29L2.175,29z M14.531,5.095
			C14.525,5.1,12.285,6.467,9.55,9.141l0,0c-2.73,2.662-5.92,6.61-7.782,11.69l0,0c-0.56,1.518-0.822,2.806-0.822,3.876l0,0
			c0.029,3.241,2.292,4.606,7.079,4.663l0,0c0.659,0,1.361-0.027,2.106-0.082l0,0c7.619-0.535,21.553-10.647,22.959-17.797l0,0
			c0.145-0.699,0.217-1.404,0.217-2.113l0,0c-0.027-4.344-2.683-8.431-7.996-8.441l0,0c-2.801,0-6.396,1.15-10.764,4.145l0,0
			l-0.267-0.393L14.531,5.095L14.531,5.095z"/>
	</g>
	<g>
		<path fill="#92D7EC" d="M22.177,4.065c0,0-9.793,3.759-14.533,11.279c-3.957,6.267-2.531,8.145,0.943,9.398
			c3.479,1.249,13.406-4.57,17.698-10.646C30.708,7.824,28.813,1.563,22.177,4.065z"/>
		<path fill="#231F20" d="M8.427,25.185c-2.038-0.714-3.651-1.818-3.64-3.957l0,0c0.007-1.533,0.764-3.445,2.45-6.135l0,0
			C12.109,7.404,21.972,3.65,22.009,3.629l0,0l0.168,0.437l-0.168-0.437c1.068-0.405,2.037-0.602,2.901-0.602l0,0
			c1.333-0.006,2.435,0.479,3.163,1.312l0,0c0.731,0.843,1.082,1.984,1.076,3.291l0,0c0,1.993-0.809,4.37-2.479,6.728l0,0
			c-4.033,5.641-12.496,10.967-16.956,11.028l0,0C9.251,25.386,8.818,25.324,8.427,25.185L8.427,25.185z M16.939,7.278
			c-3.006,1.862-6.586,4.648-8.893,8.314l0,0c-1.658,2.615-2.319,4.424-2.316,5.635l0,0c0.014,1.577,1.045,2.328,3.018,3.074l0,0
			c0.255,0.092,0.581,0.138,0.967,0.138l0,0c3.82,0.052,12.421-5.234,16.183-10.62l0,0c1.579-2.231,2.311-4.453,2.306-6.189l0,0
			c-0.045-2.273-1.097-3.631-3.293-3.667l0,0c-0.72,0-1.579,0.165-2.565,0.54l0,0l0,0C22.259,4.539,19.89,5.46,16.939,7.278
			L16.939,7.278z"/>
	</g>
	<g>
		<path fill="#FFFFFF" d="M19.65,37.274c0,0,17.061-15.041,18.645-21.614c0,0,6.32,4.384,8.531,7.207
			c0,0-6.635,17.536-18.329,21.924C28.497,44.792,20.912,39.461,19.65,37.274z"/>
		<path fill="#231F20" d="M28.224,45.174c-0.031-0.041-7.551-5.256-8.988-7.672l0,0l0.414-0.236l0.315,0.355l-0.315-0.355
			l-0.414,0.236l-0.188-0.328l0.287-0.258c0.008-0.004,4.252-3.744,8.699-8.307l0,0c4.449-4.55,9.091-10.01,9.799-13.065l0,0
			l0.162-0.668l0.569,0.392c0.019,0.02,6.323,4.37,8.634,7.306l0,0l0.166,0.205l-0.096,0.252c-0.041,0.026-6.607,17.645-18.605,22.2
			l0,0l-0.23,0.086L28.224,45.174L28.224,45.174z M24.839,41.483c1.642,1.291,3.186,2.395,3.728,2.779l0,0
			c5.567-2.18,10.026-7.506,13.079-12.328l0,0c2.66-4.209,4.246-8.003,4.638-8.991l0,0c-1.094-1.315-3.096-3.008-4.849-4.37l0,0
			c-1.191-0.931-2.27-1.711-2.881-2.154l0,0c-2.35,6.587-16.068,18.931-18.288,20.931l0,0
			C21.025,38.356,23.006,40.061,24.839,41.483L24.839,41.483z"/>
	</g>
</g>
</svg>
