<?xml version="1.0" encoding="utf-8"?>
<!-- Generator: Adobe Illustrator 16.0.0, SVG Export Plug-In . SVG Version: 6.00 Build 0)  -->
<!DOCTYPE svg PUBLIC "-//W3C//DTD SVG 1.1//EN" "http://www.w3.org/Graphics/SVG/1.1/DTD/svg11.dtd">
<svg version="1.1" id="Layer_1" xmlns="http://www.w3.org/2000/svg" xmlns:xlink="http://www.w3.org/1999/xlink" x="0px" y="0px"
	 width="95.093px" height="39.986px" viewBox="0 0 95.093 39.986" enable-background="new 0 0 95.093 39.986" xml:space="preserve">
<g>
	<g>
		<path fill="#E0C422" d="M28.284,8.785c0,0,0-6.262,3.474-4.385c3.476,1.881,2.212,6.271,2.212,6.271s7.587,0.937,12.01-0.627
			c4.423-1.573,33.18-3.45,38.868-5.645c5.688-2.186,12.643-6.263,8.535-2.186c-4.107,4.066-20.541,9.712-24.648,11.273
			c-4.107,1.563-4.746,3.137-3.479,4.387c1.262,1.248-1.58,5.011-2.529,3.757c-0.947-1.256,0.633-2.816,0.633-2.816l-0.945-2.51
			l-3.479,2.196c0,0,1.895,4.381,0.316,5.641c-1.582,1.254-1.656,2.014-2.844,0.936c-1.342-1.215,3.635-2.156,0.316-5.326
			c-0.719-0.686-16.12,5.326-16.12,5.326s2.668,9.365,0.594,10.178c-3.278,1.297-6.049,0.248-3.751-0.467
			c3.398-1.055,2.214-5.012,1.263-6.576c-0.949-1.566-5.686,0.311-5.686,0.311s2.37,10.969-4.387,10.848
			c-3.533-0.064,1.185-1.961,2.133-4.465c0.947-2.508,0.04-7.635-2.803-7.32c-2.844,0.313-17.383,11.277-27.176,11.906
			c0,0-2.848-12.529,8.531-32.897c0,0-3.158-4.38,0.632-5.326c3.797-0.941,3.475,3.759,3.475,3.759S27.646,8.785,28.284,8.785z"/>
		<path fill="#231F20" d="M0.326,39.593C0.321,39.564,0,38.136,0,35.482l0,0c-0.002-5.26,1.267-15.35,8.769-28.866l0,0
			C8.417,6.07,7.63,4.729,7.615,3.367l0,0c-0.041-1.064,0.637-2.2,2.219-2.551l0,0c0.384-0.098,0.729-0.145,1.054-0.145l0,0
			c1.39-0.015,2.237,0.88,2.598,1.775l0,0c0.355,0.842,0.415,1.727,0.426,2.225l0,0c0.982,0.263,3.876,1.018,6.826,1.784l0,0
			c2.887,0.751,5.955,1.517,7.09,1.774l0,0c0.034-0.479,0.104-1.188,0.28-1.919l0,0c0.291-1.213,0.908-2.688,2.464-2.733l0,0
			c0.438,0,0.913,0.142,1.413,0.41l0,0c2.219,1.198,2.694,3.352,2.686,4.862l0,0c0,0.566-0.063,1.06-0.13,1.404l0,0
			c0.815,0.084,2.505,0.223,4.455,0.223l0,0c2.277,0,4.909-0.201,6.825-0.875l0,0c2.367-0.834,10.59-1.665,19.067-2.611l0,0
			c8.432-0.936,17.096-1.976,19.791-3.028l0,0c1.945-0.751,4.053-1.731,5.818-2.524l0,0c1.793-0.791,3.1-1.407,3.891-1.438l0,0
			c0.121,0.005,0.268,0.009,0.432,0.112l0,0c0.172,0.104,0.287,0.344,0.273,0.514l0,0c-0.078,0.637-0.506,0.992-1.377,1.918l0,0
			c-4.32,4.235-20.691,9.794-24.813,11.378l0,0c-2.865,1.079-3.816,2.18-3.754,2.755l0,0c0,0.267,0.125,0.539,0.441,0.863l0,0
			c0.33,0.329,0.459,0.77,0.455,1.192l0,0c-0.006,0.813-0.406,1.65-0.922,2.34l0,0c-0.535,0.678-1.135,1.238-1.904,1.281l0,0
			c-0.32,0.004-0.666-0.16-0.871-0.443l0,0c-0.283-0.365-0.398-0.791-0.398-1.172l0,0c0.025-0.926,0.559-1.666,0.867-2.025l0,0
			l-0.641-1.698l-2.656,1.667c0.271,0.721,0.828,2.314,0.834,3.727l0,0c-0.002,0.777-0.168,1.578-0.807,2.098l0,0
			c-1.035,0.768-1.291,1.455-2.223,1.555l0,0c-0.465-0.018-0.814-0.264-1.238-0.633l0,0c-0.227-0.207-0.395-0.498-0.389-0.793l0,0
			c0.059-0.74,0.6-1.053,0.984-1.506l0,0c0.42-0.432,0.738-0.859,0.73-1.322l0,0c0-0.375-0.195-0.904-0.939-1.641l0,0
			c-0.838-0.014-4.904,1.328-8.552,2.66l0,0c-2.956,1.078-5.743,2.146-6.747,2.535l0,0c0.332,1.238,1.283,5,1.291,7.592l0,0
			c-0.029,1.203-0.135,2.289-1.094,2.74l0,0c-1.181,0.469-2.302,0.646-3.187,0.646l0,0c-0.519,0-0.955-0.061-1.301-0.168l0,0
			c-0.317-0.125-0.709-0.283-0.758-0.813l0,0c0.094-0.66,0.567-0.793,1.18-1.018l0,0c1.504-0.494,1.901-1.471,1.929-2.684l0,0
			c0.009-1.184-0.497-2.498-0.93-3.209l0,0c-0.119-0.225-0.535-0.402-1.195-0.391l0,0c-1.193-0.012-2.83,0.51-3.545,0.771l0,0
			c0.12,0.662,0.333,2.107,0.333,3.738l0,0c0,1.578-0.193,3.346-0.934,4.775l0,0c-0.731,1.436-2.115,2.508-4.214,2.498l0,0
			c-0.05,0-0.072,0-0.122,0l0,0c-0.489-0.01-0.842-0.041-1.141-0.145l0,0c-0.277-0.072-0.625-0.35-0.615-0.74l0,0
			c0.038-0.471,0.296-0.699,0.57-1.002l0,0c0.288-0.283,0.654-0.602,1.037-0.939l0,0c0.76-0.68,1.567-1.496,1.844-2.273l0,0
			c0.22-0.561,0.339-1.316,0.339-2.117l0,0c0-1.131-0.239-2.34-0.679-3.209l0,0c-0.457-0.893-1.037-1.377-1.774-1.377l0,0
			c-0.059,0-0.122,0.004-0.192,0.008l0,0c-1.115,0.078-5.617,2.922-10.802,5.779l0,0c-5.238,2.871-11.343,5.799-16.396,6.129l0,0
			l-0.405,0.031L0.326,39.593L0.326,39.593z M10.071,1.727C8.808,2.071,8.598,2.611,8.562,3.367l0,0
			C8.557,3.999,8.836,4.76,9.126,5.342l0,0c0.294,0.58,0.577,0.98,0.577,0.98h0.004l0.173,0.235l-0.145,0.27
			c-7.548,13.504-8.784,23.514-8.79,28.655l0,0c0,1.758,0.143,2.941,0.233,3.506l0,0c4.675-0.426,10.538-3.207,15.577-5.975l0,0
			c5.243-2.857,9.43-5.658,11.137-5.891l0,0c0.117-0.021,0.223-0.025,0.316-0.025l0,0c2.482,0.102,3.376,3.08,3.396,5.527l0,0
			c0,0.883-0.122,1.736-0.389,2.445l0,0c-0.386,1.002-1.212,1.82-1.955,2.5l0,0c-0.578,0.514-1.13,1.012-1.351,1.27l0,0
			c0.149,0.035,0.394,0.055,0.702,0.063l0,0c0.063-0.008,0.104-0.008,0.135-0.008l0,0c1.774-0.008,2.726-0.791,3.369-1.982l0,0
			c0.632-1.203,0.838-2.838,0.835-4.344l0,0c0-2.129-0.392-3.943-0.392-3.943l0,0l-0.086-0.393l0.374-0.141
			c0.029-0.008,2.38-0.969,4.261-0.975l0,0c0.767,0.006,1.574,0.16,2.009,0.848l0,0c0.506,0.852,1.059,2.258,1.061,3.693l0,0
			c0.029,1.438-0.669,3.002-2.59,3.578l0,0c-0.091,0.029-0.169,0.061-0.239,0.088l0,0c0.208,0.045,0.496,0.076,0.835,0.076l0,0
			c0.756,0,1.773-0.154,2.836-0.576l0,0c0.207-0.01,0.519-0.725,0.495-1.871l0,0c0.008-2.9-1.361-7.742-1.365-7.748l0,0l-0.119-0.41
			l0.398-0.15c0.005-0.004,3.453-1.346,7.166-2.697l0,0c3.745-1.348,7.606-2.693,8.885-2.721l0,0c0.164,0.01,0.334-0.01,0.574,0.186
			l0,0c0.902,0.863,1.303,1.656,1.305,2.395l0,0c-0.033,1.332-1.172,2.057-1.553,2.561l0,0c-0.139,0.164-0.166,0.258-0.166,0.268
			l0,0c0.008,0-0.002,0.01,0.088,0.094l0,0c0.369,0.344,0.566,0.404,0.596,0.391l0,0c0.066,0.082,0.559-0.443,1.627-1.348l0,0
			c0.293-0.221,0.457-0.699,0.453-1.363l0,0c0.014-1.568-0.896-3.727-0.904-3.727l0,0l-0.16-0.371l4.314-2.713l1.258,3.333
			l-0.219,0.215c0.002,0-0.197,0.195-0.404,0.514l0,0c-0.211,0.309-0.396,0.725-0.395,1.08l0,0c0.004,0.217,0.055,0.4,0.211,0.611
			l0,0c0.057,0.063,0.049,0.057,0.113,0.057l0,0c0.152,0.041,0.734-0.318,1.148-0.898l0,0c0.428-0.561,0.744-1.291,0.732-1.775l0,0
			c0-0.256-0.063-0.41-0.176-0.527l0,0c-0.438-0.428-0.725-0.941-0.725-1.528l0,0c0.057-1.399,1.447-2.499,4.361-3.631l0,0
			c4.1-1.541,20.59-7.258,24.484-11.164l0,0c0.318-0.32,0.568-0.588,0.748-0.803l0,0c-0.654,0.222-1.723,0.669-2.906,1.212l0,0
			c-1.756,0.793-3.883,1.785-5.865,2.552l0,0c-2.996,1.141-11.555,2.134-20.029,3.084l0,0c-8.432,0.924-16.797,1.815-18.856,2.561
			l0,0c-2.105,0.735-4.807,0.925-7.142,0.93l0,0c-2.8,0-5.074-0.282-5.082-0.282l0,0l-0.553-0.067l0.154-0.529
			c-0.008-0.006,0.204-0.714,0.204-1.688l0,0c-0.008-1.366-0.378-3.058-2.186-4.039l0,0c-0.404-0.216-0.723-0.299-0.962-0.299l0,0
			c-0.737-0.03-1.263,0.853-1.543,2.016l0,0c-0.271,1.12-0.271,2.257-0.271,2.257l0,0v0.474h-0.472
			c-0.539-0.026-4.1-0.951-7.785-1.894l0,0c-3.633-0.945-7.19-1.885-7.19-1.885l0,0l-0.374-0.099l0.024-0.38c0,0,0-0.082,0-0.237
			l0,0c0-0.396-0.049-1.254-0.35-1.947l0,0c-0.319-0.701-0.747-1.194-1.722-1.204l0,0C10.654,1.613,10.382,1.646,10.071,1.727
			L10.071,1.727z M28.284,8.785V8.317V8.785L28.284,8.785z"/>
	</g>
	<path fill="#231F20" d="M0.316,35.255c0,0,4.623,1.996,4.742,3.414c0,0-3.677,1.996-4.268,0.822
		C0.197,38.316,0.316,35.255,0.316,35.255z"/>
	<ellipse fill="#231F20" cx="9.202" cy="17.17" rx="0.711" ry="0.705"/>
	<path fill="#231F20" d="M12.759,17.932c0,0.488-0.396,0.884-0.889,0.884c-0.492,0-0.886-0.396-0.886-0.884
		c0-0.484,0.394-0.874,0.886-0.874C12.363,17.058,12.759,17.447,12.759,17.932z"/>
</g>
</svg>
