<?xml version="1.0" encoding="utf-8"?>
<!-- Generator: Adobe Illustrator 16.0.0, SVG Export Plug-In . SVG Version: 6.00 Build 0)  -->
<!DOCTYPE svg PUBLIC "-//W3C//DTD SVG 1.1//EN" "http://www.w3.org/Graphics/SVG/1.1/DTD/svg11.dtd">
<svg version="1.1" id="Layer_1" xmlns="http://www.w3.org/2000/svg" xmlns:xlink="http://www.w3.org/1999/xlink" x="0px" y="0px"
	 width="68.719px" height="62.787px" viewBox="0 0 68.719 62.787" enable-background="new 0 0 68.719 62.787" xml:space="preserve">
<g>
	<g>
		<path fill="#F48020" d="M25.928,16.266c0,0,3.296,0.89,4.268-1.254c2.056-4.549-2.211-7.203-5.056-6.734
			c-2.845,0.472-4.108,5.479-2.212,7.2c0,0-3.475,8.935-2.528,13.79c0,0-3.165,0.155-4.266,0.467
			c-1.105,0.313-2.689-6.74-2.374-10.179c0,0-1.576-2.668-2.84-2.354c-1.267,0.313,0.313,10.812,2.84,13.629
			c0,0-4.423,2.816-4.423,8.929c0,6.108,3.319,8.616,3.319,8.616s-6.479,4.072-3.159,10.653c0,0,1.736,1.247,1.896,0.151
			c0.161-1.098-0.765-4.306,0.161-5.951c1.579-2.823,3.792-1.41,3.792-1.41s-1.741,8.146,1.262,9.557
			c3.001,1.411,1.735-1.566,1.42-3.447c-0.315-1.878,0.476-5.486,1.264-5.795c0,0,17.542,2.812,20.07,0.629
			c0,0,1.262,3.604,0.315,5.634c-0.949,2.039-2.056,3.922-0.793,3.922c1.265,0,5.057-3.766,3.316-10.658l2.533-2.035
			c0,0,2.687,1.409,2.211,4.385c-0.477,2.982-2.688,6.587-1.104,6.742c1.579,0.152,4.262-3.914,3.945-7.369
			c-0.313-3.444-2.527-6.261-2.527-6.261s2.689-2.977,1.421-6.891c-1.26-3.917-3.946-6.893-3.946-6.893s6.16-5.166,6.477-7.208
			c0.316-2.03-0.161-3.449-2.53-1.255c-2.368,2.194-7.106,7.993-7.106,7.993l-3.004-0.939c0,0,0.314-11.284,2.212-13.32
			c0,0,4.582-1.249,4.107-4.853c-0.473-3.604-5.372-5.326-7.901-3.294c-2.183,1.761-2.367,5.956,0.949,7.365
			c0,0-2.684,3.449-2.051,13.47c0,0-11.378-1.563-12.171-1.408C23.716,29.89,22.928,25.041,25.928,16.266z"/>
		<path fill="#231F20" d="M38.112,62.504c-0.209-0.207-0.271-0.483-0.267-0.726l0,0c0.028-0.95,0.772-2.188,1.4-3.573l0,0
			c0.218-0.467,0.308-1.079,0.308-1.724l0,0c0-1.134-0.279-2.338-0.471-3.011l0,0c-1.058,0.473-2.684,0.571-4.66,0.591l0,0
			c-5.578,0-13.654-1.219-15.006-1.434l0,0c-0.004,0-0.004,0-0.004,0l0,0c-0.052,0.067-0.12,0.169-0.184,0.31l0,0
			c-0.139,0.267-0.275,0.652-0.395,1.099l0,0c-0.238,0.883-0.404,1.994-0.404,2.915l0,0c0,0.334,0.026,0.645,0.07,0.899l0,0
			c0.135,0.875,0.532,2.037,0.534,2.972l0,0c0,0.323-0.042,0.643-0.234,0.931l0,0c-0.194,0.298-0.58,0.468-0.949,0.452l0,0
			c-0.417,0-0.868-0.134-1.444-0.407l0,0c-1.727-0.867-2.015-3.139-2.038-5.24l0,0c0-1.883,0.298-3.715,0.438-4.475l0,0h-0.003l0,0
			c-0.194-0.073-0.467-0.144-0.764-0.144l0,0c-0.594,0.011-1.333,0.22-2.072,1.516l0,0c-0.257,0.447-0.363,1.12-0.358,1.877l0,0
			c-0.005,1.255,0.27,2.636,0.275,3.537l0,0c0,0.128-0.005,0.252-0.02,0.379l0,0c-0.028,0.517-0.563,0.895-0.96,0.854l0,0
			c-0.853-0.041-1.638-0.688-1.685-0.693l0,0l-0.094-0.071l-0.054-0.103c-0.703-1.403-0.996-2.715-0.996-3.914l0,0
			c0.025-3.711,2.707-6.128,3.833-6.997l0,0c-0.949-0.966-3.046-3.652-3.042-8.563l0,0c0.005-5.212,3.088-8.129,4.226-9.021l0,0
			c-1.895-2.649-3.067-8.642-3.091-11.773l0,0c0-0.533,0.031-0.982,0.123-1.342l0,0c0.09-0.341,0.197-0.726,0.658-0.874l0,0
			c0.133-0.035,0.251-0.047,0.351-0.047l0,0c0.923,0.037,1.589,0.746,2.136,1.363l0,0c0.534,0.621,0.892,1.233,0.9,1.249l0,0
			l0.083,0.128l-0.015,0.154c-0.028,0.287-0.042,0.604-0.042,0.94l0,0c0,1.614,0.289,3.723,0.701,5.481l0,0
			c0.34,1.622,0.949,3.032,1.19,3.242l0,0c0.954-0.244,2.847-0.377,3.763-0.436l0,0c-0.062-0.474-0.086-0.957-0.086-1.466l0,0
			c0.007-4.514,2.121-10.421,2.619-11.768l0,0c-0.592-0.683-0.828-1.623-0.828-2.585l0,0c0.013-2.191,1.227-4.766,3.504-5.198l0,0
			c0.242-0.039,0.497-0.061,0.752-0.061l0,0c2.439,0,5.38,1.804,5.398,4.964l0,0c0,0.771-0.18,1.611-0.578,2.495l0,0
			c-0.654,1.42-2.126,1.716-3.188,1.71l0,0c-0.478,0-0.9-0.055-1.195-0.102l0,0c-1.836,5.485-2.147,9.356-2.147,11.378l0,0
			c0,0.548,0.021,0.951,0.042,1.224l0,0c1.969,0.092,9.148,1.052,11.236,1.337l0,0c-0.045-0.851-0.065-1.646-0.065-2.405l0,0
			c0-6.125,1.333-9.226,1.95-10.33l0,0c-1.619-0.893-2.352-2.498-2.344-4.04l0,0c0.002-1.48,0.632-2.953,1.77-3.872l0,0
			c0.841-0.685,1.896-0.982,2.957-0.978l0,0c2.554,0,5.32,1.719,5.715,4.566l0,0c0.025,0.195,0.039,0.39,0.039,0.575l0,0
			c-0.076,3.279-3.587,4.504-4.346,4.745l0,0c-0.729,0.891-1.342,4.141-1.619,7.069l0,0c-0.246,2.407-0.346,4.653-0.379,5.501l0,0
			l2.352,0.736c0.935-1.133,4.824-5.816,6.95-7.79l0,0c0.885-0.807,1.527-1.213,2.188-1.238l0,0
			c0.443-0.012,0.844,0.292,0.999,0.638l0,0c0.173,0.348,0.222,0.744,0.226,1.186l0,0c0,0.343-0.032,0.707-0.092,1.086l0,0
			c-0.253,1.32-1.896,3.027-3.492,4.631l0,0c-1.131,1.105-2.237,2.079-2.787,2.552l0,0c0.752,0.925,2.696,3.479,3.736,6.698l0,0
			c0.254,0.797,0.36,1.557,0.36,2.262l0,0c-0.009,2.366-1.139,4.113-1.64,4.786l0,0c0.578,0.827,2.127,3.271,2.404,6.205l0,0
			c0.019,0.206,0.026,0.417,0.026,0.617l0,0c-0.007,1.739-0.626,3.496-1.447,4.858l0,0c-0.843,1.342-1.794,2.354-2.912,2.41l0,0
			c-0.041,0-0.085,0-0.14-0.005l0,0c-0.648-0.029-1.035-0.693-0.986-1.208l0,0c0.031-1.471,1.35-3.941,1.674-6.066l0,0
			c0.033-0.227,0.049-0.432,0.053-0.628l0,0c-0.004-1.104-0.498-1.912-1.01-2.468l0,0c-0.28-0.297-0.559-0.512-0.75-0.646l0,0
			l-2.035,1.64c0.271,1.166,0.391,2.251,0.391,3.246l0,0c0,2.445-0.707,4.346-1.57,5.637l0,0c-0.893,1.286-1.813,2.014-2.668,2.063
			l0,0c-0.006,0-0.008,0-0.014,0l0,0C38.599,62.787,38.321,62.709,38.112,62.504L38.112,62.504z M38.885,61.846
			c0.182,0.047,1.143-0.483,1.877-1.641l0,0c0.762-1.146,1.416-2.854,1.416-5.117l0,0c0-0.995-0.133-2.106-0.434-3.313l0,0
			l-0.072-0.289l3.006-2.42l0.273,0.143c0.043,0.031,2.498,1.292,2.521,4.106l0,0c0,0.247-0.021,0.505-0.063,0.766l0,0
			c-0.376,2.304-1.691,4.953-1.658,5.929l0,0c0.056,0.346-0.021,0.212,0.132,0.267l0,0c0.011,0,0.023,0.007,0.044,0l0,0
			c0.384,0.058,1.376-0.704,2.098-1.947l0,0c0.747-1.233,1.315-2.867,1.312-4.375l0,0c0-0.18-0.005-0.359-0.021-0.524l0,0
			c-0.147-1.634-0.757-3.15-1.333-4.253l0,0c-0.573-1.098-1.096-1.766-1.096-1.771l0,0l-0.244-0.309l0.262-0.289
			c-0.003-0.004,0.398-0.436,0.814-1.232l0,0c0.417-0.797,0.827-1.918,0.827-3.229l0,0c0-0.619-0.093-1.279-0.317-1.98l0,0
			c-0.611-1.891-1.578-3.581-2.387-4.79l0,0c-0.814-1.21-1.465-1.923-1.465-1.928l0,0l-0.32-0.359l0.369-0.314
			c0,0,1.527-1.28,3.093-2.811l0,0c1.565-1.502,3.159-3.389,3.224-4.104l0,0c0.055-0.352,0.082-0.663,0.082-0.942l0,0
			c0.003-0.359-0.06-0.638-0.129-0.76l0,0c-0.08-0.127-0.057-0.102-0.15-0.123l0,0c-0.16-0.017-0.736,0.215-1.537,0.988l0,0
			c-2.321,2.142-7.064,7.926-7.069,7.941l0,0l-0.202,0.246l-3.65-1.145l0.012-0.35c0-0.013,0.076-2.84,0.396-5.929l0,0
			c0.345-3.119,0.807-6.402,1.942-7.689l0,0l0.09-0.104l0.13-0.036c0-0.006,0.972-0.264,1.935-0.905l0,0
			c0.978-0.653,1.862-1.6,1.862-2.982l0,0c0-0.148-0.013-0.298-0.029-0.453l0,0c-0.28-2.25-2.616-3.752-4.778-3.752l0,0
			c-0.893,0-1.719,0.251-2.355,0.772l0,0c-0.889,0.708-1.428,1.927-1.423,3.141l0,0c0.009,1.398,0.661,2.729,2.256,3.418l0,0
			l0.567,0.237l-0.378,0.483c0.005,0.005-0.101,0.128-0.29,0.482l0,0c-0.19,0.354-0.449,0.915-0.708,1.724l0,0
			c-0.521,1.608-1.054,4.188-1.054,8.025l0,0c0,0.903,0.029,1.87,0.098,2.923l0,0l0.041,0.569l-0.581-0.075
			c-0.006,0-2.591-0.354-5.376-0.714l0,0c-2.781-0.355-5.764-0.706-6.544-0.706l0,0c-0.034,0-0.062,0.008-0.078,0.008l0,0
			l-0.49,0.125l-0.081-0.518c0-0.021-0.099-0.623-0.099-1.768l0,0c0-2.165,0.346-6.287,2.332-12.082l0,0l0.143-0.415l0.427,0.111
			c0.006-0.005,0.164,0.042,0.422,0.089l0,0c0.248,0.041,0.59,0.08,0.969,0.08l0,0c0.941-0.004,1.912-0.24,2.318-1.161l0,0
			c0.355-0.775,0.503-1.479,0.503-2.104l0,0c-0.006-2.487-2.422-4.02-4.454-4.02l0,0c-0.2,0-0.397,0.018-0.592,0.048l0,0
			c-1.545,0.205-2.732,2.378-2.717,4.267l0,0c0,0.909,0.262,1.691,0.749,2.128l0,0l0.238,0.21l-0.119,0.304
			c0.003,0.011-2.671,6.893-2.66,11.711l0,0c0,0.659,0.049,1.271,0.155,1.814l0,0l0.106,0.529l-0.547,0.027
			c-0.003,0.004-3.181,0.173-4.164,0.458l0,0c-0.07,0.014-0.139,0.023-0.197,0.023l0,0c-0.72-0.09-0.904-0.616-1.222-1.211l0,0
			c-0.282-0.636-0.551-1.471-0.785-2.417l0,0c-0.464-1.894-0.807-4.211-0.809-6.047l0,0c0-0.302,0.01-0.59,0.03-0.863l0,0
			c-0.122-0.204-0.389-0.607-0.733-1.007l0,0c-0.462-0.57-1.115-1.055-1.41-1.023l0,0c-0.011,0-0.022,0-0.026,0l0,0
			c-0.021,0.042-0.044,0.114-0.065,0.194l0,0c-0.057,0.241-0.096,0.635-0.096,1.127l0,0c-0.024,3.049,1.416,9.661,3.171,11.553l0,0
			l0.372,0.41l-0.467,0.299c0,0.004-0.242,0.155-0.635,0.492l0,0c-0.398,0.344-0.926,0.865-1.458,1.569l0,0
			c-1.055,1.404-2.115,3.531-2.115,6.472l0,0c0.002,4.453,1.8,6.879,2.67,7.811l0,0c0.293,0.302,0.462,0.426,0.462,0.426l0,0
			l0.542,0.412l-0.575,0.365c0.004,0.004-0.966,0.601-1.945,1.741l0,0c-0.984,1.146-1.94,2.775-1.94,4.806l0,0
			c0,1.019,0.233,2.146,0.843,3.384l0,0c0.073,0.058,0.197,0.134,0.345,0.21l0,0c0.247,0.141,0.568,0.257,0.689,0.248l0,0
			c0,0,0.005,0,0.011,0l0,0c0.002-0.012,0.006-0.025,0.01-0.048l0,0c0.01-0.055,0.013-0.146,0.013-0.245l0,0
			c0.006-0.735-0.28-2.169-0.28-3.537l0,0c0.005-0.823,0.098-1.645,0.477-2.335l0,0c0.84-1.521,2-2.016,2.905-2.006l0,0
			c0.905,0.009,1.516,0.408,1.561,0.434l0,0l0.274,0.175l-0.067,0.317c0,0-0.495,2.304-0.495,4.641l0,0
			c-0.015,2.029,0.441,3.955,1.497,4.387l0,0c0.511,0.244,0.863,0.33,1.042,0.326l0,0c0.234-0.041,0.169,0.051,0.239-0.448l0,0
			c0.007-0.668-0.363-1.861-0.526-2.816l0,0c-0.06-0.324-0.081-0.68-0.081-1.055l0,0c0-1.022,0.174-2.188,0.434-3.168l0,0
			c0.303-0.966,0.505-1.726,1.2-2.084l0,0l0.127-0.054l0.124,0.021c0.016-0.006,9.082,1.455,15.055,1.455l0,0
			c2.301,0.026,4.182-0.278,4.626-0.721l0,0l0.526-0.457l0.23,0.664c0.008,0.021,0.695,1.947,0.695,3.874l0,0
			c0,0.731-0.094,1.461-0.395,2.11l0,0c-0.658,1.374-1.348,2.755-1.317,3.187l0,0c0,0.03,0.006,0.047,0.006,0.058l0,0
			C38.81,61.839,38.838,61.846,38.885,61.846L38.885,61.846z"/>
	</g>
	<g>
		<path fill="#F48020" d="M0.808,2.95c0,0-1.896,10.024,3.319,13.938c4.612,3.466,14.694,3.448,18.33-2.664
			c3.63-6.101,0.943-15.505-1.424-13.462c-2.367,2.029-4.091,9.654-8.375,10.02c-5.531,0.467-6.951-4.546-9.005-9.398
			C2.977-0.201,1.598,0.6,0.808,2.95z"/>
		<path fill="#231F20" d="M3.841,17.269C0.61,14.812,0.005,10.353,0,7.078l0,0C0,4.68,0.335,2.879,0.337,2.857l0,0l0.47,0.093
			L0.356,2.803c0.557-1.574,1.278-2.645,2.372-2.721l0,0c0.625,0.005,1.102,0.473,1.359,1.115l0,0
			c0.987,2.339,1.825,4.674,2.986,6.376l0,0c1.175,1.706,2.57,2.756,4.881,2.77l0,0c0.212,0,0.436-0.014,0.661-0.035l0,0
			c1.833-0.129,3.291-1.949,4.53-4.145l0,0c1.26-2.179,2.243-4.59,3.573-5.756l0,0C21.003,0.153,21.349,0,21.712,0l0,0
			c1.06,0.057,1.685,1.028,2.191,2.289l0,0c0.492,1.289,0.8,3.011,0.8,4.888l0,0c0,2.391-0.503,5.037-1.841,7.284l0,0
			c-2.204,3.685-6.563,5.229-10.732,5.229l0,0C8.999,19.684,5.934,18.826,3.841,17.269L3.841,17.269z M0.948,7.078
			c-0.013,3.177,0.65,7.352,3.46,9.436l0,0c1.864,1.406,4.766,2.241,7.722,2.235l0,0c3.959,0,7.963-1.467,9.919-4.761l0,0
			c1.223-2.056,1.708-4.544,1.708-6.812l0,0c0-1.77-0.3-3.403-0.738-4.554l0,0c-0.434-1.183-1.066-1.738-1.307-1.682l0,0
			c-0.092,0-0.208,0.029-0.372,0.174l0,0c-1.036,0.859-2.099,3.28-3.362,5.512l0,0c-1.284,2.221-2.835,4.389-5.28,4.621l0,0
			c-0.259,0.021-0.505,0.03-0.744,0.03l0,0c-2.646,0.011-4.421-1.325-5.666-3.176l0,0C5.032,6.252,4.191,3.873,3.216,1.567l0,0
			c-0.219-0.488-0.4-0.539-0.488-0.539l0,0c-0.215-0.073-1,0.591-1.459,2.034l0,0C1.229,3.295,0.948,4.935,0.948,7.078L0.948,7.078z
			"/>
	</g>
	<g>
		<path fill="#F48020" d="M46.305,8.837c0,0-4.609,9.125-0.682,14.319c3.47,4.584,13.175,7.313,18.361,2.43
			c5.191-4.884,5.212-14.65,2.375-13.335c-2.852,1.307-6.622,8.169-10.841,7.352c-5.448-1.06-5.423-6.262-6.048-11.495
			C49.267,6.396,47.711,6.796,46.305,8.837z"/>
		<path fill="#231F20" d="M56.848,28.636c-4.58-0.01-9.297-2.18-11.602-5.209l0,0c-1.259-1.661-1.684-3.671-1.684-5.646l0,0
			c0.01-4.609,2.307-9.119,2.314-9.156l0,0L46.3,8.837L45.913,8.57c0.865-1.219,1.742-1.975,2.681-2.007l0,0
			c0.752-0.019,1.286,0.657,1.348,1.486l0,0c0.312,2.633,0.472,5.224,1.193,7.215l0,0c0.739,1.983,1.911,3.36,4.476,3.869l0,0
			c0.207,0.048,0.412,0.063,0.613,0.063l0,0c1.704,0.023,3.515-1.416,5.2-3.106l0,0c1.701-1.687,3.215-3.552,4.724-4.268l0,0
			c0.233-0.103,0.463-0.165,0.7-0.165l0,0c0.716,0,1.219,0.541,1.479,1.184l0,0c0.274,0.652,0.394,1.502,0.394,2.489l0,0
			c-0.004,3.124-1.291,7.643-4.413,10.595l0,0c-2.038,1.916-4.729,2.71-7.449,2.71l0,0C56.857,28.636,56.852,28.636,56.848,28.636
			L56.848,28.636z M44.514,17.781c0,1.852,0.395,3.642,1.488,5.087l0,0c2.045,2.718,6.573,4.841,10.846,4.831l0,0
			c2.547,0,4.979-0.734,6.811-2.451l0,0c2.861-2.684,4.128-7.035,4.111-9.917l0,0c0.006-0.901-0.118-1.657-0.32-2.134l0,0
			c-0.219-0.489-0.422-0.608-0.603-0.603l0,0c-0.067,0-0.165,0.017-0.29,0.078l0,0c-1.172,0.519-2.754,2.36-4.467,4.08l0,0
			c-1.725,1.702-3.634,3.362-5.867,3.379l0,0c-0.258,0.005-0.525-0.021-0.793-0.071l0,0c-2.877-0.541-4.421-2.299-5.191-4.479l0,0
			c-0.781-2.188-0.928-4.823-1.236-7.418l0,0c-0.114-0.639-0.241-0.644-0.409-0.657l0,0c-0.301-0.036-1.128,0.463-1.88,1.567l0,0
			C46.544,9.444,44.503,13.66,44.514,17.781L44.514,17.781z"/>
	</g>
	<path fill="#231F20" d="M28.141,12.354c0,0.601-0.494,1.089-1.105,1.089c-0.609,0-1.107-0.488-1.107-1.089
		c0-0.61,0.498-1.105,1.107-1.105C27.647,11.248,28.141,11.743,28.141,12.354z"/>
	<path fill="#231F20" d="M41.89,14.071c0,0.601-0.492,1.095-1.107,1.095c-0.611,0-1.104-0.494-1.104-1.095
		c0-0.607,0.493-1.097,1.104-1.097C41.398,12.975,41.89,13.464,41.89,14.071z"/>
	<path fill="#231F20" d="M13.969,40.901l0.856-0.401c0.002,0,0.135,0.284,0.429,0.737l0,0c0.301,0.45,0.758,1.052,1.383,1.647l0,0
		c1.25,1.214,3.132,2.402,5.798,2.402l0,0c0.291,0,0.599-0.017,0.923-0.041l0,0l0.088,0.93c-0.347,0.032-0.685,0.051-1.011,0.058
		l0,0C16.521,46.201,14.026,41.01,13.969,40.901L13.969,40.901z M13.969,40.901L13.969,40.901L13.969,40.901L13.969,40.901
		L13.969,40.901L13.969,40.901z"/>
</g>
</svg>
