<?xml version="1.0" encoding="utf-8"?>
<!-- Generator: Adobe Illustrator 16.0.0, SVG Export Plug-In . SVG Version: 6.00 Build 0)  -->
<!DOCTYPE svg PUBLIC "-//W3C//DTD SVG 1.1//EN" "http://www.w3.org/Graphics/SVG/1.1/DTD/svg11.dtd">
<svg version="1.1" id="Layer_1" xmlns="http://www.w3.org/2000/svg" xmlns:xlink="http://www.w3.org/1999/xlink" x="0px" y="0px"
	 width="115.019px" height="151.107px" viewBox="0 0 115.019 151.107" enable-background="new 0 0 115.019 151.107"
	 xml:space="preserve">
<path fill="#F37B37" d="M36.544,31.848c0,0-21.8,8.688-26.782,14.564c-4.978,5.875-11.608,19.031-8.533,33.36
	c3.079,14.338,13.986,25.849,20.618,28.903c6.64,3.053,23.229,5.406,28.207,5.643c4.979,0.231,9.485,0.468,15.164-0.473
	c5.695-0.945,18.964-6.586,24.182-10.107c5.211-3.52,13.268-11.279,16.351-21.853c3.088-10.565,2.847-22.082-2.847-32.419
	C97.22,39.127,91.769,31.612,78.021,29.03c-13.747-2.585-18.249-1.645-23.938-0.709C48.394,29.262,36.544,31.848,36.544,31.848z"/>
<path fill="#FDBD30" d="M56.452,114.786c0,0,3.796,10.329,2.372,14.093c-1.423,3.763-5.93,9.16-11.852,11.279
	c-5.927,2.116-11.85,3.753-13.514,4.697c-1.661,0.946-5.684,3.527-3.314,4.937c2.371,1.403,9.479-0.237,13.271-1.409
	c3.796-1.177,24.182-9.396,27.969-11.279c3.796-1.882,15.641-5.64,18.481-7.053c2.848-1.409,10.197-3.989,12.089-5.162
	c1.898-1.182,2.613-2.816,3.796-3.053c1.184-0.237,2.132-0.237,2.609,0.936c0.479,1.172,0.71,1.645,0.71,3.054
	c0,1.408,0.239,2.816,0.472,3.994c0.24,1.172,0,2.585,0.24,3.295c0.232,0.699,0.943,3.049,1.653,1.877
	c0.716-1.178,2.848-5.64,2.848-8.462s0.233-8.458-0.951-9.867c-1.181-1.408-3.079-3.289-4.734-2.344
	c-1.663,0.936-7.825,3.753-9.008,4.931c-1.187,1.167-1.897,1.876-1.897-0.474c0-2.348,0-9.166,0-9.166s11.617-7.279,13.981-9.16
	c2.37-1.876,3.553-6.576-0.238-5.871s-15.165,8.457-15.165,8.457l-2.611-2.586c0,0-7.816,6.344-9.709,6.344
	c0,0-1.898-1.881-4.268-0.469c-2.371,1.409-7.587,6.34-7.587,6.34S57.876,116.662,56.452,114.786z"/>
<path fill="#231F20" d="M31.219,150.953c-1.385-0.323-2.203-1.058-2.203-2.025l0,0c0.04-1.204,1.083-2.251,2.405-3.141l0,0
	c1.343-0.869,3.044-1.537,4.621-1.64l0,0c3.748-0.169,15.479-6.303,20.316-10.91l0,0c1.505-1.408,2.07-3.917,2.07-6.683l0,0
	c0-5.521-2.185-11.845-2.188-11.855l0,0l0.898-0.308c0,0.02,2.233,6.411,2.238,12.163l0,0c-0.005,2.869-0.548,5.635-2.358,7.361l0,0
	c-5.118,4.788-16.61,10.878-20.921,11.176l0,0c-1.344,0.073-2.935,0.68-4.147,1.482l0,0c-1.239,0.786-2.027,1.809-1.986,2.354l0,0
	c0.006,0.365,0.244,0.782,1.479,1.111l0,0c0.351,0.093,0.822,0.133,1.384,0.133l0,0c6.001,0.026,21.371-5.336,26.235-8.076l0,0
	c5.549-3.101,24.25-9.424,29.67-11.771l0,0c5.46-2.33,13.311-5.229,15.479-7.635l0,0c0.97-1.05,1.95-1.59,2.903-1.59l0,0
	c1.555,0.016,2.592,1.404,2.895,3.239l0,0c0.201,1.229,0.155,3.408,0.217,5.518l0,0c0.032,2.096,0.249,4.147,0.68,4.692l0,0
	c0.12,0.16,0.156,0.149,0.212,0.163l0,0c0.043,0,0.146-0.023,0.301-0.121l0,0c0.612-0.335,1.284-1.929,1.635-4.01l0,0
	c0.383-2.083,0.55-4.632,0.55-6.987l0,0c0.005-2.443-0.188-4.668-0.493-5.877l0,0c-0.326-1.373-1.814-1.979-3.79-1.99l0,0
	c-2.366-0.008-5.191,0.947-6.337,1.99l0,0c-1.672,1.436-3.366,3.152-4.788,3.234l0,0c-0.348,0.021-0.748-0.17-0.942-0.499l0,0
	c-0.202-0.324-0.266-0.714-0.271-1.203l0,0c0.005-2.899,0.949-9.69,0.955-9.7l0,0l0.933,0.123c0,0.015-0.947,6.827-0.943,9.577l0,0
	c0.055,0.839,0.155,0.741,0.269,0.767l0,0c0.581,0.082,2.584-1.538,4.153-3.004l0,0c1.464-1.273,4.361-2.209,6.972-2.22l0,0
	c2.104-0.015,4.184,0.673,4.714,2.693l0,0c0.342,1.358,0.518,3.614,0.518,6.108l0,0c0,2.396-0.17,4.998-0.565,7.156l0,0
	c-0.419,2.158-0.949,3.886-2.059,4.638l0,0c-0.254,0.152-0.519,0.257-0.81,0.267l0,0c-0.896-0.058-1.238-0.854-1.445-1.676l0,0
	c-0.219-0.875-0.316-1.994-0.368-3.187l0,0c-0.101-2.387-0.026-5.102-0.229-6.294l0,0c-0.29-1.645-1.085-2.473-1.961-2.457l0,0
	c-0.56-0.009-1.332,0.338-2.197,1.285l0,0c-2.573,2.756-10.356,5.501-15.809,7.866l0,0c-5.481,2.354-24.219,8.718-29.579,11.727l0,0
	c-5.104,2.832-20.292,8.168-26.703,8.188l0,0C32.207,151.107,31.675,151.067,31.219,150.953L31.219,150.953z"/>
<path fill="#231F20" d="M92.756,111.532c0.009-0.011,5.899-2.626,13.688-7.484l0,0c5.575-3.435,7.691-6.124,7.624-7.429l0,0
	c-0.005-0.602-0.325-1.018-1.155-1.377l0,0c-0.048-0.016-0.147-0.043-0.287-0.043l0,0c-1.68-0.045-7.077,2.834-11.803,5.728l0,0
	c-4.761,2.895-9.019,5.784-9.029,5.784l0,0l-0.534-0.771c0.012-0.005,4.287-2.904,9.071-5.811l0,0
	c4.833-2.908,9.983-5.818,12.295-5.869l0,0c0.234,0,0.453,0.031,0.655,0.113l0,0c1.016,0.405,1.748,1.203,1.737,2.246l0,0
	c-0.068,2.104-2.451,4.684-8.07,8.221l0,0c-7.837,4.889-13.789,7.541-13.805,7.546l0,0v0.011L92.756,111.532L92.756,111.532z"/>
<polygon fill="#231F20" points="92.881,100.577 93.496,99.853 96.572,102.442 95.964,103.158 92.881,100.577 "/>
<path fill="#231F20" d="M72.629,122.669L72.629,122.669L72.629,122.669L72.629,122.669L72.629,122.669L72.629,122.669z
	 M72.037,121.928c0.005,0,3.02-2.4,6.036-5.373l0,0c3.039-2.94,6.005-6.578,5.948-8.477l0,0c0-0.176-0.021-0.319-0.057-0.453l0,0
	c-0.373-1.213-0.819-1.464-1.494-1.496l0,0c-1.606-0.057-4.647,2.433-7.235,4.551l0,0c-3.733,3.013-6.787,6.971-6.792,6.971l0,0
	l-0.752-0.565c0.01-0.021,3.101-4.031,6.949-7.136l0,0c2.634-2.086,5.497-4.698,7.83-4.76l0,0c1.104-0.021,2.037,0.76,2.406,2.189
	l0,0c0.062,0.221,0.088,0.453,0.094,0.699l0,0c-0.063,2.622-3.174,6.097-6.223,9.145l0,0c-3.036,2.979-6.053,5.395-6.119,5.446l0,0
	L72.037,121.928L72.037,121.928z"/>
<g>
	<path fill="#F4EA0B" d="M39.862,63.805L4.546,13.757l24.888,16.21l0.473-28.661l19.669,24.198L61.426,0.36l-5.211,60.617
		C56.215,60.977,42.705,67.793,39.862,63.805z"/>
	<path fill="#231F20" d="M39.474,64.066l0.389-0.261L39.474,64.066L4.158,14.021l0.652-0.666l24.162,15.747L29.456,0l20.016,24.62
		L61.003,0.167l0.896,0.236l-5.234,60.872l-0.231,0.123c-0.037,0-8.08,4.103-13.272,4.124l0,0c-0.004,0-0.01,0-0.014,0l0,0
		C41.627,65.521,40.263,65.151,39.474,64.066L39.474,64.066z M43.16,64.586c2.36,0,5.602-0.998,8.22-2.005l0,0
		c2.091-0.813,3.787-1.614,4.389-1.908l0,0l4.963-57.717L49.685,26.383L30.363,2.606L29.889,30.83L6.352,15.489l33.896,48.037l0,0
		C40.756,64.246,41.762,64.586,43.16,64.586L43.16,64.586z"/>
</g>
<g>
	<path fill="#F16923" d="M46.973,53.697c0,0,3.555-16.446,1.182-19.506c-2.367-3.053-4.739,7.286-4.739,7.286
		s-7.582-7.753-9.956-3.759C31.094,41.713,46.973,53.697,46.973,53.697z"/>
	<path fill="#231F20" d="M46.682,54.067c-0.005-0.005-3.452-2.602-6.911-5.799l0,0c-3.449-3.239-6.955-6.894-7.021-9.614l0,0
		c0-0.41,0.093-0.817,0.306-1.177l0,0c0.544-0.95,1.473-1.383,2.412-1.377l0,0c2.81,0.067,6.3,3.162,7.689,4.473l0,0
		c0.353-1.383,1.172-4.236,2.23-5.963l0,0c0.486-0.761,1.016-1.42,1.855-1.451l0,0c0.503,0,0.939,0.293,1.292,0.745l0,0
		c0.726,0.978,0.896,2.618,0.913,4.627l0,0c-0.006,6.005-2.013,15.248-2.013,15.264l0,0l-0.16,0.725L46.682,54.067L46.682,54.067z
		 M46.973,53.697l0.285-0.376L46.973,53.697L46.973,53.697z M35.467,37.046c-0.689,0.016-1.173,0.231-1.593,0.909l0,0
		c-0.114,0.2-0.176,0.422-0.176,0.699l0,0c-0.079,1.939,3.291,5.81,6.725,8.925l0,0c2.552,2.365,5.108,4.401,6.234,5.274l0,0
		c0.466-2.303,1.841-9.484,1.841-14.322l0,0c0.016-1.933-0.26-3.496-0.717-4.051l0,0c-0.265-0.33-0.431-0.385-0.539-0.385l0,0
		c-0.17-0.032-0.628,0.297-1.047,1.007l0,0c-0.426,0.684-0.834,1.64-1.182,2.607l0,0c-0.691,1.933-1.137,3.87-1.137,3.875l0,0
		l-0.196,0.844l-0.603-0.622c-0.006-0.005-1.182-1.208-2.748-2.411l0,0c-1.541-1.203-3.49-2.349-4.828-2.349l0,0
		C35.485,37.046,35.477,37.046,35.467,37.046L35.467,37.046z"/>
</g>
<g>
	<path fill="#FDBD30" d="M63.563,61.918c0,0-9.246-2.823-31.286,2.585c0,0-5.214-7.753-10.901-3.053
		c-5.684,4.693,1.897,11.042,6.634,7.752c0,0,12.093,27.957,17.065,31.72c4.979,3.764,8.768,5.64,13.986,2.581
		c5.213-3.054,13.033-21.145,10.423-39c0,0,5.217-2.823,2.61-7.279C69.484,52.761,60.72,54.869,63.563,61.918z"/>
	<path fill="#231F20" d="M54.036,105.498c-3.158-0.006-5.983-1.738-9.245-4.205l0,0c-2.683-2.068-6.866-9.955-10.54-17.439l0,0
		c-3.069-6.292-5.698-12.235-6.455-13.963l0,0c-0.867,0.473-1.799,0.689-2.724,0.689l0,0c-3.136-0.021-6.164-2.422-6.201-5.429l0,0
		c-0.007-1.378,0.674-2.818,2.198-4.061l0,0c1.389-1.158,2.816-1.63,4.138-1.625l0,0c3.746,0.042,6.52,3.506,7.261,4.504l0,0
		c10.663-2.592,18.323-3.26,23.388-3.26l0,0c3.559,0,5.835,0.329,6.977,0.555l0,0c-0.214-0.699-0.311-1.352-0.311-1.963l0,0
		c0.01-3.177,2.665-4.884,5.264-4.895l0,0c1.815,0,3.696,0.823,4.72,2.576l0,0c0.555,0.956,0.799,1.872,0.794,2.709l0,0
		c-0.043,2.797-2.461,4.524-3.301,5.049l0,0c0.332,2.354,0.483,4.729,0.483,7.058l0,0c-0.048,15.376-6.38,29.217-11.181,32.116l0,0
		c-1.856,1.084-3.579,1.584-5.249,1.584l0,0C54.048,105.498,54.04,105.498,54.036,105.498L54.036,105.498z M28.449,69.017
		c0.006,0.01,3.012,6.981,6.659,14.425l0,0c3.604,7.434,7.959,15.408,10.258,17.099l0,0c3.237,2.452,5.896,4.02,8.67,4.016l0,0
		c1.482,0,3.023-0.427,4.783-1.455l0,0c4.205-2.391,10.759-16.225,10.712-31.303l0,0c0-2.391-0.159-4.817-0.513-7.228l0,0
		l-0.053-0.324l0.296-0.154c-0.005-0.01,0.772-0.427,1.558-1.203l0,0c0.787-0.782,1.532-1.877,1.527-3.198l0,0
		c0-0.668-0.175-1.409-0.661-2.236l0,0c-0.826-1.419-2.355-2.107-3.9-2.112l0,0c-2.231,0.025-4.305,1.378-4.316,3.958l0,0
		c0,0.709,0.157,1.522,0.536,2.442l0,0l-0.441,0.175l0.14-0.448l-0.14,0.448l0.441-0.175l0.366,0.92l-0.948-0.293
		c0,0.005-0.556-0.175-1.801-0.354l0,0c-1.239-0.181-3.137-0.36-5.767-0.36l0,0c-5.029,0-12.709,0.668-23.465,3.301l0,0
		l-0.322,0.082l-0.186-0.278c-0.005,0-0.737-1.095-1.96-2.195l0,0c-1.225-1.104-2.904-2.165-4.716-2.159l0,0
		c-1.104,0-2.271,0.37-3.531,1.403l0,0c-1.354,1.126-1.852,2.283-1.856,3.342l0,0c0,1.162,0.622,2.282,1.613,3.121l0,0
		c0.98,0.838,2.313,1.373,3.64,1.362l0,0c0.925,0,1.837-0.247,2.667-0.822l0,0l0.477-0.33L28.449,69.017L28.449,69.017z"/>
</g>
<path fill="#231F20" d="M54.68,100.932c-1.266,0-2.576-0.626-3.573-1.83l0,0c-0.665-0.853-1.462-3.388-2.484-6.981l0,0
	c-0.996-3.557-2.126-8.045-3.189-12.46l0,0c-2.126-8.828-3.977-17.326-3.977-17.326l0,0l0.922-0.206
	c0.011,0.031,4.18,19.125,7.156,29.745l0,0c0.975,3.517,1.904,6.19,2.304,6.633l0,0c0.84,1.018,1.897,1.49,2.842,1.485l0,0
	c1.244-0.015,2.343-0.767,2.733-2.458l0,0c0.02-0.098,0.036-0.293,0.036-0.539l0,0c0.006-2.715-1.665-11.768-3.334-20.039l0,0
	c-1.671-8.293-3.336-15.86-3.342-15.875l0,0l0.924-0.201c0.006,0.026,6.686,30.29,6.701,36.115l0,0c0,0.283-0.016,0.525-0.063,0.735
	l0,0c-0.425,2.036-1.961,3.202-3.621,3.202l0,0C54.7,100.932,54.689,100.932,54.68,100.932L54.68,100.932z"/>
<polygon fill="#231F20" points="50.681,96.933 57.558,95.76 57.719,96.686 50.846,97.857 50.681,96.933 "/>
<path fill="#231F20" d="M30.285,112.422c-14.926-3.1-30.006-18.111-30.244-41.801l0,0c0-0.133,0-0.267,0-0.39l0,0
	c0.026-23.545,21.589-32.223,21.63-32.244l0,0v0.005l0.356,0.869c-0.006,0.005-1.295,0.514-3.271,1.671l0,0
	c-1.976,1.157-4.61,2.936-7.243,5.428l0,0C6.243,50.952,0.996,58.776,0.989,70.23l0,0c0,0.123,0,0.247,0,0.38l0,0
	c0.239,23.289,15.024,37.889,29.493,40.89l0,0c8.084,1.682,16.9,2.726,24.907,2.726l0,0c6.483,0,12.437-0.689,17.031-2.236l0,0
	l0.295,0.885c-4.739,1.6-10.777,2.287-17.326,2.287l0,0C47.301,115.162,38.432,114.113,30.285,112.422L30.285,112.422z"/>
<path fill="#231F20" d="M84.249,106.119c0-0.004,0.94-0.35,2.479-1.197l0,0c1.541-0.843,3.662-2.186,5.976-4.123l0,0
	c4.626-3.897,10.014-10.216,13.063-19.989l0,0c1.146-3.649,1.641-7.341,1.641-10.97l0,0c0.025-15.742-9.466-30.383-16.612-35.021
	l0,0c-7.66-5.017-23.461-6.606-29.493-6.591l0,0c-0.881,0-1.565,0.032-1.938,0.089l0,0l-0.135-0.931
	c0.467-0.072,1.16-0.098,2.073-0.098l0,0c6.182,0.016,21.958,1.521,30.017,6.75l0,0c7.489,4.905,17.018,19.675,17.042,35.802l0,0
	c0,3.712-0.513,7.501-1.686,11.249l0,0c-6.228,19.941-22.024,25.89-22.086,25.909l0,0l0,0L84.249,106.119L84.249,106.119z"/>
<polygon fill="#231F20" points="15.059,42.448 15.836,41.914 28.72,60.638 27.936,61.162 15.059,42.448 "/>
<polygon fill="#231F20" points="5.486,52.453 5.979,51.65 21.619,61.048 21.131,61.851 5.486,52.453 "/>
<polygon fill="#231F20" points="0,66.617 19.441,64.971 19.519,65.913 0.088,67.557 0,66.617 "/>
<polygon fill="#231F20" points="1.141,77.438 29.584,72.03 29.755,72.95 1.316,78.363 1.141,77.438 "/>
<polygon fill="#231F20" points="3.453,86.615 32.136,77.68 32.421,78.579 3.743,87.509 3.453,86.615 "/>
<polygon fill="#231F20" points="8.603,96.274 34.435,83.349 34.865,84.188 9.027,97.107 8.603,96.274 "/>
<polygon fill="#231F20" points="14.96,103.812 37.478,89.715 37.98,90.506 15.463,104.604 14.96,103.812 "/>
<polygon fill="#231F20" points="24.596,109.281 39.765,94.243 40.434,94.912 25.266,109.945 24.596,109.281 "/>
<polygon fill="#231F20" points="35.668,112.416 43.487,100.202 44.291,100.706 36.471,112.921 35.668,112.416 "/>
<polygon fill="#231F20" points="44.868,113.918 48.42,103.821 49.318,104.13 45.764,114.232 44.868,113.918 "/>
<polygon fill="#231F20" points="52.428,114.51 53.134,105.344 54.084,105.42 53.367,114.58 52.428,114.51 "/>
<polygon fill="#231F20" points="57.423,104.823 58.326,104.53 61.645,114.401 60.741,114.699 57.423,104.823 "/>
<polygon fill="#231F20" points="61.286,100.963 62.049,100.408 71.524,113.09 70.766,113.65 61.286,100.963 "/>
<polygon fill="#231F20" points="63.304,98.258 63.817,97.467 78.275,106.633 77.768,107.42 63.304,98.258 "/>
<polygon fill="#231F20" points="65.777,93.848 66.089,92.953 91.448,101.652 91.138,102.536 65.777,93.848 "/>
<polygon fill="#231F20" points="67.742,88.691 67.914,87.771 99.912,93.643 99.741,94.567 67.742,88.691 "/>
<polygon fill="#231F20" points="69.216,83.062 69.287,82.122 104.836,84.943 104.765,85.879 69.216,83.062 "/>
<polygon fill="#231F20" points="70.14,76.729 107.585,72.024 107.707,72.955 70.253,77.653 70.14,76.729 "/>
<polygon fill="#231F20" points="70.273,71.11 106.062,58.422 106.384,59.311 70.596,71.994 70.273,71.11 "/>
<polygon fill="#231F20" points="69.699,66.693 101.22,46.021 101.742,46.798 70.221,67.48 69.699,66.693 "/>
<polygon fill="#231F20" points="72.192,58.185 90.675,34.141 91.432,34.711 72.944,58.756 72.192,58.185 "/>
<polygon fill="#231F20" points="69.044,54.704 78.523,29.802 79.412,30.13 69.931,55.034 69.044,54.704 "/>
<polygon fill="#231F20" points="61.203,61.604 67.121,28.239 68.055,28.404 62.136,61.768 61.203,61.604 "/>
<path fill="#231F20" d="M39.745,77.664c0,0.843-0.691,1.527-1.541,1.527s-1.547-0.684-1.547-1.527c0-0.849,0.697-1.532,1.547-1.532
	S39.745,76.815,39.745,77.664z"/>
<path fill="#231F20" d="M66.524,73.665c0,0.848-0.69,1.532-1.541,1.532s-1.542-0.684-1.542-1.532c0-0.843,0.691-1.521,1.542-1.521
	S66.524,72.821,66.524,73.665z"/>
</svg>
