<?xml version="1.0" encoding="utf-8"?>
<!-- Generator: Adobe Illustrator 16.0.0, SVG Export Plug-In . SVG Version: 6.00 Build 0)  -->
<!DOCTYPE svg PUBLIC "-//W3C//DTD SVG 1.1//EN" "http://www.w3.org/Graphics/SVG/1.1/DTD/svg11.dtd">
<svg version="1.1" id="Layer_1" xmlns="http://www.w3.org/2000/svg" xmlns:xlink="http://www.w3.org/1999/xlink" x="0px" y="0px"
	 width="80.488px" height="79.489px" viewBox="0 0 80.488 79.489" enable-background="new 0 0 80.488 79.489" xml:space="preserve">
<g>
	<g>
		<path fill="#F5851F" d="M13.351,25.952c0,0-7.432,6.11-4.266,6.11c3.158,0,26.067-4.231,21.011-9.243
			C25.04,17.805,13.351,25.952,13.351,25.952z"/>
		<path fill="#231F20" d="M8.214,32.316c-0.259-0.164-0.398-0.491-0.386-0.755l0,0c0.083-1.149,1.396-2.401,2.665-3.689l0,0
			c1.279-1.234,2.55-2.272,2.552-2.283l0,0l0.307,0.363l-0.273-0.385c0.037-0.008,6.859-4.828,12.587-4.851l0,0
			c1.763-0.004,3.469,0.48,4.769,1.769l0,0c0.555,0.547,0.869,1.157,0.863,1.794l0,0c-0.049,1.455-1.412,2.499-3.249,3.465l0,0
			c-1.865,0.956-4.341,1.798-6.897,2.506l0,0c-5.131,1.414-10.53,2.277-12.065,2.283l0,0C8.753,32.532,8.469,32.483,8.214,32.316
			L8.214,32.316z M27.609,26.905c1.792-0.895,2.788-1.915,2.738-2.627l0,0c0-0.327-0.144-0.687-0.583-1.129l0,0
			c-1.085-1.069-2.497-1.494-4.099-1.494l0,0c-2.604-0.002-5.642,1.154-8.002,2.337l0,0c-2.176,1.08-3.771,2.157-4.014,2.318l0,0
			h0.005c-0.005,0-1.25,1.031-2.494,2.234l0,0c-1.24,1.141-2.44,2.665-2.39,3.004l0,0c0.045,0.011,0.144,0.038,0.315,0.038l0,0
			C11.07,31.606,22.317,29.653,27.609,26.905L27.609,26.905z"/>
	</g>
	<g>
		<path fill="#F5851F" d="M31.046,34.725c0,0-11.565-0.057-11.377,3.131c0.161,2.666,11.693,0,12.956-1.253
			C33.892,35.346,34.524,35.346,31.046,34.725z"/>
		<path fill="#231F20" d="M20.324,39.179c-0.57-0.195-1.095-0.64-1.123-1.28l0,0c-0.009-0.054-0.009-0.092-0.009-0.123l0,0
			c0.021-1.072,0.906-1.73,1.958-2.175l0,0c1.074-0.457,2.45-0.744,3.843-0.942l0,0c2.785-0.394,5.635-0.404,6.011-0.404l0,0
			c0.039,0,0.062,0,0.076,0l0,0l-0.034,0.471l-0.087,0.46l0.087-0.46l0.034-0.471h0.02l0.029,0.005
			c0.967,0.172,1.613,0.299,2.059,0.429l0,0c0.397,0.133,0.839,0.211,0.912,0.814l0,0c-0.03,0.424-0.246,0.558-0.425,0.759l0,0
			c-0.2,0.195-0.445,0.403-0.716,0.67l0,0c-0.65,0.599-2.258,1.122-4.295,1.648l0,0c-2.015,0.497-4.357,0.884-6.193,0.884l0,0
			C21.638,39.464,20.912,39.39,20.324,39.179L20.324,39.179z M21.519,36.459c-0.962,0.411-1.401,0.885-1.379,1.316l0,0
			c0,0.031,0,0.033,0.002,0.054l0,0c0.013,0.167,0.097,0.298,0.514,0.465l0,0c0.399,0.151,1.045,0.231,1.814,0.231l0,0
			c1.707,0,4.009-0.375,5.964-0.863l0,0c1.937-0.458,3.641-1.129,3.859-1.394l0,0c0.283-0.283,0.534-0.506,0.697-0.66l0,0
			c-0.021-0.006-0.039-0.013-0.064-0.026l0,0c-0.363-0.098-0.991-0.224-1.921-0.391l0,0c-0.028,0-0.065-0.002-0.117-0.002l0,0
			C29.878,35.19,24.217,35.302,21.519,36.459L21.519,36.459z"/>
	</g>
	<g>
		<path fill="#F5851F" d="M44.003,42.24c0,0,2.527-16.289,12.008-20.677c9.481-4.383,22.752-4.383,24.017-8.141
			c0,0-2.523,10.336-2.213,19.737c0.317,9.397-18.963,35.708-32.548,36.65C31.681,70.749,41.791,46.001,44.003,42.24z"/>
		<path fill="#231F20" d="M39.278,67.878c-1.058-1.514-1.445-3.535-1.448-5.781l0,0c0.016-7.438,4.278-17.502,5.723-20.028l0,0
			c0.252-1.36,2.871-16.511,12.257-20.929l0,0c4.817-2.226,10.532-3.324,15.187-4.342l0,0c4.598-0.954,8.116-2.046,8.563-3.465l0,0
			c0.003-0.016,0.008-0.022,0.008-0.022l0,0l0,0c0.003-0.013,0.008-0.026,0.008-0.04l0,0l0.913,0.262
			c0.003,0.013-2.229,9.117-2.229,17.957l0,0c0,0.55,0.01,1.101,0.03,1.653l0,0c0.003,0.08,0.003,0.167,0.003,0.245l0,0
			c-0.029,5.058-4.844,13.898-11.331,21.75l0,0c-6.503,7.831-14.646,14.626-21.659,15.14l0,0c-0.268,0.018-0.524,0.023-0.771,0.023
			l0,0c-0.014,0-0.029,0-0.043,0l0,0C42.065,70.302,40.325,69.384,39.278,67.878L39.278,67.878z M44.454,42.4l-0.041,0.077
			c-1.32,2.207-5.653,12.467-5.633,19.619l0,0c0.065,4.322,1.39,7.236,5.75,7.266l0,0c0.231,0,0.463-0.006,0.705-0.021l0,0
			c6.461-0.42,14.597-7.043,20.994-14.795l0,0c6.424-7.72,11.146-16.621,11.113-21.158l0,0c0-0.075,0-0.144-0.005-0.216l0,0
			c-0.015-0.56-0.028-1.12-0.028-1.682l0,0c0.004-6.557,1.205-13.216,1.852-16.342l0,0c-1.67,1.168-4.564,1.788-7.961,2.567l0,0
			c-4.668,1.018-10.326,2.117-14.987,4.272l0,0c-4.551,2.095-7.528,7.156-9.321,11.729l0,0c-1.795,4.57-2.418,8.588-2.42,8.595l0,0
			L44.454,42.4L44.454,42.4z"/>
	</g>
	<path fill="#FFFFFF" d="M79.127,15.217c-4.128,1.635-3.646,1.448-8.194,2.501c-2.718,0.632-8.145,1.545-8.303,1.781
		c-0.157,0.234-2.61,5.629-2.61,5.629l5.298-1.094l-2.373,5.089l5.926-3.134l-1.58,7.359l4.579-4.384l0.791,7.443l3.083-4.778
		l1.185,5.323c0,0,0.399-2.616,0.46-5.441c0.176-8.107,1.148-12.285,1.346-13.901C78.929,15.983,79.688,14.994,79.127,15.217z"/>
	<g>
		<path fill="#F5851F" d="M15.879,7.468c0,0-8.847,11.592-10.426,14.412c-1.584,2.823-6.64,8.773-4.428,8.773
			c2.211,0,15.803-2.72,18.485-3.603c3.318-1.098,9.957-4.545,10.276-1.098c0.311,3.444-2.215,18.168-2.215,22.556
			c0,4.382-0.317,13.159-1.898,16.292c-1.579,3.131-12.321,8.453-8.847,12.529c2.103,2.461,3.793-0.629,5.689-3.449
			c1.896-2.814,10.901-5.637,11.534-5.012c1.846,1.824-4.445,2.75-7.111,4.076c-3.792,1.879-5.674,5.271-3.161,5.951
			c3.477,0.941,7.702-3.547,10.743-4.387c5.691-1.564,10.116,4.072,13.274-2.508c2.191-4.557-2.527-43.386-6.003-52.157
			c0,0,5.212-2.196,3.633-7.521c0,0-4.263,2.347-7.107,0.787c0,0-8.531-5.014-18.014-7.205c0,0-5.373-7.204-5.691-5.016
			C14.3,3.082,15.247,5.905,15.879,7.468z"/>
		<path fill="#231F20" d="M23.653,79.347c-0.934-0.225-1.521-0.953-1.496-1.766l0,0c0.054-1.711,1.879-3.695,4.569-5.061l0,0
			c1.847-0.91,5.163-1.611,6.58-2.447l0,0c0.487-0.264,0.625-0.521,0.601-0.564l0,0c0-0.029-0.013-0.105-0.145-0.254l0,0
			c-0.028-0.004-0.063-0.004-0.114-0.004l0,0c-1.63-0.064-9.317,2.609-10.74,4.887l0,0c-1.447,2.055-2.597,4.439-4.537,4.553l0,0
			c-0.679,0-1.325-0.371-1.909-1.061l0,0c-0.542-0.633-0.806-1.342-0.798-2.051l0,0c0.047-2.221,2.204-4.221,4.421-6.145l0,0
			c2.225-1.881,4.61-3.693,5.166-4.846l0,0c1.496-2.908,1.861-11.742,1.844-16.081l0,0c0.009-4.219,2.244-17.498,2.241-21.836l0,0
			c0-0.267-0.008-0.499-0.028-0.679l0,0c-0.12-0.845-0.457-1.009-1.432-1.072l0,0c-2.082-0.015-5.917,1.8-8.214,2.573l0,0
			c-2.797,0.907-16.252,3.611-18.638,3.622l0,0c-0.265,0.005-0.54-0.059-0.75-0.254l0,0c-0.21-0.2-0.28-0.478-0.274-0.708l0,0
			c0.041-1.051,0.996-2.452,2.078-4.084l0,0c1.087-1.601,2.332-3.303,2.956-4.416l0,0C6.537,18.976,14.139,8.973,15.34,7.395l0,0
			c-0.547-1.404-1.263-3.57-1.266-5.575l0,0c0-0.34,0.021-0.674,0.07-0.993l0,0c0.003-0.391,0.39-0.859,0.835-0.826l0,0
			c0.633,0.039,1.084,0.453,1.694,0.975l0,0c0.578,0.533,1.213,1.219,1.809,1.908l0,0c0.958,1.112,1.807,2.223,2.096,2.598l0,0
			c9.502,2.239,17.956,7.208,17.964,7.216l0,0c0.625,0.339,1.34,0.476,2.085,0.476l0,0c1.109,0,2.266-0.313,3.132-0.629l0,0
			c0.869-0.32,1.437-0.633,1.437-0.633l0,0l0.517-0.282l0.168,0.562c0.218,0.739,0.313,1.432,0.313,2.075l0,0
			c-0.026,3.464-2.754,5.244-3.812,5.804l0,0c2.883,7.928,6.436,34.683,6.445,46.642l0,0c-0.01,2.631-0.146,4.5-0.604,5.49l0,0
			c-1.25,2.664-2.935,3.564-4.706,3.541l0,0c-2.148-0.02-4.38-1.064-6.802-1.055l0,0c-0.673,0-1.361,0.076-2.069,0.277l0,0
			c-2.559,0.645-6.29,4.469-9.871,4.523l0,0c-0.008,0-0.016,0-0.023,0l0,0C24.386,79.489,24.016,79.446,23.653,79.347L23.653,79.347
			z M34.385,68.534c0.28,0.277,0.468,0.605,0.468,0.975l0,0c-0.025,0.668-0.523,1.053-1.07,1.379l0,0
			c-0.565,0.326-1.3,0.605-2.093,0.883l0,0c-1.59,0.537-3.448,1.045-4.542,1.588l0,0c-2.515,1.219-4.094,3.236-4.043,4.223l0,0
			c0.026,0.424,0.15,0.652,0.793,0.857l0,0c0.285,0.076,0.572,0.113,0.877,0.113l0,0c2.939,0.053,6.661-3.635,9.617-4.5l0,0
			c0.801-0.221,1.574-0.305,2.322-0.303l0,0c2.682,0.012,4.984,1.074,6.802,1.055l0,0c1.46-0.025,2.626-0.541,3.847-3.006l0,0
			c0.32-0.623,0.522-2.518,0.514-5.086l0,0c0.009-11.984-3.715-39.642-6.528-46.698l0,0l-0.168-0.427l0.422-0.177
			c0-0.011,0.91-0.383,1.826-1.229l0,0c0.925-0.856,1.817-2.116,1.823-3.915l0,0c-0.006-0.394-0.049-0.815-0.146-1.263l0,0
			c-0.864,0.398-2.635,1.105-4.481,1.113l0,0c-0.859,0-1.743-0.159-2.554-0.61l0,0c-0.021,0-8.486-4.976-17.876-7.148l0,0
			l-0.173-0.041l-0.102-0.139c-0.004-0.002-2.278-3.043-3.894-4.514l0,0c-0.383-0.372-0.766-0.608-0.947-0.688l0,0
			c-0.037,0.267-0.057,0.55-0.057,0.844l0,0c-0.005,1.892,0.756,4.143,1.292,5.472l0,0l-0.441,0.172l0.441-0.172l0.104,0.25
			l-0.162,0.213C16.25,7.766,7.392,19.372,5.862,22.106l0,0c-0.677,1.21-1.919,2.902-2.998,4.485l0,0
			c-1.081,1.55-1.96,3.124-1.919,3.563l0,0c0,0.009,0,0.019,0,0.019v0.002C0.962,30.18,0.99,30.18,1.024,30.18l0,0
			c2.043,0.016,15.77-2.72,18.337-3.578l0,0c2.225-0.728,6.011-2.597,8.515-2.617l0,0c1.16-0.06,2.295,0.578,2.375,1.922l0,0
			c0.021,0.224,0.029,0.473,0.029,0.764l0,0c-0.002,4.507-2.243,17.795-2.235,21.836l0,0c-0.018,4.429-0.285,13.143-1.949,16.499
			l0,0c-0.807,1.545-3.19,3.244-5.393,5.145l0,0c-2.213,1.857-4.136,3.893-4.093,5.428l0,0c0.006,0.49,0.157,0.945,0.576,1.439l0,0
			c0.493,0.578,0.871,0.736,1.186,0.736l0,0c0.933,0.117,2.367-1.99,3.749-4.135l0,0c2.007-2.816,9.382-5.246,11.529-5.309l0,0
			C33.887,68.325,34.105,68.298,34.385,68.534L34.385,68.534z"/>
	</g>
	<path fill="#231F20" d="M16.209,15.349c-0.328-0.255-0.519-0.638-0.511-1.014l0,0c0.069-1.161,1.213-2.017,2.26-2.814l0,0
		c1.062-0.766,2.105-1.329,2.12-1.334l0,0v0.005l0.45,0.823c-0.001,0.005-1.011,0.544-2.014,1.267l0,0
		c-1.02,0.695-1.938,1.699-1.868,2.053l0,0c0.006,0.104,0.014,0.157,0.162,0.286l0,0c0.139,0.115,0.296,0.165,0.523,0.167l0,0
		c0.731,0.021,2.031-0.76,3.037-1.596l0,0c1.021-0.827,1.797-1.655,1.802-1.655l0,0l0.689,0.64c-0.07,0.008-3.111,3.46-5.528,3.545
		l0,0c-0.011,0-0.012,0-0.021,0l0,0C16.927,15.721,16.533,15.613,16.209,15.349L16.209,15.349z"/>
	<path fill="#231F20" d="M23.425,18.741c-0.229-0.247-0.348-0.565-0.342-0.872l0,0c0.057-1.092,1.053-1.922,1.95-2.67l0,0
		c0.915-0.717,1.812-1.239,1.825-1.246l0,0v0.005l0.476,0.807c0,0-0.859,0.504-1.709,1.174l0,0c-0.871,0.648-1.649,1.574-1.592,1.93
		l0,0c0.004,0.098,0.018,0.156,0.104,0.25l0,0c0.156,0.17,0.373,0.259,0.737,0.265l0,0c1.322,0.07,3.868-1.684,4.031-2.074l0,0
		l0.812,0.488c-0.589,0.835-2.907,2.455-4.843,2.525l0,0c-0.009,0-0.019,0-0.019,0H24.85C24.336,19.323,23.801,19.166,23.425,18.741
		L23.425,18.741z"/>
	<polygon fill="#231F20" points="75.565,32.604 71.894,38.616 71.401,29.805 67.274,34.561 66.449,34.146 68.243,26.623 
		61.267,30.835 64.707,24.368 59.007,26.047 61.574,19.517 61.574,19.517 62.685,19.276 60.595,24.6 66.591,22.831 63.71,28.265 
		69.686,24.648 67.819,32.485 72.219,27.424 72.673,35.526 76.269,29.64 77.026,38.681 76.08,38.755 75.565,32.604 	"/>
	<path fill="#F5851F" d="M30.019,40.05c0,0-3.553,1.72-4.818,1.879c-1.263,0.157-4.665,1.097-4.503,2.116
		c0.155,1.015,0.712,1.489,2.289,1.411c1.579-0.082,6.876-1.647,7.743-2.352C31.6,42.4,30.019,40.05,30.019,40.05z"/>
	<path fill="#231F20" d="M20.753,45.395c-0.347-0.35-0.563-0.753-0.563-1.175l0,0c0.047-0.948,0.864-1.482,1.773-1.915l0,0
		c0.937-0.424,2.103-0.709,3.177-0.843l0,0c1.115-0.132,3.096-1.052,4.729-1.941l0,0c1.641-0.892,2.969-1.74,2.969-1.748l0,0h0.002
		l0.519,0.792c-0.045,0.008-5.334,3.46-8.103,3.825l0,0c-0.983,0.123-2.085,0.403-2.899,0.777l0,0
		c-0.843,0.361-1.262,0.842-1.218,1.053l0,0c0,0.107,0.047,0.27,0.285,0.511l0,0c0.085,0.106,0.492,0.247,1.118,0.239l0,0
		c1.523,0.008,4.126-0.684,6.414-1.615l0,0c2.29-0.905,4.319-2.17,4.669-2.9l0,0l0.841,0.444c-0.7,1.211-2.772,2.337-5.149,3.321
		l0,0c-2.375,0.965-5,1.684-6.774,1.691l0,0C21.825,45.903,21.208,45.818,20.753,45.395L20.753,45.395z"/>
</g>
</svg>
