<?xml version="1.0" encoding="utf-8"?>
<!-- Generator: Adobe Illustrator 16.0.0, SVG Export Plug-In . SVG Version: 6.00 Build 0)  -->
<!DOCTYPE svg PUBLIC "-//W3C//DTD SVG 1.1//EN" "http://www.w3.org/Graphics/SVG/1.1/DTD/svg11.dtd">
<svg version="1.1" id="Layer_1" xmlns="http://www.w3.org/2000/svg" xmlns:xlink="http://www.w3.org/1999/xlink" x="0px" y="0px"
	 width="124.344px" height="154.107px" viewBox="0 0 124.344 154.107" enable-background="new 0 0 124.344 154.107"
	 xml:space="preserve">
<g>
	<path fill="#F5851F" d="M52.653,35.931c0,0,17.222-37.121,24.965-35.399c7.743,1.723-5.213,20.831,0.155,35.399
		C77.773,35.931,56.288,41.725,52.653,35.931z"/>
	<path fill="#231F20" d="M52.248,36.179l0.405-0.248l0.43,0.19l-0.43-0.19L52.248,36.179l-0.135-0.217l0.109-0.23
		c0.006-0.015,9.251-19.953,17.301-30.014l0,0c2.712-3.336,5.211-5.67,7.556-5.717l0,0c0.213-0.005,0.431,0.015,0.643,0.066l0,0
		c2.137,0.453,2.945,2.258,2.909,4.462l0,0c-0.025,5.291-3.739,14.323-3.733,23.141l0,0c0,2.771,0.368,5.511,1.323,8.096l0,0
		l0.177,0.486l-0.499,0.127c-0.015,0.006-9.574,2.592-17.113,2.598l0,0C57.021,38.949,53.681,38.384,52.248,36.179L52.248,36.179z
		 M60.785,38.028c6.353,0.005,14.334-1.907,16.372-2.421l0,0c-0.872-2.572-1.209-5.249-1.209-7.938l0,0
		c0.016-9.032,3.749-18.215,3.729-23.141l0,0c-0.035-2.086-0.55-3.161-2.167-3.546l0,0c-0.135-0.03-0.28-0.045-0.431-0.045l0,0
		C75.43,0.89,72.884,2.992,70.264,6.3l0,0c-2.634,3.295-5.429,7.711-7.975,12.132l0,0c-4.615,8.004-8.411,15.998-9.096,17.46l0,0
		C54.308,37.401,57.258,38.05,60.785,38.028L60.785,38.028z"/>
</g>
<g>
	<path fill="#E2AF76" d="M58.658,127.56c0.337,0.616,35.312-0.47,35.312-0.47s10.771-23.543-0.239-28.896
		C68.139,85.743,49.888,111.581,58.658,127.56z"/>
	<path fill="#231F20" d="M58.652,128.063c-0.093-0.053-0.186,0.021-0.408-0.278l0,0l0.414-0.226l0.416-0.226l-0.416,0.226
		l-0.414,0.226c-1.567-2.843-2.293-5.988-2.293-9.166l0,0c0.01-11.789,9.947-24.175,24.53-24.184l0,0
		c4.168,0,8.701,1.014,13.463,3.331l0,0c3.95,1.928,5.222,6.057,5.222,10.483l0,0c-0.016,8.684-4.761,19.005-4.761,19.036l0,0
		l-0.124,0.262l-0.296,0.012c0,0-21.201,0.657-30.763,0.657l0,0C60.815,128.217,59.222,128.185,58.652,128.063L58.652,128.063z
		 M59.074,127.179c0.197,0.021,0.502,0.041,0.892,0.056l0,0c0.777,0.026,1.897,0.047,3.257,0.047l0,0
		c8.863,0,27.812-0.57,30.431-0.652l0,0c0.714-1.661,4.569-10.792,4.559-18.379l0,0c-0.005-4.293-1.198-7.948-4.684-9.641l0,0
		c-4.651-2.262-9.033-3.234-13.047-3.234l0,0c-7.007,0-12.892,2.979-17.036,7.385l0,0c-4.149,4.396-6.551,10.22-6.545,15.859l0,0
		c0,2.977,0.664,5.901,2.085,8.549l0,0C59.011,127.172,59.037,127.172,59.074,127.179L59.074,127.179z M58.876,127.153v-0.007
		c0,0.007-0.006,0.007-0.006,0.007H58.876z"/>
</g>
<g>
	<path fill="#A45C26" d="M49.172,59.652c0,0-7.58,6.117-9.002,7.283c-1.421,1.178-3.559,3.059-5.688,2.355
		c-2.131-0.704-13.988-4.935-17.301-5.401c-3.32-0.476-8.299-4.001-10.669-4.7c-2.369-0.702-7.818-2.114-5.448,2.821
		c2.369,4.925,9.008,6.341,12.563,7.28c3.554,0.941,19.194,6.108,21.092,7.753c1.892,1.646,3.32,2.112,4.029,4.935
		c0.711,2.823,7.82,29.844,9.003,32.661c1.189,2.816,5.451,19.027,7.115,23.021c1.654,3.996,5.685,16.216,9.241,15.979
		c3.552-0.237,7.11-3.29,5.212-4.704c-1.893-1.403-4.03-0.469-4.03-0.469s-10.189-28.891-0.472-41.343
		c9.719-12.456,27.021-6.117,28.912,4.458c1.904,10.574-5.451,34.542-5.451,35.245c0,0.705,2.371,4.462,5.218,4.699
		c2.843,0.232,5.211-0.468,3.791-2.591c-1.42-2.108-3.558-3.758-3.558-3.758s7.825-30.063,6.877-42.284
		C99.66,90.673,99.66,72.88,99.66,72.88s13.035-11.572,16.117-15.332c3.079-3.756,7.818-7.052,8.057-9.17
		c0.238-2.112-0.715-3.522-3.079-2.112c-2.375,1.407-13.986,8.223-16.356,10.574c-2.371,2.35-9.958,9.162-12.56,8.93
		c-2.61-0.237-5.452-2.821-7.11-3.527C83.069,61.538,51.782,55.894,49.172,59.652z"/>
	<path fill="#231F20" d="M58.301,147.331c-1.65-3.527-3.066-7.542-3.874-9.49l0,0c-1.682-4.057-5.954-20.285-7.11-23.026l0,0
		c-1.224-2.931-8.303-29.869-9.028-32.723l0,0c-0.685-2.653-1.894-2.967-3.881-4.694l0,0c-0.756-0.688-5.216-2.468-9.769-4.05l0,0
		c-4.58-1.616-9.386-3.143-11.136-3.604l0,0c-3.524-0.947-10.329-2.319-12.87-7.533l0,0C0.213,61.317,0.005,60.603,0,59.984l0,0
		c-0.005-0.709,0.326-1.3,0.84-1.608l0,0c0.509-0.308,1.121-0.4,1.758-0.4l0,0c1.4,0.005,3.014,0.458,4.05,0.761l0,0
		c2.517,0.777,7.479,4.261,10.596,4.688l0,0c3.449,0.488,15.247,4.718,17.385,5.419l0,0c0.273,0.087,0.544,0.128,0.813,0.128l0,0
		c1.529,0.025,3.216-1.372,4.424-2.389l0,0c1.369-1.14,8.405-6.804,8.971-7.261l0,0c1.012-1.183,3.382-1.377,6.606-1.419l0,0
		c5.026,0,12.047,0.843,17.979,1.738l0,0c5.964,0.916,10.703,1.851,11.492,2.169l0,0c1.789,0.793,4.604,3.296,6.935,3.485l0,0
		c0.063,0,0.104,0.005,0.124,0.005l0,0c1.043,0.046,3.641-1.563,6.068-3.495l0,0c2.453-1.938,4.874-4.159,6.027-5.301l0,0
		c2.492-2.459,14.052-9.213,16.438-10.641l0,0c0.711-0.422,1.334-0.633,1.904-0.639l0,0c0.632-0.01,1.186,0.314,1.498,0.792l0,0
		c0.311,0.49,0.436,1.085,0.436,1.754l0,0c0,0.215-0.01,0.433-0.042,0.663l0,0c-0.186,1.351-1.499,2.663-3.102,4.247l0,0
		c-1.608,1.562-3.547,3.314-5.057,5.155l0,0c-2.945,3.588-14.515,13.917-16.008,15.243l0,0c0.006,2.015,0.057,18.348,0.943,29.771
		l0,0c0.052,0.714,0.079,1.479,0.079,2.299l0,0c-0.006,12.599-6.142,36.916-6.893,39.858l0,0c0.611,0.497,2.229,1.905,3.417,3.669
		l0,0c0.327,0.483,0.503,0.94,0.503,1.392l0,0c0.01,0.758-0.556,1.308-1.219,1.574l0,0c-0.676,0.283-1.521,0.394-2.464,0.394l0,0
		c-0.337,0-0.688-0.019-1.047-0.044l0,0c-1.623-0.149-2.998-1.233-3.988-2.334l0,0c-0.99-1.15-1.607-2.148-1.659-2.837l0,0
		c0.025-0.381,0.373-1.527,0.917-3.608l0,0c0.534-2.035,1.255-4.814,1.977-7.935l0,0c1.438-6.236,2.868-13.847,2.868-19.601l0,0
		c0-1.486-0.098-2.846-0.307-4.018l0,0c-1.083-6.167-7.772-10.938-14.972-10.929l0,0c-4.599,0-9.392,1.924-13.099,6.667l0,0
		c-3.039,3.884-4.108,9.521-4.098,15.394l0,0c0,6.153,1.156,12.543,2.324,17.389l0,0c0.912,3.808,1.819,6.645,2.166,7.688l0,0
		c0.328-0.086,0.8-0.18,1.35-0.18l0,0c0.793,0,1.768,0.199,2.676,0.869l0,0c0.457,0.334,0.72,0.836,0.715,1.338l0,0
		c-0.03,1.063-0.877,1.988-2.006,2.754l0,0c-1.146,0.767-2.645,1.352-4.221,1.456l0,0c0,0-0.039,0-0.095,0l0,0
		C61.719,153.984,60.002,150.831,58.301,147.331L58.301,147.331z M2.598,58.917c-1.145,0.051-1.627,0.241-1.643,1.067l0,0
		C0.95,60.388,1.099,60.99,1.49,61.806l0,0c2.197,4.653,8.668,6.103,12.258,7.032l0,0c1.805,0.474,6.602,2.004,11.202,3.624l0,0
		c4.631,1.64,8.94,3.265,10.081,4.227l0,0c1.799,1.569,3.438,2.19,4.18,5.18l0,0c0.695,2.782,7.836,29.883,8.98,32.585l0,0
		c1.216,2.906,5.473,19.094,7.111,23.033l0,0c0.83,1.994,2.225,5.979,3.853,9.447l0,0c1.578,3.497,3.611,6.367,4.85,6.231l0,0
		c0.011,0,0.045,0,0.072,0l0,0c1.328-0.082,2.702-0.61,3.714-1.284l0,0c1.021-0.67,1.613-1.523,1.586-1.983l0,0
		c-0.009-0.213-0.076-0.372-0.342-0.583l0,0c-0.715-0.533-1.457-0.685-2.1-0.685l0,0c-0.422,0-0.793,0.067-1.055,0.14l0,0
		c-0.264,0.068-0.392,0.124-0.392,0.124l0,0l-0.473,0.217l-0.173-0.49c-0.005-0.02-4.697-13.298-4.697-25.827l0,0
		c0-5.974,1.06-11.808,4.294-15.963l0,0c3.88-4.977,8.981-7.044,13.852-7.037l0,0c7.597,0.003,14.681,4.971,15.905,11.704l0,0
		c0.224,1.251,0.322,2.654,0.328,4.182l0,0c-0.006,11.489-5.555,29.88-5.768,31.153l0,0c0.011,0.016,0.021,0.092,0.066,0.212l0,0
		c0.063,0.138,0.162,0.333,0.281,0.544l0,0c0.253,0.426,0.622,0.944,1.068,1.448l0,0c0.906,1.02,2.142,1.929,3.36,2.021l0,0
		c0.332,0.027,0.658,0.041,0.969,0.041l0,0c0.861,0,1.617-0.113,2.097-0.318l0,0c0.492-0.232,0.632-0.426,0.642-0.711l0,0
		c0-0.188-0.083-0.487-0.347-0.874l0,0c-1.364-2.035-3.444-3.643-3.449-3.643l0,0l-0.254-0.191l0.084-0.298
		c0-0.02,1.732-6.673,3.469-15.008l0,0c1.736-8.333,3.474-18.331,3.47-24.905l0,0c0-0.798-0.027-1.544-0.078-2.223l0,0
		c-0.949-12.25-0.949-30.044-0.949-30.048l0,0v-0.212l0.155-0.149c0.005,0,3.256-2.889,6.896-6.238l0,0
		c3.636-3.365,7.677-7.199,9.17-9.034l0,0c1.575-1.917,3.543-3.691,5.134-5.234l0,0c1.597-1.526,2.775-2.925,2.82-3.681l0,0
		c0.016-0.194,0.031-0.385,0.031-0.56l0,0c-0.035-1.14-0.357-1.604-0.983-1.609l0,0c-0.322,0-0.8,0.139-1.411,0.509l0,0
		c-2.354,1.388-14.022,8.262-16.269,10.499l0,0c-1.178,1.165-3.611,3.407-6.101,5.37l0,0c-2.529,1.953-4.972,3.655-6.657,3.701l0,0
		c-0.072,0-0.124-0.004-0.176-0.004l0,0c-2.854-0.287-5.73-2.945-7.256-3.558l0,0c-0.457-0.216-5.389-1.219-11.264-2.103l0,0
		c-5.905-0.9-12.908-1.733-17.835-1.733l0,0c-3.2-0.042-5.558,0.467-5.87,1.081l0,0l-0.041,0.056l-0.057,0.047
		c-0.007,0.004-7.583,6.103-9.003,7.28l0,0c-1.204,0.977-2.958,2.58-5.03,2.606l0,0c-0.364,0-0.736-0.054-1.11-0.177l0,0
		c-2.126-0.703-14.033-4.945-17.217-5.387l0,0c-3.517-0.514-8.511-4.078-10.735-4.713l0,0c-1.006-0.299-2.573-0.721-3.766-0.721l0,0
		C2.613,58.917,2.602,58.917,2.598,58.917L2.598,58.917z"/>
</g>
<g>
	<path fill="#A45C26" d="M53.441,33.818c0,0,12.561-4.939,24.177-1.651c0,0,0.711-5.165,4.979-5.397
		c4.263-0.236,5.683,6.341,2.604,8.221c0,0,12.565,18.322,1.187,33.361c-11.371,15.036-36.737,9.401-41.243-3.056
		c-4.501-12.451-3.076-24.198,2.137-29.842c0,0-7.348-3.99-4.264-7.517C46.099,24.416,52.964,28.409,53.441,33.818z"/>
	<path fill="#231F20" d="M67.033,77.851c-9.922-0.01-19.607-4.945-22.33-12.395l0,0c-1.866-5.161-2.732-10.199-2.732-14.76l0,0
		c0.004-6.287,1.633-11.653,4.585-15.131l0,0c-1.298-0.78-4.679-3.001-4.769-5.772l0,0c-0.004-0.735,0.268-1.48,0.867-2.164l0,0
		c0.902-1.029,2.127-1.496,3.382-1.491l0,0c3.354,0.03,7.1,3.063,7.797,7.032l0,0c1.844-0.647,7.978-2.597,15.108-2.597l0,0
		c2.682,0,5.515,0.274,8.308,1.004l0,0c0.316-1.374,1.484-5.012,5.317-5.279l0,0c0.077-0.011,0.16-0.011,0.249-0.011l0,0
		c2.93,0.026,4.505,2.812,4.511,5.3l0,0c0.005,1.338-0.452,2.674-1.483,3.521l0,0c1.137,1.795,5.777,9.654,5.783,18.878l0,0
		c0,4.75-1.25,9.872-4.858,14.646l0,0c-4.929,6.504-12.41,9.219-19.713,9.219l0,0C67.05,77.851,67.04,77.851,67.033,77.851
		L67.033,77.851z M46.036,27.073c-1.033,0.007-1.943,0.354-2.665,1.178l0,0c-0.468,0.534-0.634,1.033-0.634,1.542l0,0
		c-0.032,1.188,1.11,2.561,2.34,3.573l0,0c1.212,1.018,2.431,1.682,2.431,1.682l0,0l0.534,0.286l-0.414,0.449
		c-2.962,3.193-4.71,8.527-4.71,14.913l0,0c0,4.445,0.84,9.387,2.677,14.445l0,0c2.463,6.889,11.813,11.783,21.438,11.769l0,0
		c7.083,0,14.257-2.606,18.976-8.838l0,0c3.475-4.605,4.668-9.496,4.668-14.086l0,0c0-5.069-1.463-9.763-2.936-13.181l0,0
		c-1.472-3.424-2.93-5.548-2.93-5.559l0,0L84.53,34.84l0.427-0.25c0.938-0.576,1.42-1.728,1.426-3.003l0,0
		c-0.012-2.164-1.37-4.359-3.567-4.364l0,0c-0.059,0-0.12,0.005-0.199,0.005l0,0c-1.918,0.113-3.018,1.302-3.691,2.551l0,0
		c-0.67,1.231-0.836,2.451-0.836,2.456l0,0l-0.077,0.54l-0.523-0.154c-2.852-0.812-5.772-1.111-8.547-1.111l0,0
		c-4.164,0-8.002,0.685-10.795,1.369l0,0c-2.797,0.688-4.529,1.368-4.529,1.368l0,0l-0.596,0.236L52.97,33.86
		c-0.292-3.708-3.974-6.787-6.894-6.787l0,0C46.066,27.073,46.052,27.073,46.036,27.073L46.036,27.073z M53.441,33.818l0.473-0.048
		L53.441,33.818L53.441,33.818z"/>
</g>
<path fill="#231F20" d="M51.627,45.74c-0.292-1.038-0.343-2.227-0.343-3.033l0,0c0-0.561,0.025-0.93,0.025-0.939l0,0l0.944,0.064
	c0,0-0.025,0.351-0.025,0.875l0,0c0,0.756,0.062,1.897,0.311,2.781l0,0c0.265,0.926,0.648,1.402,1.16,1.384l0,0
	c0.134,0,0.313-0.026,0.52-0.103l0,0c1.333-0.504,1.676-1.794,1.681-3.1l0,0c0.005-1.174-0.306-2.196-0.306-2.196l0,0l0.907-0.279
	c0.01,0.022,0.348,1.138,0.348,2.476l0,0c0.016,1.422-0.415,3.253-2.297,3.977l0,0c-0.292,0.104-0.576,0.166-0.853,0.166l0,0
	C52.488,47.798,51.896,46.742,51.627,45.74L51.627,45.74z"/>
<path fill="#231F20" d="M76.151,45.145c-0.328-0.653-0.557-1.46-0.722-2.253l0,0c-0.327-1.578-0.414-3.113-0.414-3.177l0,0
	l0.938-0.057c0.005,0.004,0.051,0.859,0.212,1.928l0,0c0.155,1.069,0.431,2.355,0.829,3.131l0,0c0.28,0.54,0.556,0.729,0.727,0.71
	l0,0c0.131,0.005,0.384-0.077,0.747-0.432l0,0c1.784-1.77,2.07-3.717,2.07-4.817l0,0c0-0.556-0.068-0.858-0.068-0.858l0,0
	l0.932-0.201c0,0.021,0.083,0.423,0.083,1.06l0,0c0,1.254-0.34,3.492-2.347,5.484l0,0c-0.454,0.443-0.914,0.705-1.417,0.711l0,0
	C76.955,46.352,76.477,45.772,76.151,45.145L76.151,45.145z M75.016,39.711c0,0,0,0,0,0.004l0,0l0,0V39.711L75.016,39.711z"/>
<g>
	<path fill="#E2AF76" d="M97.049,48.613c0,0-21.801-7.516-27.729-3.758c-5.923,3.758-3.08,15.27,1.66,15.979
		c4.739,0.703,26.785-5.64,27.257-7.99C98.708,50.496,97.999,50.034,97.049,48.613z"/>
	<path fill="#231F20" d="M70.912,61.298c-3.271-0.565-5.372-5.061-5.404-9.378l0,0c0-2.904,1.003-5.836,3.554-7.46l0,0
		c1.327-0.837,3.219-1.12,5.414-1.125l0,0c8.771,0.01,22.704,4.832,22.73,4.837l0,0l-0.157,0.441l-0.393,0.264l0.393-0.264
		l0.157-0.441l0.154,0.051l0.084,0.134c0.689,1.023,1.425,1.707,1.415,3.184l0,0c0,0.4-0.052,0.858-0.16,1.397l0,0
		c-0.151,0.572-0.597,0.878-1.225,1.284l0,0c-0.631,0.396-1.481,0.813-2.503,1.251l0,0c-2.045,0.867-4.769,1.809-7.671,2.676l0,0
		c-5.808,1.74-12.271,3.198-15.445,3.21l0,0C71.504,61.358,71.191,61.338,70.912,61.298L70.912,61.298z M69.573,45.252
		c-2.187,1.383-3.116,3.953-3.12,6.668l0,0c-0.032,4.055,2.188,8.169,4.594,8.447l0,0c0.212,0.036,0.493,0.051,0.809,0.051l0,0
		c2.744,0,8.635-1.26,14.087-2.854l0,0c5.434-1.553,10.584-3.519,11.657-4.602l0,0c0.14-0.123,0.176-0.212,0.172-0.212l0,0
		c0.104-0.498,0.145-0.887,0.145-1.211l0,0c-0.006-1.074-0.436-1.461-1.172-2.53l0,0c-0.706-0.236-3.885-1.29-7.877-2.344l0,0
		c-4.544-1.197-10.155-2.396-14.392-2.396l0,0c-0.005,0-0.02,0-0.036,0l0,0C72.348,44.271,70.606,44.584,69.573,45.252
		L69.573,45.252z"/>
</g>
<g>
	<path fill="#884B20" d="M57.71,60.125c0,0-5.218-0.936-5.453,2.349c-0.236,3.296,4.031,6.817,6.401,5.17
		C61.022,66.002,63.869,64.12,57.71,60.125z"/>
	<path fill="#231F20" d="M57.27,68.53c-2.609-0.058-5.447-2.847-5.499-5.789l0,0c0-0.103,0.005-0.201,0.016-0.292l0,0
		c0.068-1.218,0.813-2.031,1.676-2.418l0,0c0.866-0.404,1.854-0.498,2.671-0.498l0,0c0.928,0,1.645,0.123,1.66,0.134l0,0
		l-0.083,0.458l-0.261,0.396l0.261-0.396l0.083-0.458l0.092,0.01l0.084,0.057c2.785,1.815,3.905,3.245,3.925,4.654l0,0
		c-0.052,1.742-1.69,2.729-2.965,3.644l0,0c-0.499,0.344-1.074,0.499-1.645,0.499l0,0C57.279,68.53,57.274,68.53,57.27,68.53
		L57.27,68.53z M53.872,60.879c-0.648,0.32-1.068,0.747-1.141,1.631l0,0c-0.005,0.078-0.011,0.16-0.011,0.231l0,0
		c-0.006,1.148,0.623,2.391,1.529,3.321l0,0c0.903,0.937,2.08,1.537,3.02,1.533l0,0c0.418-0.007,0.787-0.108,1.114-0.33l0,0
		c1.344-0.908,2.607-1.877,2.563-2.878l0,0c0.02-0.803-0.758-2.083-3.413-3.811l0,0c-0.073-0.015-0.191-0.031-0.348-0.047l0,0
		c-0.27-0.026-0.637-0.061-1.053-0.058l0,0c-0.016,0-0.03,0-0.047,0l0,0C55.356,60.473,54.504,60.577,53.872,60.879L53.872,60.879z"
		/>
</g>
<path fill="#231F20" d="M92.371,47.032c0,0-2.192,6.572,2.014,7.808c0,0,4.086-0.816,3.909-2.823
	C98.118,50.034,98.353,48.32,92.371,47.032z"/>
<path fill="#231F20" d="M75.424,4.961c-1.919-0.322-3.661-0.359-3.665-0.359l0,0l0.02-0.94c0.021,0,1.811,0.041,3.807,0.382l0,0
	c1.991,0.364,4.2,0.914,5.124,2.353l0,0l-0.813,0.489C79.396,5.971,77.344,5.267,75.424,4.961L75.424,4.961z"/>
<path fill="#231F20" d="M70.586,9.563c-1.69,0-2.956,0.196-3.008,0.201l0,0l-0.146-0.93c0.016,0,1.354-0.213,3.153-0.213l0,0
	c2.879,0.018,7.048,0.49,8.714,3.595l0,0l-0.836,0.437C77.198,10.145,73.391,9.548,70.586,9.563L70.586,9.563z M67.578,9.764
	L67.578,9.764L67.578,9.764L67.578,9.764L67.578,9.764L67.578,9.764z"/>
<path fill="#231F20" d="M68.683,15.064c-2.604,0-4.729,0.339-4.734,0.339l0,0l-0.15-0.925c0.009-0.006,2.198-0.35,4.885-0.356l0,0
	c3.284,0.022,7.369,0.459,9.17,3.061l0,0l-0.789,0.524C75.726,15.641,71.883,15.039,68.683,15.064L68.683,15.064z"/>
<path fill="#231F20" d="M60.976,20.878L60.976,20.878L60.976,20.878L60.976,20.878L60.976,20.878L60.976,20.878z M60.764,19.97
	c0.021,0,5.782-1.317,10.646-1.317l0,0c2.299,0.011,4.403,0.262,5.705,1.24l0,0l-0.575,0.745c-0.928-0.73-2.916-1.06-5.13-1.049l0,0
	c-4.657,0-10.314,1.265-10.435,1.289l0,0L60.764,19.97L60.764,19.97z"/>
<path fill="#231F20" d="M56.662,26.698c0.021,0,11.315-2.354,16.946-2.36l0,0c1.365,0.021,2.376,0.098,3.039,0.571l0,0l-0.59,0.735
	c-0.191-0.189-1.163-0.381-2.449-0.366l0,0c-5.428-0.005-16.734,2.336-16.755,2.341l0,0v0.005L56.662,26.698L56.662,26.698z"/>
</svg>
