<?xml version="1.0" encoding="utf-8"?>
<!-- Generator: Adobe Illustrator 16.0.0, SVG Export Plug-In . SVG Version: 6.00 Build 0)  -->
<!DOCTYPE svg PUBLIC "-//W3C//DTD SVG 1.1//EN" "http://www.w3.org/Graphics/SVG/1.1/DTD/svg11.dtd">
<svg version="1.1" id="Layer_1" xmlns="http://www.w3.org/2000/svg" xmlns:xlink="http://www.w3.org/1999/xlink" x="0px" y="0px"
	 width="89.028px" height="82.951px" viewBox="0 0 89.028 82.951" enable-background="new 0 0 89.028 82.951" xml:space="preserve">
<g>
	<g>
		<path fill="#FFDE00" d="M43.33,13.671c0,0,5.061-12.215,32.868-13.163c0,0-7.898,7.215-7.269,13.163
			c0.63,5.952,0,19.422-4.109,17.547C60.714,29.335,43.646,14.304,43.33,13.671z"/>
		<path fill="#231F20" d="M64.624,31.639c-3.775-1.748-17.188-13.413-20.776-16.771l0,0c-0.528-0.514-0.771-0.709-0.942-0.99l0,0
			l0.425-0.207l0.44,0.18l-0.44-0.18l-0.425,0.207l-0.094-0.192l0.082-0.19c0.042-0.153,5.337-12.527,33.285-13.454l0,0L77.459,0
			l-0.943,0.86c0,0.004-1.795,1.639-3.595,3.995l0,0c-1.804,2.348-3.568,5.418-3.554,8.121l0,0c0,0.217,0.007,0.428,0.033,0.642l0,0
			c0.134,1.283,0.212,2.88,0.212,4.607l0,0c0,2.96-0.228,6.272-0.798,8.884l0,0c-0.597,2.559-1.4,4.648-3.246,4.747l0,0
			c-0.006,0-0.012,0-0.012,0l0,0C65.246,31.856,64.934,31.781,64.624,31.639L64.624,31.639z M43.916,13.618
			c0.141,0.14,0.337,0.33,0.586,0.566l0,0c0.498,0.473,1.208,1.123,2.059,1.876l0,0c1.711,1.528,3.993,3.519,6.399,5.554l0,0
			c4.797,4.06,10.14,8.307,12.058,9.17l0,0c0.209,0.098,0.394,0.134,0.551,0.134l0,0c0.817,0.104,1.799-1.46,2.316-4.005l0,0
			c0.55-2.497,0.779-5.781,0.779-8.688l0,0c0-1.698-0.078-3.274-0.208-4.503l0,0c-0.031-0.247-0.042-0.499-0.042-0.746l0,0
			c0.047-4.843,4.62-9.953,6.582-11.942l0,0c-19.853,0.931-27.476,7.706-30.063,11l0,0c-0.57,0.727-0.887,1.267-1.043,1.559l0,0
			C43.9,13.604,43.905,13.614,43.916,13.618L43.916,13.618z"/>
	</g>
	<g>
		<path fill="#FFDE00" d="M23.111,63.796c0,0-10.747,13.155-4.113,17.854c6.638,4.698,11.695-11.902,11.695-11.902
			S25.003,62.228,23.111,63.796z"/>
		<path fill="#231F20" d="M18.724,82.03c-1.706-1.198-2.376-2.971-2.365-4.838l0,0c0.04-6.021,6.373-13.649,6.377-13.7l0,0
			l0.033-0.03l0.03-0.027c0.269-0.231,0.612-0.328,0.939-0.323l0,0c1.519,0.063,3.172,1.676,4.681,3.229l0,0
			c1.474,1.563,2.646,3.116,2.651,3.125l0,0l0.14,0.191l-0.062,0.228c-0.011,0.014-0.986,3.215-2.655,6.444l0,0
			c-1.685,3.203-3.993,6.565-7.109,6.623l0,0h-0.006l0,0C20.506,82.951,19.609,82.662,18.724,82.03L18.724,82.03z M20.378,68.587
			c-1.558,2.596-3.081,5.916-3.07,8.605l0,0c0.009,1.667,0.544,3.055,1.971,4.076l0,0c0.751,0.535,1.445,0.748,2.105,0.748l0,0
			c2.313,0.06,4.662-2.947,6.27-6.114l0,0c1.369-2.642,2.26-5.291,2.509-6.065l0,0c-0.347-0.452-1.307-1.657-2.436-2.854l0,0
			c-1.4-1.531-3.227-2.998-3.988-2.935l0,0c-0.141,0-0.22,0.029-0.291,0.082l0,0C23.214,64.412,21.798,66.2,20.378,68.587
			L20.378,68.587z"/>
	</g>
	<g>
		<path fill="#FFDE00" d="M47.122,66.305c0,0,5.062,11.586,11.376,11.586c6.322,0,6.639-3.757,6.005-5.638
			c-0.631-1.879-6.636-11.907-6.636-11.907L47.122,66.305z"/>
		<path fill="#231F20" d="M50.057,72.365c-2.091-2.941-3.36-5.866-3.37-5.882l0,0l-0.167-0.391l11.519-6.38l0.238,0.391
			c0.016,0.037,5.984,9.973,6.678,11.999l0,0c0.146,0.441,0.249,0.979,0.249,1.554l0,0c0,1.047-0.356,2.263-1.409,3.181l0,0
			c-1.053,0.927-2.738,1.523-5.296,1.523l0,0C55.029,78.333,52.141,75.29,50.057,72.365L50.057,72.365z M50.835,71.825
			c2.012,2.868,4.818,5.63,7.663,5.596l0,0c4.834-0.06,5.706-2.09,5.758-3.765l0,0c0-0.469-0.084-0.9-0.203-1.257l0,0
			c-0.269-0.825-1.944-3.854-3.517-6.568l0,0c-1.202-2.092-2.358-4.047-2.841-4.849l0,0l-9.958,5.517
			C48.153,67.369,49.252,69.6,50.835,71.825L50.835,71.825z"/>
	</g>
	<g>
		<path fill="#B1D35A" d="M76.198,37.793c0,0-17.7-22.869-33.5-25.998C26.9,8.657,2.252,29.964,0.67,37.164
			c-1.576,7.203,6.954,19.115,10.112,20.677c0,0,9.797,14.725,24.649,14.098c14.854-0.621,33.181-10.025,40.134-26.311
			c0,0,2.21-0.007,3.791,3.125c1.583,3.135,9.164,4.392,9.164,4.392s-0.634-10.026-6.317-12.535c0,0,6.95-7.202,5.684-13.782
			C87.887,26.827,75.243,27.141,76.198,37.793z"/>
		<path fill="#231F20" d="M10.456,58.198C7.231,56.371,0.08,46.501,0,39.063l0,0c0-0.688,0.068-1.363,0.203-1.995l0,0
			c0.847-3.645,6.623-9.993,14.194-15.646l0,0c7.582-5.606,16.933-10.403,24.98-10.414l0,0c1.167,0,2.308,0.104,3.417,0.324l0,0
			c13.973,2.813,29.09,20.436,32.881,25.063l0,0c0.103-4.817,3.183-7.393,6.154-8.653l0,0c3.034-1.315,6.017-1.375,6.048-1.382l0,0
			l0.405-0.012l0.07,0.393c0.109,0.579,0.163,1.16,0.163,1.74l0,0c-0.027,5.339-4.202,10.453-5.55,11.99l0,0
			c5.533,3.125,5.988,12.616,6.031,12.642l0,0l0.03,0.591l-0.586-0.098c-0.041-0.061-7.623-1.136-9.51-4.637l0,0
			c-1.116-2.201-2.48-2.693-3.071-2.833l0,0c-7.166,16.298-25.489,25.633-40.409,26.271l0,0c-0.315,0.016-0.632,0.021-0.943,0.021
			l0,0C20.543,72.391,11.338,59.462,10.456,58.198L10.456,58.198z M14.968,22.174C7.49,27.69,1.765,34.184,1.132,37.263l0,0
			c-0.125,0.565-0.181,1.167-0.181,1.8l0,0c-0.078,6.921,7.415,17.135,10.044,18.354l0,0l0.109,0.062l0.073,0.101
			c0.016,0,2.312,3.476,6.404,6.962l0,0c4.092,3.492,9.921,6.951,16.927,6.948l0,0c0.301,0,0.602-0.009,0.901-0.018l0,0
			c14.672-0.611,32.859-9.941,39.71-26.009l0,0c0.026-0.063,0.063-0.123,0.108-0.174l0,0c0.089-0.089,0.213-0.134,0.337-0.134l0,0
			c0.099-0.014,2.557,0.082,4.218,3.392l0,0c0.642,1.334,2.846,2.454,4.9,3.132l0,0c1.337,0.452,2.593,0.739,3.304,0.884l0,0
			c-0.101-0.899-0.349-2.678-0.944-4.605l0,0c-0.851-2.771-2.407-5.772-5.03-6.915l0,0l-0.623-0.272l0.467-0.486
			c0-0.007,1.431-1.478,2.863-3.709l0,0c1.441-2.231,2.852-5.209,2.852-8.093l0,0c0-0.384-0.025-0.775-0.084-1.155l0,0
			c-0.89,0.072-3.089,0.324-5.284,1.275l0,0c-2.842,1.243-5.575,3.511-5.585,8.075l0,0c0,0.346,0.016,0.698,0.052,1.075l0,0
			l-0.472,0.042l0.374-0.288l-0.374,0.288l0.472-0.042l0.147,1.619l-0.996-1.291c-0.017-0.01-4.404-5.694-10.778-11.771l0,0
			c-6.366-6.087-14.712-12.535-22.438-14.056l0,0c-1.037-0.21-2.111-0.31-3.227-0.31l0,0c-0.01,0-0.016,0-0.024,0l0,0
			C31.688,11.943,22.437,16.632,14.968,22.174L14.968,22.174z M75.24,45.961c-0.007,0-0.007,0-0.012-0.006l0,0
			c-0.056-0.058-0.104-0.134-0.123-0.209l0,0C75.116,45.782,75.146,45.879,75.24,45.961L75.24,45.961z"/>
	</g>
	<path fill="#231F20" d="M10.705,58.309h0.006l0.146-0.935c0.01,0,2.805,0.433,6.979,0.865l0,0c4.18,0.431,9.739,0.863,15.272,0.863
		l0,0c4.984,0.004,9.942-0.352,13.815-1.353l0,0c3.896-1.004,6.607-2.652,7.333-5.06l0,0l0.902,0.271
		c-0.917,2.941-4.004,4.663-7.997,5.703l0,0c-4.008,1.028-9.029,1.381-14.054,1.381l0,0C21.938,60.046,10.726,58.309,10.705,58.309
		L10.705,58.309z"/>
	<path fill="#231F20" d="M52.41,51.199h0.005l0.799-0.499c0,0,0.479,0.746,1.215,1.496l0,0c0.73,0.766,1.706,1.456,2.521,1.436l0,0
		c0.067,0,0.15-0.007,0.232-0.017l0,0l0.108,0.931c-0.108,0.016-0.223,0.027-0.341,0.027l0,0
		C54.386,54.479,52.468,51.216,52.41,51.199L52.41,51.199z"/>
	<g>
		<path fill="#FFFFFF" d="M28.794,19.783c0,3.022-2.474,5.48-5.528,5.48c-3.054,0-5.534-2.458-5.534-5.48
			c0-3.034,2.48-5.479,5.534-5.479C26.32,14.304,28.794,16.749,28.794,19.783z"/>
		<path fill="#231F20" d="M17.261,19.783c0-3.29,2.692-5.953,6.005-5.953l0,0c3.314,0,6.005,2.663,6.005,5.953l0,0
			c0,3.28-2.69,5.947-6.005,5.947l0,0C19.953,25.73,17.261,23.063,17.261,19.783L17.261,19.783z M18.209,19.783
			c0.007,2.766,2.262,5.008,5.057,5.008l0,0c2.791,0,5.052-2.242,5.057-5.008l0,0c-0.005-2.771-2.266-5.007-5.057-5.012l0,0
			C20.471,14.776,18.216,17.013,18.209,19.783L18.209,19.783z"/>
	</g>
	<g>
		<path fill="#FFFFFF" d="M39.855,23.228c0,3.373-2.758,6.107-6.161,6.107c-3.402,0-6.159-2.734-6.159-6.107
			c0-3.378,2.757-6.112,6.159-6.112C37.098,17.115,39.855,19.85,39.855,23.228z"/>
		<path fill="#231F20" d="M27.058,23.228c0-3.635,2.97-6.585,6.637-6.585l0,0c3.661,0,6.634,2.95,6.634,6.585l0,0
			c0,3.629-2.973,6.581-6.634,6.581l0,0C30.027,29.809,27.058,26.856,27.058,23.228L27.058,23.228z M28.006,23.228
			c0.006,3.116,2.547,5.635,5.688,5.635l0,0c3.145,0,5.684-2.519,5.684-5.635l0,0c0-3.114-2.539-5.639-5.684-5.639l0,0
			C30.553,17.589,28.012,20.113,28.006,23.228L28.006,23.228z"/>
	</g>
	<path fill="#231F20" d="M49.247,14.072c0.058-0.017,12.582-11.97,17.882-13.155l0,0l0.195,0.919
		c-2.266,0.454-6.729,3.7-10.486,6.813l0,0c-3.778,3.119-6.932,6.103-6.938,6.107l0,0L49.247,14.072L49.247,14.072z"/>
	<path fill="#231F20" d="M55.813,18.03c0-0.007,2.701-4.041,6.037-8.251l0,0c3.367-4.222,7.214-8.61,9.988-9.445l0,0l0.265,0.905
		c-2.199,0.577-6.234,4.941-9.507,9.116l0,0c-3.309,4.184-5.985,8.188-5.995,8.198l0,0h0.005L55.813,18.03L55.813,18.03z"/>
	<path fill="#231F20" d="M63.447,24.55c0.029-0.042,2.312-12.44,6.165-16.451l0,0l0.685,0.647c-1.717,1.743-3.251,5.768-4.283,9.327
		l0,0c-1.048,3.555-1.634,6.641-1.634,6.645l0,0v0.006L63.447,24.55L63.447,24.55z"/>
	<path fill="#231F20" d="M20.476,78.903c-0.924-0.097-1.315-0.992-1.271-1.781l0,0c0.032-2.911,3.163-8.499,3.169-8.542l0,0l0,0
		l0.835,0.453c0,0.006-0.772,1.398-1.546,3.131l0,0c-0.767,1.712-1.524,3.8-1.515,4.958l0,0c0.042,0.672,0.137,0.789,0.451,0.852
		l0,0c0.032,0.006,0.069,0.006,0.121,0.006l0,0c0.959,0.083,2.57-1.749,3.69-3.709l0,0c1.157-1.94,1.972-3.875,1.972-3.878l0,0
		l0.87,0.357c0,0.008-0.829,1.99-2.022,3.997l0,0c-1.229,1.981-2.67,4.085-4.51,4.173l0,0C20.642,78.92,20.563,78.916,20.476,78.903
		L20.476,78.903z"/>
	<path fill="#231F20" d="M59.068,74.977c-1.727-0.041-3.593-1.629-5.185-3.166l0,0c-1.577-1.532-2.78-3.058-2.79-3.07l0,0l0,0
		l0.746-0.574c0.006,0,1.183,1.495,2.708,2.979l0,0c1.503,1.496,3.438,2.932,4.521,2.891l0,0c0.26,0,0.458-0.063,0.645-0.201l0,0
		c0.316-0.245,0.446-0.561,0.451-1.048l0,0c0.016-1.097-0.862-2.808-1.779-4.18l0,0c-0.912-1.378-1.825-2.432-1.825-2.432l0,0
		l0.726-0.611c0,0.055,3.771,4.263,3.827,7.223l0,0c0.01,0.678-0.232,1.357-0.829,1.8l0,0c-0.353,0.268-0.783,0.39-1.202,0.39l0,0
		C59.068,74.977,59.068,74.977,59.068,74.977L59.068,74.977z"/>
	<path fill="#231F20" d="M36.304,25.223c0,0.777-0.638,1.413-1.426,1.413c-0.785,0-1.423-0.636-1.423-1.413
		c0-0.781,0.638-1.409,1.423-1.409C35.666,23.813,36.304,24.441,36.304,25.223z"/>
	<path fill="#231F20" d="M26.107,22.171c0,0.775-0.638,1.406-1.421,1.406c-0.782,0-1.421-0.631-1.421-1.406
		c0-0.778,0.639-1.416,1.421-1.416C25.47,20.755,26.107,21.393,26.107,22.171z"/>
</g>
</svg>
