<?xml version="1.0" encoding="utf-8"?>
<!-- Generator: Adobe Illustrator 16.0.0, SVG Export Plug-In . SVG Version: 6.00 Build 0)  -->
<!DOCTYPE svg PUBLIC "-//W3C//DTD SVG 1.1//EN" "http://www.w3.org/Graphics/SVG/1.1/DTD/svg11.dtd">
<svg version="1.1" id="Layer_1" xmlns="http://www.w3.org/2000/svg" xmlns:xlink="http://www.w3.org/1999/xlink" x="0px" y="0px"
	 width="42.379px" height="66.236px" viewBox="0 0 42.379 66.236" enable-background="new 0 0 42.379 66.236" xml:space="preserve">
<g>
	<g>
		<path fill="#5BB947" d="M12.333,28.816c0,0-12.089-6.808-11.851-7.518c0.233-0.703,12.796-0.472,12.796-0.472L9.726,6.262
			l7.818,8.225l1.895-14.331l4.031,11.747l7.82-8.457l-1.418,11.041l9.477-1.886l-5.211,7.526l7.111,0.469l-8.775,7.981
			L12.333,28.816z"/>
		<path fill="#231F20" d="M12.097,29.222c-0.017-0.011-9.058-5.089-11.41-6.977l0,0C0.355,21.91,0.104,21.88,0,21.319l0,0
			c0.013-0.021-0.016-0.062,0.031-0.162l0,0l0,0v-0.013l0,0c0.016-0.04,0.039-0.081,0.079-0.139l0,0l0.002,0.006
			c0.168-0.248,0.337-0.236,0.482-0.304l0,0c0.188-0.057,0.409-0.097,0.676-0.139l0,0c0.537-0.067,1.239-0.118,2.057-0.155l0,0
			c1.628-0.071,3.689-0.093,5.516-0.093l0,0c1.617,0,3.053,0.017,3.828,0.031l0,0l-3.826-15.7l8.359,8.791l1.77-13.35L19.888,0
			l3.775,10.996l8.285-8.961l-1.525,11.861l9.979-1.979L35,19.71l7.379,0.49l-9.715,8.853l-20.33,0.236h-0.129L12.097,29.222
			L12.097,29.222z M12.333,28.816l0.232-0.407L12.333,28.816L12.333,28.816z M2.595,22.44c1.098,0.735,2.575,1.646,4.051,2.534l0,0
			c2.624,1.568,5.246,3.055,5.809,3.366l0,0l19.835-0.23l7.822-7.126l-6.838-0.446l5.021-7.243l-8.98,1.778l1.318-10.225
			l-7.357,7.958L19.646,2.212l-1.765,13.319l-7.277-7.659l3.281,13.442l-0.617-0.016c0,0-2.004-0.041-4.426-0.041l0,0
			c-1.704,0-3.612,0.021-5.166,0.082l0,0c-0.967,0.031-1.851,0.108-2.38,0.187l0,0C1.599,21.767,2.054,22.085,2.595,22.44
			L2.595,22.44z"/>
	</g>
	<g>
		<path fill="#FAAD19" d="M19.917,23.417c0,0-9.719,2.586-10.904,14.802c-1.182,12.22,6.4,30.069,17.302,27.252
			c10.904-2.817,16.521-15.953,10.904-31.484C32.711,21.536,23.708,22.707,19.917,23.417z"/>
		<path fill="#231F20" d="M24.028,66.236c-9.47-0.125-15.564-14.234-15.611-25.422l0,0c0-0.899,0.041-1.79,0.125-2.644l0,0
			c1.213-12.497,11.186-15.21,11.247-15.21l0,0l0.128,0.456l-0.089-0.469c0.991-0.188,2.36-0.4,3.918-0.405l0,0
			c4.459-0.026,10.553,1.897,13.916,11.284l0,0c1.529,4.228,2.238,8.288,2.238,12.025l0,0c0.01,10.139-5.258,17.947-13.465,20.071
			l0,0c-0.813,0.21-1.605,0.313-2.383,0.313l0,0C24.045,66.236,24.038,66.236,24.028,66.236L24.028,66.236z M18.581,24.432
			c-0.9,0.421-2.119,1.099-3.363,2.158l0,0c-2.505,2.111-5.146,5.685-5.73,11.669l0,0c-0.082,0.829-0.123,1.684-0.123,2.556l0,0
			c0,5.443,1.531,11.63,4.16,16.4l0,0c2.633,4.79,6.307,8.096,10.503,8.081l0,0c0.703,0,1.424-0.088,2.17-0.283l0,0
			c7.721-2.001,12.742-9.325,12.756-19.16l0,0c0-3.62-0.689-7.572-2.184-11.706l0,0c-3.309-9.063-8.824-10.627-13.023-10.663l0,0
			c-1.458,0-2.75,0.202-3.718,0.391l0,0C19.95,23.896,19.409,24.044,18.581,24.432L18.581,24.432z"/>
	</g>
	<path fill="#231F20" d="M16.201,33.159c-0.363,0.709-1.04,1.554-2.304,1.975l0,0c-0.279,0.093-0.554,0.138-0.818,0.138l0,0
		c-2.162-0.081-3.041-2.503-3.083-2.514l0,0l0.876-0.36c0.006-0.004,0.213,0.499,0.617,0.998l0,0c0.402,0.515,0.957,0.945,1.59,0.94
		l0,0c0.158,0,0.328-0.03,0.523-0.093l0,0c0.934-0.308,1.427-0.904,1.714-1.444l0,0c0.288-0.539,0.333-0.977,0.333-0.981l0,0
		l0.916-0.113c0.006,0,0.325,0.868,0.906,1.733l0,0c0.576,0.88,1.393,1.641,2.198,1.614l0,0c0.175,0,0.354-0.025,0.556-0.098l0,0
		c1.896-0.658,2.063-2.704,2.063-3.354l0,0c0-0.116-0.003-0.164-0.003-0.164l0,0l0.921-0.184c0.008,0,0.336,0.986,0.928,1.957l0,0
		c0.594,0.997,1.445,1.868,2.232,1.831l0,0c0.152,0,0.316-0.025,0.494-0.087l0,0c1.377-0.479,1.668-2,1.674-3.143l0,0
		c0-0.605-0.078-1.027-0.078-1.027l0,0l0.92-0.221c0.006,0.005,0.32,1.141,0.877,2.267l0,0c0.537,1.156,1.383,2.144,1.961,2.083l0,0
		c0.139,0,0.301-0.043,0.492-0.154l0,0c1.688-0.946,1.93-3.778,1.908-4.703l0,0c0-0.177-0.002-0.274-0.002-0.274l0,0l0.943-0.052
		c0,0.011,0.004,0.129,0.004,0.326l0,0c-0.02,0.997-0.105,4.106-2.371,5.514l0,0c-0.314,0.182-0.645,0.279-0.975,0.279l0,0
		c-1.398-0.062-2.199-1.42-2.811-2.607l0,0c-0.018-0.031-0.035-0.061-0.053-0.097l0,0c-0.221,1.054-0.793,2.185-2.166,2.693l0,0
		c-0.273,0.097-0.551,0.144-0.818,0.14l0,0c-1.434-0.021-2.389-1.219-3.047-2.278l0,0c-0.109-0.18-0.213-0.37-0.309-0.544l0,0
		c-0.291,0.987-0.962,2.127-2.465,2.683l0,0c-0.296,0.109-0.592,0.158-0.877,0.158l0,0C17.914,35.909,16.792,34.3,16.201,33.159
		L16.201,33.159z"/>
	<path fill="#231F20" d="M19.569,47.759c-1.773-0.139-2.472-2.316-3.094-4.291l0,0c-0.121-0.448-0.232-0.899-0.332-1.327l0,0
		c-0.404,1.686-1.172,3.671-2.657,4.486l0,0c-0.198,0.095-0.41,0.151-0.634,0.151l0,0c-0.862-0.032-1.42-0.709-1.918-1.491l0,0
		c-0.496-0.812-0.91-1.841-1.263-2.879l0,0c-0.7-2.051-1.118-4.088-1.128-4.097l0,0h0.005l0.929-0.191
		c0.004,0,0.954,4.545,2.266,6.678l0,0c0.434,0.729,0.896,1.069,1.109,1.039l0,0c0.058,0,0.129-0.011,0.217-0.052l0,0
		c0.932-0.432,1.672-2.03,2.063-3.546l0,0c0.402-1.518,0.518-2.885,0.518-2.885l0,0l0.945-0.022c0,0,0.252,1.945,0.799,3.878l0,0
		c0.5,1.974,1.52,3.747,2.176,3.608l0,0c0.101,0,0.22-0.019,0.373-0.093l0,0c1.205-0.585,1.898-2.09,2.238-3.511l0,0
		c0.34-1.407,0.344-2.653,0.344-2.653l0,0l0.927-0.122c0,0.005,0.471,1.623,1.215,3.244l0,0c0.707,1.644,1.854,3.131,2.514,3.033
		l0,0c0.146,0,0.311-0.042,0.512-0.186l0,0c1.455-1.013,1.805-3.475,1.793-5.111l0,0c0-0.883-0.086-1.495-0.086-1.495l0,0
		l0.928-0.175c0.006,0.005,0.357,1.461,0.996,2.9l0,0c0.609,1.479,1.602,2.779,2.318,2.703l0,0c0.104-0.004,0.215-0.014,0.334-0.066
		l0,0c1.117-0.325,1.537-2.317,1.512-4.052l0,0c0-1.239-0.16-2.241-0.16-2.241l0,0l0.926-0.185c0.008,0,0.646,2.478,1.473,3.599l0,0
		c0.268,0.375,0.525,0.514,0.609,0.5l0,0c0.043-0.007,0.109-0.017,0.238-0.119l0.277-0.278l0.609,0.726
		c-0.521,0.477-0.822,0.611-1.125,0.611l0,0c-0.977-0.098-1.494-0.93-1.926-1.835l0,0c-0.09,1.639-0.48,3.51-2.117,4.164l0,0
		c-0.215,0.075-0.434,0.112-0.65,0.112l0,0c-1.604-0.077-2.496-1.759-3.189-3.26l0,0c-0.029-0.071-0.063-0.147-0.096-0.215l0,0
		c-0.156,1.572-0.648,3.397-2.107,4.477l0,0c-0.33,0.231-0.695,0.366-1.068,0.366l0,0c-1.615-0.099-2.568-1.924-3.377-3.589l0,0
		c-0.205-0.446-0.391-0.894-0.555-1.311l0,0c-0.297,1.66-1.033,3.824-2.886,4.808l0,0c-0.256,0.117-0.518,0.193-0.785,0.193l0,0
		c-0.006,0-0.006,0-0.006,0H19.569z"/>
	<path fill="#231F20" d="M18.693,56.072c-1.251-0.057-1.987-1.229-2.578-2.236l0,0c-0.067-0.133-0.13-0.252-0.194-0.369l0,0
		c-0.189,0.602-0.5,1.058-0.892,1.376l0,0c-0.661,0.541-1.453,0.659-2.077,0.659l0,0c-0.688,0-1.196-0.149-1.229-0.155l0,0
		l0.268-0.898c0-0.01,0.415,0.118,0.962,0.118l0,0c1.016-0.071,2.172-0.226,2.232-2.591l0,0c0-0.108-0.003-0.232-0.011-0.349l0,0
		l0.924-0.168c0.005,0,0.326,0.963,0.853,1.925l0,0c0.508,0.982,1.289,1.811,1.743,1.753l0,0c0.168-0.005,0.37-0.066,0.647-0.338
		l0,0c1.025-1.015,1.52-1.898,1.761-2.515l0,0c0.243-0.612,0.233-0.91,0.233-0.91l0,0l0.943-0.093c0,0,0.192,0.966,0.669,1.913l0,0
		c0.484,0.981,1.195,1.789,2.084,1.769l0,0c0.141,0,0.295-0.011,0.451-0.053l0,0c1.816-0.442,2.027-2.103,2.049-3.012l0,0
		c0-0.298-0.027-0.458-0.027-0.458l0,0l0.936-0.159c0.004,0,0.186,0.982,0.666,1.942l0,0c0.482,0.979,1.199,1.807,2.139,1.794l0,0
		c0.184-0.005,0.393-0.034,0.621-0.102l0,0c2.063-0.628,2.279-2.416,2.299-3.306l0,0c0-0.268-0.02-0.405-0.025-0.405l0,0l0.92-0.201
		c0.006,0.004,0.277,0.905,0.701,1.795l0,0c0.381,0.919,0.793,1.546,1.221,1.582l0,0c0.033,0,0.584-0.062,0.746-0.37l0.229,0.499
		l-0.203,0.514c-0.217,0.18-0.488,0.293-0.771,0.293l0,0c-1.107-0.099-1.592-1.188-2.086-2.129l0,0
		c-0.004-0.005-0.012-0.02-0.014-0.035l0,0c-0.33,1.023-1.082,2.16-2.744,2.668l0,0c-0.309,0.084-0.605,0.133-0.893,0.133l0,0
		c-1.547-0.015-2.463-1.243-2.992-2.317l0,0c-0.014-0.026-0.025-0.052-0.039-0.083l0,0c-0.328,0.931-1.033,1.898-2.502,2.273l0,0
		c-0.229,0.056-0.453,0.078-0.68,0.078l0,0c-1.508-0.017-2.408-1.229-2.935-2.295l0,0c-0.104-0.204-0.193-0.41-0.271-0.604l0,0
		c-0.324,0.682-0.879,1.537-1.813,2.462l0,0c-0.392,0.384-0.847,0.605-1.306,0.605l0,0C18.7,56.072,18.693,56.072,18.693,56.072
		L18.693,56.072z M11.723,55.347L11.723,55.347L11.723,55.347L11.723,55.347L11.723,55.347L11.723,55.347z"/>
	<path fill="#231F20" d="M21.784,62.767c-1.104-0.066-1.707-1.075-2.221-1.943l0,0c-0.027-0.053-0.055-0.098-0.082-0.145l0,0
		c-0.177,0.4-0.444,0.699-0.766,0.911l0,0c-0.578,0.385-1.25,0.461-1.792,0.472l0,0c-0.64,0-1.125-0.128-1.155-0.133l0,0h0.004
		l0.227-0.905c0.005-0.006,0.406,0.099,0.925,0.099l0,0c0.929-0.062,1.813-0.181,1.847-1.651l0,0c0-0.159-0.013-0.329-0.034-0.52
		l0,0l0.913-0.212c0,0,0.293,0.814,0.744,1.626l0,0c0.428,0.833,1.109,1.523,1.391,1.461l0,0c0.098,0,0.215-0.03,0.404-0.217l0,0
		c0.763-0.75,1.14-1.563,1.33-2.179l0,0c0.189-0.618,0.189-1.008,0.189-1.008l0,0h0.947c0.004,0,0,0.904,0.209,1.783l0,0
		c0.205,0.925,0.619,1.577,1.066,1.522l0,0c0.146,0,0.357-0.042,0.627-0.195l0,0c1.229-0.664,1.938-1.476,2.35-2.124l0,0
		c0.406-0.654,0.5-1.085,0.5-1.091l0,0l0.934,0.046c0.006,0-0.008,0.438,0.264,1.128l0.283,0.808
		c0.697,1.665,2.492,0.564,2.746,0.445l0.115,0.552l-0.826,0.369c-0.355,0.171-0.701,0.263-1.031,0.263l0,0
		c-1.172-0.021-1.762-1.02-2.078-1.816l0,0c-0.029-0.08-0.057-0.164-0.084-0.24l0,0c-0.477,0.766-1.307,1.724-2.717,2.487l0,0
		c-0.373,0.196-0.734,0.305-1.082,0.309l0,0c-1.17-0.046-1.662-1.054-1.916-1.959l0,0c-0.266,0.511-0.633,1.055-1.16,1.568l0,0
		c-0.3,0.309-0.679,0.489-1.063,0.489l0,0C21.791,62.767,21.788,62.767,21.784,62.767L21.784,62.767z"/>
</g>
</svg>
