<?xml version="1.0" encoding="utf-8"?>
<!-- Generator: Adobe Illustrator 16.0.0, SVG Export Plug-In . SVG Version: 6.00 Build 0)  -->
<!DOCTYPE svg PUBLIC "-//W3C//DTD SVG 1.1//EN" "http://www.w3.org/Graphics/SVG/1.1/DTD/svg11.dtd">
<svg version="1.1" id="Layer_1" xmlns="http://www.w3.org/2000/svg" xmlns:xlink="http://www.w3.org/1999/xlink" x="0px" y="0px"
	 width="38.075px" height="60.628px" viewBox="0 0 38.075 60.628" enable-background="new 0 0 38.075 60.628" xml:space="preserve">
<g>
	<g>
		<path fill="#FFFFFF" d="M16.611,26.513c0,0,3.558,11.984,4.028,14.1c0.473,2.109,1.655,17.618,2.61,18.324
			c0.943,0.705,9.479,2.354,10.662,0c1.187-2.35-9.01-36.183-9.01-36.183s-7.109,1.412-7.348,3.521"/>
		<path fill="#231F20" d="M25.738,60.17c-1.334-0.273-2.297-0.528-2.779-0.854l0,0c-0.348-0.324-0.379-0.635-0.54-1.166l0,0
			c-0.131-0.524-0.255-1.198-0.378-2l0,0c-0.26-1.604-0.509-3.678-0.748-5.794l0,0c-0.472-4.227-0.896-8.672-1.12-9.641l0,0
			c-0.456-2.065-4.013-14.049-4.019-14.067l0,0l0.912-0.268c0,0.01,3.554,11.966,4.035,14.125l0,0
			c0.363,1.635,1.067,10.186,1.805,15.037l0,0c0.223,1.578,0.509,2.827,0.654,3.039l0,0c0.201,0.125,1.197,0.452,2.359,0.668l0,0
			c1.261,0.241,2.806,0.438,4.189,0.433l0,0c1.752,0.037,3.163-0.382,3.382-0.957l0,0c0,0,0.045-0.175,0.042-0.445l0,0
			c0.015-2.495-2.262-11.445-4.533-19.63l0,0c-1.96-7.077-3.922-13.654-4.424-15.346l0,0c-0.628,0.145-1.861,0.438-3.102,0.862l0,0
			c-1.794,0.557-3.501,1.589-3.443,2.163l0,0l-0.942-0.105c0.285-1.536,2.256-2.272,4.075-2.945l0,0
			c1.847-0.627,3.636-0.976,3.651-0.987l0,0l0.421-0.088l0.122,0.417c0.006,0.041,9.096,30.13,9.123,35.659l0,0
			c-0.005,0.334-0.021,0.594-0.145,0.867l0,0c-0.701,1.243-2.402,1.455-4.228,1.481l0,0C28.647,60.628,27.056,60.427,25.738,60.17
			L25.738,60.17z M23.561,58.586h0.004l0,0H23.561L23.561,58.586z"/>
	</g>
	<g>
		<path fill="#FFFFFF" d="M14.952,26.513c0,0-4.265,10.338-1.188,9.403c3.086-0.946,3.791-9.642,3.791-9.642
			s2.847,10.576,4.979,8.227c2.138-2.345-1.654-9.859-1.654-9.859s7.82,10.8,9.475,7.277c1.665-3.521-5.451-9.165-5.451-9.165
			S16.139,23.221,14.952,26.513z"/>
		<path fill="#231F20" d="M12.405,35.838c-0.183-0.34-0.228-0.725-0.228-1.152l0,0c0.015-2.703,2.183-7.958,2.322-8.328l0,0l0,0
			c0.772-1.979,3.396-2.852,5.767-3.414l0,0c2.386-0.54,4.594-0.663,4.609-0.663l0,0l0.177-0.003l0.146,0.11
			c0.016,0.063,5.793,4.452,5.882,8.365l0,0c0,0.457-0.089,0.931-0.295,1.362l0,0c-0.271,0.617-0.852,0.997-1.448,0.982l0,0
			c-1.754-0.077-3.749-2.15-5.591-4.158l0,0c-0.378-0.422-0.735-0.844-1.073-1.25l0,0c0.518,1.46,0.974,3.181,0.99,4.648l0,0
			c-0.005,0.944-0.191,1.825-0.777,2.48l0,0c-0.271,0.295-0.628,0.488-1.007,0.488l0,0c-0.865-0.041-1.395-0.729-1.929-1.556l0,0
			c-0.529-0.845-1.011-1.934-1.433-3.023l0,0c-0.295-0.76-0.558-1.521-0.772-2.189l0,0c-0.112,0.693-0.269,1.497-0.466,2.317l0,0
			c-0.601,2.313-1.462,4.848-3.375,5.512l0,0c-0.176,0.041-0.338,0.071-0.498,0.071l0,0c-0.016,0-0.027,0-0.043,0l0,0
			C12.955,36.439,12.565,36.173,12.405,35.838L12.405,35.838z M15.392,26.692c0,0.004-2.286,5.605-2.267,7.994l0,0
			c-0.005,0.345,0.052,0.601,0.115,0.717l0,0c0.072,0.096,0.045,0.08,0.166,0.096l0,0c0.052,0,0.124-0.01,0.216-0.035l0,0
			c1.173-0.282,2.21-2.57,2.734-4.832l0,0c0.555-2.247,0.727-4.387,0.727-4.391l0,0l0.932-0.083c0.007,0.005,1.305,4.808,2.74,7.1
			l0,0c0.46,0.78,0.979,1.155,1.124,1.115l0,0c0.057-0.005,0.146-0.018,0.3-0.186l0,0c0.354-0.379,0.536-1.027,0.536-1.849l0,0
			c0-1.451-0.555-3.348-1.131-4.865l0,0c-0.564-1.507-1.131-2.621-1.136-2.627l0,0l0.813-0.488c0,0.006,1.432,1.983,3.196,3.96l0,0
			c1.721,1.988,3.946,3.91,4.879,3.839l0,0c0.269-0.019,0.394-0.071,0.59-0.437l0,0c0.142-0.3,0.209-0.629,0.209-0.967l0,0
			c0.021-1.486-1.328-3.465-2.733-4.992l0,0c-1.135-1.238-2.266-2.204-2.65-2.521l0,0c-0.569,0.034-2.374,0.188-4.278,0.619l0,0
			c-2.308,0.494-4.661,1.502-5.076,2.813l0,0l-0.445-0.159L15.392,26.692L15.392,26.692z"/>
	</g>
	<g>
		<path fill="#EA2627" d="M9.263,2.076c0,0,0.949,8.695-1.184,12.453c-2.137,3.763-9.008,12.22-7.348,13.634
			c1.66,1.403,16.823,0.937,22.279-0.709c5.449-1.646,15.879-6.806,14.457-9.397c-1.42-2.588-9.48-5.635-13.274-7.285
			C20.401,9.126,12.109-4.025,9.263,2.076z"/>
		<path fill="#231F20" d="M3.164,29.257c-1.296-0.158-2.189-0.313-2.738-0.739l0,0C0.108,28.25-0.005,27.854,0,27.483l0,0
			c0.037-1.527,1.5-3.855,3.164-6.403l0,0c1.669-2.515,3.571-5.144,4.5-6.776l0,0c1.048-1.832,1.344-5.173,1.333-7.867l0,0
			c0-2.403-0.206-4.303-0.206-4.307l0,0L8.779,1.996l0.053-0.119C9.381,0.647,10.315-0.016,11.352,0l0,0
			c2.215,0.056,4.585,2.392,6.986,4.791l0,0c2.354,2.41,4.703,4.992,6.046,5.547l0,0c1.884,0.823,4.859,2,7.535,3.3l0,0
			c2.697,1.322,5.104,2.681,5.966,4.195l0,0c0.123,0.227,0.19,0.479,0.19,0.734l0,0c-0.118,1.842-2.603,3.528-5.621,5.291l0,0
			c-3.05,1.706-6.706,3.259-9.305,4.041l0,0c-3.35,1.005-10.007,1.563-15.277,1.563l0,0C6.078,29.463,4.445,29.395,3.164,29.257
			L3.164,29.257z M9.947,6.436C9.936,9.203,9.698,12.6,8.49,14.766l0,0c-0.982,1.718-2.878,4.333-4.532,6.826l0,0
			c-1.667,2.478-3.05,4.946-3.009,5.891l0,0c0,0.219,0.047,0.278,0.093,0.319l0,0c0.12,0.144,1.013,0.407,2.22,0.525l0,0
			c1.233,0.127,2.843,0.19,4.61,0.19l0,0c5.19,0.003,11.865-0.572,14.998-1.519l0,0c2.51-0.755,6.139-2.286,9.118-3.963l0,0
			c2.99-1.613,5.252-3.604,5.133-4.469l0,0c0-0.107-0.021-0.193-0.072-0.286l0,0c-0.561-1.079-2.9-2.534-5.539-3.798l0,0
			c-2.644-1.287-5.6-2.455-7.51-3.281l0,0c-1.737-0.781-3.967-3.353-6.341-5.758l0,0c-2.329-2.407-4.83-4.56-6.308-4.503l0,0
			c-0.621,0.01-1.119,0.271-1.602,1.223l0,0C9.791,2.647,9.947,4.355,9.947,6.436L9.947,6.436z"/>
	</g>
</g>
</svg>
