<?xml version="1.0" encoding="utf-8"?>
<!-- Generator: Adobe Illustrator 16.0.0, SVG Export Plug-In . SVG Version: 6.00 Build 0)  -->
<!DOCTYPE svg PUBLIC "-//W3C//DTD SVG 1.1//EN" "http://www.w3.org/Graphics/SVG/1.1/DTD/svg11.dtd">
<svg version="1.1" id="Layer_1" xmlns="http://www.w3.org/2000/svg" xmlns:xlink="http://www.w3.org/1999/xlink" x="0px" y="0px"
	 width="69.822px" height="46.26px" viewBox="0 0 69.822 46.26" enable-background="new 0 0 69.822 46.26" xml:space="preserve">
<g>
	<g>
		<path fill="#AAAAAA" d="M3.354,30.108c0,0,2.842,0.707,7.82-3.524c4.978-4.229,27.73-25.372,29.388-26.077
			c1.66-0.707-0.71,9.632-0.71,9.632l6.877-8.459l0.232,9.636l6.395-9.4l1.904,10.336l5.683-10.102l2.137,11.277l3.792-10.809
			c0,0,1.893,34.54,2.364,35.718c0.477,1.169-0.704,4.225-1.415,5.405c-0.712,1.171-5.214,3.048-4.269,1.405
			c0.949-1.642,2.371-2.35,1.654-3.758c-0.705-1.41-0.705-2.115-2.127-2.115c-1.427,0-3.316,0-2.846,1.643
			c0.472,1.645,0.472,3.293-1.184,3.76c-1.664,0.471-4.501-0.467-2.847-1.171c1.659-0.708,2.608-1.411,1.898-2.353
			c-0.716-0.938-1.898-1.647-2.609-1.879c-0.71-0.236-13.271-1.643-13.271-1.643s-0.239,4.463-0.71,5.166
			c-0.478,0.708-4.03,1.648-3.792,0.234c0.24-1.411,1.184-1.879,1.894-2.115c0.71-0.233-0.473-3.055-0.473-3.055l-3.084-0.23
			c0,0-0.473,3.989-1.184,4.463c-0.71,0.467-3.791,2.115-3.791,0.467c0-1.645,0.949-2.347,1.894-2.818c0.954-0.469,0-2.818,0-2.818
			S5.724,34.338,3.354,30.108z"/>
		<path fill="#231F20" d="M63.282,46.122c-0.196-0.107-0.346-0.377-0.337-0.606l0,0c0.006-0.229,0.083-0.416,0.198-0.604l0,0
			c0.86-1.42,1.851-2.195,1.784-2.791l0,0c0-0.148-0.036-0.316-0.135-0.521l0,0c-0.375-0.738-0.561-1.268-0.757-1.517l0,0
			c-0.198-0.226-0.308-0.321-0.956-0.341l0,0c-0.632,0-1.343,0.004-1.819,0.13l0,0c-0.498,0.159-0.611,0.253-0.629,0.571l0,0
			c0,0.09,0.012,0.2,0.059,0.346l0,0c0.172,0.6,0.291,1.211,0.291,1.793l0,0c0.035,1.084-0.504,2.202-1.805,2.547l0,0
			c-0.364,0.098-0.758,0.145-1.146,0.145l0,0c-0.628,0-1.251-0.111-1.754-0.281l0,0c-0.466-0.2-0.97-0.355-1.053-1.027l0,0
			c0.037-0.497,0.399-0.723,0.794-0.893l0,0c1.286-0.514,1.929-1.109,1.846-1.309l0,0c0-0.068-0.021-0.172-0.141-0.331l0,0
			c-0.622-0.835-1.772-1.524-2.379-1.714l0,0c-0.191-0.074-3.614-0.52-6.81-0.89l0,0c-2.458-0.291-4.859-0.563-5.87-0.677l0,0
			c-0.026,0.439-0.079,1.121-0.146,1.841l0,0c-0.144,1.249-0.253,2.455-0.611,3.066l0,0c-0.58,0.718-2.002,1.12-3.194,1.175l0,0
			c-0.336-0.006-0.654-0.047-0.948-0.198l0,0c-0.295-0.137-0.546-0.501-0.529-0.878l0,0c0-0.063,0.005-0.141,0.014-0.201l0,0
			c0.25-1.553,1.35-2.195,2.117-2.457l0,0c0-0.023,0-0.052,0-0.094l0,0c0.017-0.519-0.362-1.593-0.555-2.1l0,0l-2.339-0.174
			c-0.057,0.398-0.145,1.006-0.274,1.637l0,0c-0.261,1.111-0.395,2.169-1.059,2.714l0,0c-0.555,0.348-2.085,1.231-3.292,1.261l0,0
			c-0.286,0-0.597-0.052-0.856-0.273l0,0c-0.26-0.211-0.389-0.558-0.383-0.91l0,0c-0.021-1.848,1.161-2.771,2.156-3.238l0,0
			c0.062-0.016,0.161-0.154,0.161-0.521l0,0c0.005-0.473-0.171-1.093-0.284-1.44l0,0c-2.185-0.218-15.762-1.63-23.793-3.953l0,0
			c-2.921-0.871-5.115-1.745-5.907-3.075l0,0l0.414-0.223L2.94,30.331l-0.53-0.939l1.059,0.256c0,0,0.098,0.033,0.409,0.033l0,0
			c0.902-0.004,3.318-0.338,6.991-3.456l0,0c3.713-3.151,17.45-15.847,24.79-22.293l0,0c2.482-2.169,4.105-3.576,4.713-3.856l0,0
			C40.474,0.029,40.588,0,40.713,0l0,0c0.481,0.007,0.722,0.417,0.793,0.702l0,0c0.09,0.313,0.12,0.677,0.12,1.108l0,0
			c-0.005,1.738-0.519,4.606-0.907,6.508l0,0l6.445-7.927l0.232,9.436l6.22-9.13l1.866,10.181l5.683-10.091l2.05,10.817l3.204-9.141
			l0.924,0.129c0,0.021,0.444,8.104,0.96,16.595l0,0c0.507,8.473,1.094,17.395,1.353,18.859l0,0
			c0.016,0.086,0.021,0.113,0.025,0.113l0,0c0.109,0.27,0.141,0.556,0.141,0.861l0,0c-0.016,1.594-0.963,3.879-1.598,4.956l0,0
			c-0.763,1.103-3.099,2.216-4.387,2.284l0,0C63.662,46.258,63.475,46.241,63.282,46.122L63.282,46.122z M64.792,39.516
			c0.337,0.461,0.496,0.982,0.845,1.658l0,0c0.161,0.318,0.238,0.633,0.238,0.945l0,0c-0.073,1.326-1.192,1.985-1.877,3.195l0,0
			c0.871-0.09,3.175-1.27,3.412-1.82l0,0c0.556-0.896,1.482-3.246,1.468-4.475l0,0c0-0.229-0.035-0.414-0.078-0.512l0,0
			c-0.114-0.328-0.16-0.915-0.269-2.005l0,0c-0.1-1.064-0.213-2.512-0.333-4.214l0,0c-0.249-3.408-0.529-7.833-0.793-12.227l0,0
			C67.042,14.091,66.71,8.19,66.535,5.018l0,0l-3.59,10.23L60.72,3.514l-5.693,10.112L53.102,3.131l-6.581,9.663l-0.238-9.822
			l-6.063,7.459l-0.834-0.401c0-0.007,1.297-5.681,1.289-8.22l0,0c0-0.291-0.019-0.534-0.049-0.696l0,0
			c-0.007-0.042-0.011-0.069-0.018-0.098l0,0c-0.507,0.342-2.198,1.735-4.318,3.619l0,0c-2.442,2.144-5.597,4.985-8.858,7.936l0,0
			c-6.519,5.901-13.446,12.24-15.952,14.371l0,0c-3.246,2.756-5.652,3.493-7.012,3.646l0,0c0.919,0.642,2.588,1.344,4.647,1.92l0,0
			c2.857,0.83,6.477,1.539,10.014,2.131l0,0c7.095,1.17,13.883,1.817,13.892,1.817l0,0l0.293,0.026l0.103,0.264
			c0.011,0.028,0.451,1.075,0.457,2.055l0,0c0,0.473-0.113,1.064-0.685,1.365l0,0c-0.897,0.473-1.612,0.957-1.634,2.395l0,0
			c0.058,0.299-0.042,0.172,0.291,0.248l0,0c0.715,0.027,2.354-0.818,2.764-1.106l0,0c-0.006-0.013,0.041-0.036,0.097-0.151l0,0
			c0.064-0.121,0.137-0.293,0.203-0.502l0,0c0.135-0.405,0.254-0.938,0.358-1.454l0,0c0.208-1.036,0.321-2.021,0.321-2.021l0,0
			l0.054-0.45l3.82,0.291l0.114,0.268c0.006,0.03,0.72,1.655,0.742,2.724l0,0c0,0.302-0.057,0.76-0.556,0.955l0,0
			c-0.657,0.243-1.359,0.552-1.587,1.771l0,0c0,0,0,0.011,0,0.026l0,0c0.021,0.061-0.004,0.012,0.037,0.053l0,0
			c0.067,0.036,0.254,0.08,0.497,0.077l0,0c0.852,0.057,2.396-0.598,2.4-0.755l0,0c0.114-0.092,0.365-1.471,0.457-2.628l0,0
			c0.12-1.194,0.181-2.3,0.181-2.3l0,0l0.021-0.502l0.503,0.057c0,0,3.144,0.354,6.373,0.736l0,0
			c3.263,0.391,6.479,0.773,6.991,0.927l0,0c0.82,0.277,2.044,0.999,2.842,2.044l0,0c0.203,0.273,0.339,0.578,0.332,0.896l0,0
			c-0.087,1.109-1.146,1.595-2.422,2.168l0,0c-0.036,0.02-0.067,0.027-0.093,0.046l0,0c0.078,0.04,0.176,0.085,0.301,0.126l0,0
			c0.373,0.133,0.917,0.229,1.432,0.229l0,0c0.321,0,0.631-0.039,0.886-0.107l0,0c0.866-0.273,1.085-0.767,1.119-1.643l0,0
			c0-0.455-0.097-0.996-0.253-1.533l0,0c-0.066-0.215-0.099-0.416-0.099-0.605l0,0c-0.016-0.856,0.701-1.346,1.339-1.48l0,0
			c0.664-0.167,1.421-0.158,2.058-0.158l0,0c0.027,0,0.052-0.004,0.083-0.004l0,0C63.896,38.799,64.466,39.055,64.792,39.516
			L64.792,39.516z"/>
	</g>
	<path fill="#231F20" d="M29.662,22.826c0,0.39-0.315,0.699-0.715,0.699c-0.389,0-0.711-0.309-0.711-0.699
		c0-0.389,0.322-0.707,0.711-0.707C29.346,22.119,29.662,22.438,29.662,22.826z"/>
	<path fill="#231F20" d="M26.815,22.355c0,0.394-0.317,0.703-0.709,0.703c-0.395,0-0.711-0.309-0.711-0.703
		c0-0.391,0.317-0.704,0.711-0.704C26.498,21.651,26.815,21.964,26.815,22.355z"/>
	<path fill="#231F20" d="M3.354,30.108c0,0,1.659-5.402-1.426-5.637C-1.153,24.234-0.443,28.465,3.354,30.108z"/>
</g>
</svg>
