<?xml version="1.0" encoding="utf-8"?>
<!-- Generator: Adobe Illustrator 16.0.0, SVG Export Plug-In . SVG Version: 6.00 Build 0)  -->
<!DOCTYPE svg PUBLIC "-//W3C//DTD SVG 1.1//EN" "http://www.w3.org/Graphics/SVG/1.1/DTD/svg11.dtd">
<svg version="1.1" id="Capa_1" xmlns="http://www.w3.org/2000/svg" xmlns:xlink="http://www.w3.org/1999/xlink" x="0px" y="0px"
	 width="45px" height="45px" viewBox="0 0 45 45" enable-background="new 0 0 45 45" xml:space="preserve">
<g>
	<path fill="#FFFFFF" d="M42.955,28.637c-1.13,0-2.046,0.916-2.046,2.045v7.335L28.037,25.145c-0.798-0.799-2.094-0.799-2.893,0
		s-0.799,2.094,0,2.893l12.872,12.871l-7.335,0.001c-1.129,0-2.045,0.916-2.045,2.046c0,1.129,0.916,2.045,2.045,2.045l12.273-0.001
		c1.129,0,2.045-0.916,2.045-2.045V30.682C45,29.553,44.084,28.637,42.955,28.637z"/>
	<path fill="#FFFFFF" d="M2.045,16.364c1.129,0,2.045-0.916,2.045-2.045V6.984l12.872,12.872c0.399,0.399,0.923,0.599,1.446,0.599
		c0.523,0,1.047-0.2,1.446-0.599c0.799-0.799,0.799-2.094,0-2.893L6.984,4.091l7.334,0c1.129,0,2.045-0.916,2.045-2.045
		c0-1.13-0.916-2.045-2.046-2.045L2.045,0.001C0.916,0.001,0,0.917,0,2.046v12.272C0,15.448,0.916,16.364,2.045,16.364z"/>
	<path fill="#FFFFFF" d="M16.963,25.145L4.091,38.017l0-7.335c0-1.129-0.916-2.045-2.045-2.045C0.916,28.637,0,29.553,0,30.682
		l0.001,12.273C0.001,44.084,0.917,45,2.046,45h12.272c1.129,0,2.045-0.916,2.045-2.045c0-1.13-0.916-2.046-2.045-2.046H6.984
		l12.872-12.872c0.799-0.799,0.799-2.094,0-2.893S17.762,24.346,16.963,25.145z"/>
	<path fill="#FFFFFF" d="M26.591,20.454c0.523,0,1.047-0.2,1.446-0.599L40.908,6.983l0.001,7.335c0,1.129,0.916,2.045,2.046,2.045
		c1.129,0,2.045-0.916,2.045-2.046L44.999,2.045c0-1.13-0.916-2.045-2.045-2.045H30.682c-1.129,0-2.045,0.916-2.045,2.045
		s0.916,2.045,2.045,2.045h7.335L25.145,16.962c-0.799,0.799-0.799,2.094,0,2.893C25.544,20.254,26.067,20.454,26.591,20.454z"/>
</g>
</svg>
