<?xml version="1.0" encoding="utf-8"?>
<!-- Generator: Adobe Illustrator 16.0.0, SVG Export Plug-In . SVG Version: 6.00 Build 0)  -->
<!DOCTYPE svg PUBLIC "-//W3C//DTD SVG 1.1//EN" "http://www.w3.org/Graphics/SVG/1.1/DTD/svg11.dtd">
<svg version="1.1" id="Capa_1" xmlns="http://www.w3.org/2000/svg" xmlns:xlink="http://www.w3.org/1999/xlink" x="0px" y="0px"
	 width="72.909px" height="78.625px" viewBox="16.041 14.682 72.909 78.625" enable-background="new 16.041 14.682 72.909 78.625"
	 xml:space="preserve">
<g>
	<g>
		<path fill="#EB705E" stroke="#FFFFFF" stroke-width="3" stroke-miterlimit="10" d="M86.469,38.818
			c0.819-5.835,3.071-18.428-4.197-21.396c-8.088-3.174-20.373,0.512-28.358,2.559c-4.607,1.126-20.68,4.607-19.554,11.979
			c0.102,0.409,7.678,8.395,10.75,11.159c0.614,0.512,1.126,1.024,1.74,1.536c-9.521,10.34-23.137,18.53-29.28,31.43
			c-0.41,0.819,3.686,7.269,5.221,8.6c2.662,2.457,5.426,5.017,8.6,6.962c0.818,0.512,2.969-0.308,3.276-0.717
			c9.521-10.852,17.711-22.42,28.051-32.556c3.378,3.071,6.654,6.347,9.624,9.931c0.307,0.409,3.993,2.969,5.119,1.331
			C83.09,61.034,85.036,48.749,86.469,38.818z"/>
	</g>
</g>
</svg>
