<?xml version="1.0" encoding="utf-8"?>
<!-- Generator: Adobe Illustrator 16.0.0, SVG Export Plug-In . SVG Version: 6.00 Build 0)  -->
<!DOCTYPE svg PUBLIC "-//W3C//DTD SVG 1.1//EN" "http://www.w3.org/Graphics/SVG/1.1/DTD/svg11.dtd">
<svg version="1.1" id="Capa_1" xmlns="http://www.w3.org/2000/svg" xmlns:xlink="http://www.w3.org/1999/xlink" x="0px" y="0px"
	 width="27.182px" height="41.995px" viewBox="17.636 0 27.182 41.995" enable-background="new 17.636 0 27.182 41.995"
	 xml:space="preserve">
<g>
	<g>
		<path fill="#EB705E" d="M44.818,11.942V11.83C44.818,4.507,39.015,0,30.735,0c-4.776,0-8.573,1.347-11.615,3.432
			c-1.768,1.211-1.928,3.868-0.632,5.578l0.944,1.247c1.295,1.709,3.615,1.872,5.493,0.834c1.711-0.945,3.447-1.457,5.077-1.457
			c2.704,0,4.225,1.183,4.225,3.099v0.056c0,2.423-2.31,5.885-8.845,6.448l-0.225,0.253c-0.124,0.14,0.033,1.973,0.349,4.094
			l0.26,1.729c0.316,2.121,2.1,3.839,3.982,3.839c1.882,0,3.56-0.807,3.745-1.802c0.188-0.996,0.339-1.803,0.339-1.803
			C40.085,24.023,44.818,19.041,44.818,11.942z"/>
		<path fill="#EB705E" d="M27.913,32.417c-2.144,0-3.881,1.738-3.881,3.882v1.813c0,2.144,1.738,3.882,3.881,3.882h3.333
			c2.144,0,3.882-1.738,3.882-3.882V36.3c0-2.144-1.739-3.882-3.882-3.882H27.913z"/>
	</g>
</g>
</svg>
