<?xml version="1.0" encoding="utf-8"?>
<!-- Generator: Adobe Illustrator 16.0.0, SVG Export Plug-In . SVG Version: 6.00 Build 0)  -->
<!DOCTYPE svg PUBLIC "-//W3C//DTD SVG 1.1//EN" "http://www.w3.org/Graphics/SVG/1.1/DTD/svg11.dtd">
<svg version="1.1" id="Capa_1" xmlns="http://www.w3.org/2000/svg" xmlns:xlink="http://www.w3.org/1999/xlink" x="0px" y="0px"
	 width="41px" height="41px" viewBox="33.892 143.543 41 41" enable-background="new 33.892 143.543 41 41" xml:space="preserve">
<g>
	<g>
		<g>
			<path fill="#FF715D" d="M70.026,171.936c6.486-6.486,6.486-17.041,0-23.528c-6.487-6.485-17.041-6.485-23.527,0
				c-5.502,5.504-6.336,13.688-2.502,20.08c0,0,0.275,0.462-0.097,0.832c-2.122,2.121-8.488,8.487-8.488,8.487
				c-1.689,1.69-2.092,4.053-0.593,5.552l0.258,0.257c1.498,1.498,3.86,1.097,5.549-0.594c0,0,6.353-6.352,8.47-8.469
				c0.39-0.39,0.852-0.114,0.852-0.114C56.339,178.271,64.523,177.438,70.026,171.936z M49.57,168.863
				c-4.792-4.792-4.792-12.591,0-17.383c4.793-4.794,12.591-4.794,17.384,0c4.793,4.792,4.793,12.591,0,17.383
				C62.162,173.657,54.363,173.657,49.57,168.863z"/>
			<path fill="#FF715D" d="M66.167,161.286c0,0.726-0.594,1.32-1.321,1.32H51.858c-0.726,0-1.32-0.595-1.32-1.32v-2.188
				c0-0.728,0.594-1.321,1.32-1.321h12.988c0.727,0,1.321,0.594,1.321,1.321V161.286z"/>
		</g>
	</g>
</g>
</svg>
