<?xml version="1.0" encoding="utf-8"?>
<!-- Generator: Adobe Illustrator 16.0.0, SVG Export Plug-In . SVG Version: 6.00 Build 0)  -->
<!DOCTYPE svg PUBLIC "-//W3C//DTD SVG 1.1//EN" "http://www.w3.org/Graphics/SVG/1.1/DTD/svg11.dtd">
<svg version="1.1" id="Capa_1" xmlns="http://www.w3.org/2000/svg" xmlns:xlink="http://www.w3.org/1999/xlink" x="0px" y="0px"
	 width="41px" height="40.999px" viewBox="127.999 117.277 41 40.999" enable-background="new 127.999 117.277 41 40.999"
	 xml:space="preserve">
<g>
	<g>
		<path fill="#FF715D" d="M164.134,145.669c6.486-6.486,6.486-17.041,0-23.527s-17.041-6.486-23.527,0
			c-5.503,5.503-6.336,13.687-2.502,20.078c0,0,0.275,0.462-0.097,0.834c-2.122,2.121-8.488,8.487-8.488,8.487
			c-1.689,1.689-2.091,4.052-0.593,5.55l0.258,0.258c1.499,1.498,3.861,1.097,5.55-0.593c0,0,6.353-6.353,8.47-8.47
			c0.39-0.391,0.852-0.115,0.852-0.115C150.447,152.005,158.631,151.172,164.134,145.669z M143.678,142.598
			c-4.793-4.793-4.793-12.592,0-17.385s12.591-4.793,17.384,0s4.793,12.592,0,17.385C156.27,147.39,148.471,147.39,143.678,142.598z
			"/>
		<path fill="#FF715D" d="M158.954,131.51h-3.723c0,0-0.356-0.028-0.356-0.392c0-0.922,0-3.688,0-3.688
			c0-0.727-0.595-1.32-1.321-1.32h-2.188c-0.727,0-1.321,0.594-1.321,1.32c0,0,0,2.747,0,3.663c0,0.388-0.377,0.415-0.377,0.415
			h-3.702c-0.727,0-1.321,0.595-1.321,1.321v2.189c0,0.727,0.594,1.32,1.321,1.32h3.674c0,0,0.404,0.012,0.404,0.397
			c0,0.92,0,3.682,0,3.682c0,0.726,0.594,1.32,1.321,1.32h2.188c0.727,0,1.321-0.595,1.321-1.32c0,0,0-2.778,0-3.704
			c0-0.355,0.406-0.375,0.406-0.375h3.673c0.727,0,1.32-0.594,1.32-1.32v-2.189C160.274,132.104,159.68,131.51,158.954,131.51z"/>
	</g>
</g>
</svg>
