<svg width="30" height="30" viewBox="0 0 30 30" version="1.1" xmlns="http://www.w3.org/2000/svg" xmlns:xlink="http://www.w3.org/1999/xlink">
<g id="Canvas" fill="none">
<g id="Group">
<path id="Vector" d="M 0 0L 0 0.576923L 0 24.2308L 10.4545 24.2308L 10.4545 26.5385L 8.18182 26.5385C 7.18303 26.5385 6.36364 27.5785 6.36364 28.8462L 6.36364 30L 23.6364 30L 23.6364 28.8462C 23.6364 27.5785 22.817 26.5385 21.8182 26.5385L 19.5455 26.5385L 19.5455 24.2308L 30 24.2308L 30 0L 0 0ZM 0.909091 1.15385L 29.0909 1.15385L 29.0909 23.0769L 19.5455 23.0769L 10.4545 23.0769L 0.909091 23.0769L 0.909091 1.15385ZM 2.27273 2.88462L 2.27273 4.03846L 3.63636 4.03846L 3.63636 2.88462L 2.27273 2.88462ZM 26.3636 2.88462L 26.3636 4.03846L 27.7273 4.03846L 27.7273 2.88462L 26.3636 2.88462ZM 2.27273 6.34615L 2.27273 7.5L 3.63636 7.5L 3.63636 6.34615L 2.27273 6.34615ZM 26.3636 6.34615L 26.3636 7.5L 27.7273 7.5L 27.7273 6.34615L 26.3636 6.34615ZM 2.27273 9.80769L 2.27273 10.9615L 3.63636 10.9615L 3.63636 9.80769L 2.27273 9.80769ZM 26.3636 9.80769L 26.3636 10.9615L 27.7273 10.9615L 27.7273 9.80769L 26.3636 9.80769ZM 2.27273 13.2692L 2.27273 14.4231L 3.63636 14.4231L 3.63636 13.2692L 2.27273 13.2692ZM 26.3636 13.2692L 26.3636 14.4231L 27.7273 14.4231L 27.7273 13.2692L 26.3636 13.2692ZM 2.27273 16.7308L 2.27273 17.8846L 3.63636 17.8846L 3.63636 16.7308L 2.27273 16.7308ZM 26.3636 16.7308L 26.3636 17.8846L 27.7273 17.8846L 27.7273 16.7308L 26.3636 16.7308ZM 2.27273 20.1923L 2.27273 21.3462L 3.63636 21.3462L 3.63636 20.1923L 2.27273 20.1923ZM 26.3636 20.1923L 26.3636 21.3462L 27.7273 21.3462L 27.7273 20.1923L 26.3636 20.1923ZM 11.3636 24.2308L 18.6364 24.2308L 18.6364 27.6923L 21.8182 27.6923C 22.3258 27.6923 22.7273 28.2019 22.7273 28.8462L 7.27273 28.8462C 7.27273 28.2019 7.67424 27.6923 8.18182 27.6923L 11.3636 27.6923L 11.3636 24.2308ZM 12.2727 26.5385C 12.1522 26.5385 12.0366 26.5992 11.9513 26.7074C 11.8661 26.8156 11.8182 26.9624 11.8182 27.1154C 11.8182 27.2684 11.8661 27.4151 11.9513 27.5233C 12.0366 27.6315 12.1522 27.6923 12.2727 27.6923C 12.3933 27.6923 12.5089 27.6315 12.5941 27.5233C 12.6794 27.4151 12.7273 27.2684 12.7273 27.1154C 12.7273 26.9624 12.6794 26.8156 12.5941 26.7074C 12.5089 26.5992 12.3933 26.5385 12.2727 26.5385ZM 14.0909 26.5385C 13.9704 26.5385 13.8547 26.5992 13.7695 26.7074C 13.6843 26.8156 13.6364 26.9624 13.6364 27.1154C 13.6364 27.2684 13.6843 27.4151 13.7695 27.5233C 13.8547 27.6315 13.9704 27.6923 14.0909 27.6923C 14.2115 27.6923 14.3271 27.6315 14.4123 27.5233C 14.4976 27.4151 14.5455 27.2684 14.5455 27.1154C 14.5455 26.9624 14.4976 26.8156 14.4123 26.7074C 14.3271 26.5992 14.2115 26.5385 14.0909 26.5385ZM 15.9091 26.5385C 15.7885 26.5385 15.6729 26.5992 15.5877 26.7074C 15.5024 26.8156 15.4545 26.9624 15.4545 27.1154C 15.4545 27.2684 15.5024 27.4151 15.5877 27.5233C 15.6729 27.6315 15.7885 27.6923 15.9091 27.6923C 16.0296 27.6923 16.1453 27.6315 16.2305 27.5233C 16.3157 27.4151 16.3636 27.2684 16.3636 27.1154C 16.3636 26.9624 16.3157 26.8156 16.2305 26.7074C 16.1453 26.5992 16.0296 26.5385 15.9091 26.5385ZM 17.7273 26.5385C 17.6067 26.5385 17.4911 26.5992 17.4059 26.7074C 17.3206 26.8156 17.2727 26.9624 17.2727 27.1154C 17.2727 27.2684 17.3206 27.4151 17.4059 27.5233C 17.4911 27.6315 17.6067 27.6923 17.7273 27.6923C 17.8478 27.6923 17.9634 27.6315 18.0487 27.5233C 18.1339 27.4151 18.1818 27.2684 18.1818 27.1154C 18.1818 26.9624 18.1339 26.8156 18.0487 26.7074C 17.9634 26.5992 17.8478 26.5385 17.7273 26.5385Z" fill="#963F95"/>
</g>
</g>
</svg>
