<svg xmlns="http://www.w3.org/2000/svg" viewBox="0 0 30 30">
  <path d="M0 0V24.23h10.45v2.3H8.18c-1 0-1.82 1.05-1.82 2.32V30h17.28v-1.15c0-1.27-.82-2.31-1.82-2.31h-2.27v-2.3H30V0H0zm.9 1.15h28.2v21.93H.9V1.15zm1.37 1.73v1.16h1.37V2.88H2.27zm24.1 0v1.16h1.36V2.88h-1.37zM2.26 6.35V7.5h1.37V6.35H2.27zm24.1 0V7.5h1.36V6.35h-1.37zM2.26 9.8v1.15h1.37V9.81H2.27zm24.1 0v1.15h1.36V9.81h-1.37zm-24.1 3.46v1.15h1.37v-1.15H2.27zm24.1 0v1.15h1.36v-1.15h-1.37zm-24.1 3.46v1.15h1.37v-1.15H2.27zm24.1 0v1.15h1.36v-1.15h-1.37zM2.26 20.2v1.16h1.37v-1.16H2.27zm24.1 0v1.16h1.36v-1.16h-1.37zm-15 4.04h7.27v3.46h3.18c.5 0 .9.51.9 1.16H7.28c0-.65.4-1.16.91-1.16h3.18v-3.46zm.9 2.3a.41.41 0 0 0-.32.18.66.66 0 0 0-.13.4c0 .16.05.3.13.41.09.11.2.17.32.17s.24-.06.32-.17c.09-.1.14-.25.14-.4 0-.16-.05-.3-.14-.41a.41.41 0 0 0-.32-.17zm1.82 0a.41.41 0 0 0-.32.18.66.66 0 0 0-.13.4c0 .16.04.3.13.41.08.11.2.17.32.17s.24-.06.32-.17c.09-.1.14-.25.14-.4 0-.16-.05-.3-.14-.41a.41.41 0 0 0-.32-.17zm1.82 0a.41.41 0 0 0-.32.18.66.66 0 0 0-.14.4c0 .16.05.3.14.41.08.11.2.17.32.17s.24-.06.32-.17c.09-.1.13-.25.13-.4 0-.16-.04-.3-.13-.41a.41.41 0 0 0-.32-.17zm1.82 0a.41.41 0 0 0-.32.18.66.66 0 0 0-.14.4c0 .16.05.3.14.41.08.11.2.17.32.17s.23-.06.32-.17c.08-.1.13-.25.13-.4 0-.16-.05-.3-.13-.41a.41.41 0 0 0-.32-.17z"/>
</svg>
