<svg width="31" height="24" viewBox="0 0 31 24" version="1.1" xmlns="http://www.w3.org/2000/svg" xmlns:xlink="http://www.w3.org/1999/xlink">
<g id="Canvas" fill="none">
<g id="surface1">
<g id="Vector">
<mask id="path-1-inside-1" fill="white">
<path d="M 28.4444 0L 10.1667 18.8L 2.55556 10.9714L 0 13.6L 8.88889 22.7429L 10.1667 24L 11.4444 22.7429L 31 2.62857L 28.4444 0Z"/>
</mask>
<path d="M 28.4444 0L 10.1667 18.8L 2.55556 10.9714L 0 13.6L 8.88889 22.7429L 10.1667 24L 11.4444 22.7429L 31 2.62857L 28.4444 0Z" fill="#2F8921"/>
<g mask="url(#path-1-inside-1)">
<path d="M 28.4444 0L 30.5954 -2.09124L 28.4444 -4.30368L 26.2935 -2.09124L 28.4444 0ZM 10.1667 18.8L 8.01568 20.8912L 10.1667 23.1037L 12.3177 20.8912L 10.1667 18.8ZM 2.55556 10.9714L 4.70654 8.88019L 2.55556 6.66775L 0.404571 8.88019L 2.55556 10.9714ZM 0 13.6L -2.15098 11.5088L -4.18413 13.6L -2.15098 15.6912L 0 13.6ZM 8.88889 22.7429L 6.7379 24.8341L 6.76114 24.858L 6.78491 24.8814L 8.88889 22.7429ZM 10.1667 24L 8.06268 26.1385L 10.1667 28.2085L 12.2706 26.1385L 10.1667 24ZM 11.4444 22.7429L 13.5484 24.8814L 13.5722 24.858L 13.5954 24.8341L 11.4444 22.7429ZM 31 2.62857L 33.151 4.71981L 35.1841 2.62857L 33.151 0.537336L 31 2.62857ZM 26.2935 -2.09124L 8.01568 16.7088L 12.3177 20.8912L 30.5954 2.09124L 26.2935 -2.09124ZM 12.3177 16.7088L 4.70654 8.88019L 0.404571 13.0627L 8.01568 20.8912L 12.3177 16.7088ZM 0.404571 8.88019L -2.15098 11.5088L 2.15098 15.6912L 4.70654 13.0627L 0.404571 8.88019ZM -2.15098 15.6912L 6.7379 24.8341L 11.0399 20.6516L 2.15098 11.5088L -2.15098 15.6912ZM 6.78491 24.8814L 8.06268 26.1385L 12.2706 21.8615L 10.9929 20.6043L 6.78491 24.8814ZM 12.2706 26.1385L 13.5484 24.8814L 9.34046 20.6043L 8.06268 21.8615L 12.2706 26.1385ZM 13.5954 24.8341L 33.151 4.71981L 28.849 0.537336L 9.29346 20.6516L 13.5954 24.8341ZM 33.151 0.537336L 30.5954 -2.09124L 26.2935 2.09124L 28.849 4.71981L 33.151 0.537336Z" fill="#2F8921"/>
</g>
</g>
</g>
</g>
</svg>
