<svg width="48" height="45" viewBox="0 0 48 45" version="1.1" xmlns="http://www.w3.org/2000/svg" xmlns:xlink="http://www.w3.org/1999/xlink">
<g id="Canvas" fill="none">
<g id="Vector">
<mask id="path-1-inside-1" fill="white">
<path d="M 24.5625 0.005859C 24.0117 0.064453 23.6094 0.564453 23.6719 1.11523C 23.7305 1.66602 24.2305 2.06836 24.7812 2.00586C 29.1328 2.00586 31.0703 3.27148 32.0312 4.41211C 32.9336 5.48242 32.9961 6.39258 33 6.50586C 33 6.50976 33 6.53711 33 6.53711L 33 6.56836L 33 11.9121C 32.9414 12.1074 32.9414 12.3105 33 12.5059L 33 32.0371C 32.9727 32.1699 32.9727 32.3105 33 32.4434L 33 37.9121C 33 37.9121 33.0312 38.9082 32.0938 40.0371C 31.1562 41.166 29.2188 42.4434 24.7812 42.4434C 24.4219 42.4395 24.0859 42.627 23.9023 42.9395C 23.7227 43.252 23.7227 43.6348 23.9023 43.9473C 24.0859 44.2598 24.4219 44.4473 24.7812 44.4434C 29.6172 44.4434 32.2656 42.959 33.625 41.3184C 33.7695 41.1426 33.8828 40.9629 34 40.7871C 34.1172 40.9629 34.2305 41.1426 34.375 41.3184C 35.7344 42.959 38.3828 44.4434 43.2188 44.4434C 43.5781 44.4473 43.9141 44.2598 44.0977 43.9473C 44.2773 43.6348 44.2773 43.252 44.0977 42.9395C 43.9141 42.627 43.5781 42.4395 43.2188 42.4434C 38.7812 42.4434 36.8438 41.166 35.9062 40.0371C 34.9688 38.9082 35 37.9121 35 37.9121L 35 33.2246L 48 33.2246L 48 11.2246L 35 11.2246L 35 6.50586C 35.0039 6.39258 35.0664 5.48242 35.9688 4.41211C 36.9297 3.27148 38.8672 2.00586 43.2188 2.00586C 43.5781 2.00976 43.9141 1.82226 44.0977 1.50976C 44.2773 1.19726 44.2773 0.814453 44.0977 0.501953C 43.9141 0.189453 43.5781 0.001953 43.2188 0.005859C 38.4609 0.005859 35.8125 1.50195 34.4375 3.13086C 34.2734 3.32226 34.1289 3.5332 34 3.72461C 33.8711 3.5332 33.7266 3.32226 33.5625 3.13086C 32.1875 1.50195 29.5391 0.005859 24.7812 0.005859C 24.707 -0.001953 24.6367 -0.001953 24.5625 0.005859ZM 0 11.2246L 0 33.2246L 30 33.2246L 30 31.2246L 2 31.2246L 2 13.2246L 30 13.2246L 30 11.2246L 0 11.2246ZM 35 13.2246L 46 13.2246L 46 31.2246L 35 31.2246L 35 13.2246Z"/>
</mask>
<path d="M 24.5625 0.005859C 24.0117 0.064453 23.6094 0.564453 23.6719 1.11523C 23.7305 1.66602 24.2305 2.06836 24.7812 2.00586C 29.1328 2.00586 31.0703 3.27148 32.0312 4.41211C 32.9336 5.48242 32.9961 6.39258 33 6.50586C 33 6.50976 33 6.53711 33 6.53711L 33 6.56836L 33 11.9121C 32.9414 12.1074 32.9414 12.3105 33 12.5059L 33 32.0371C 32.9727 32.1699 32.9727 32.3105 33 32.4434L 33 37.9121C 33 37.9121 33.0312 38.9082 32.0938 40.0371C 31.1562 41.166 29.2188 42.4434 24.7812 42.4434C 24.4219 42.4395 24.0859 42.627 23.9023 42.9395C 23.7227 43.252 23.7227 43.6348 23.9023 43.9473C 24.0859 44.2598 24.4219 44.4473 24.7812 44.4434C 29.6172 44.4434 32.2656 42.959 33.625 41.3184C 33.7695 41.1426 33.8828 40.9629 34 40.7871C 34.1172 40.9629 34.2305 41.1426 34.375 41.3184C 35.7344 42.959 38.3828 44.4434 43.2188 44.4434C 43.5781 44.4473 43.9141 44.2598 44.0977 43.9473C 44.2773 43.6348 44.2773 43.252 44.0977 42.9395C 43.9141 42.627 43.5781 42.4395 43.2188 42.4434C 38.7812 42.4434 36.8438 41.166 35.9062 40.0371C 34.9688 38.9082 35 37.9121 35 37.9121L 35 33.2246L 48 33.2246L 48 11.2246L 35 11.2246L 35 6.50586C 35.0039 6.39258 35.0664 5.48242 35.9688 4.41211C 36.9297 3.27148 38.8672 2.00586 43.2188 2.00586C 43.5781 2.00976 43.9141 1.82226 44.0977 1.50976C 44.2773 1.19726 44.2773 0.814453 44.0977 0.501953C 43.9141 0.189453 43.5781 0.001953 43.2188 0.005859C 38.4609 0.005859 35.8125 1.50195 34.4375 3.13086C 34.2734 3.32226 34.1289 3.5332 34 3.72461C 33.8711 3.5332 33.7266 3.32226 33.5625 3.13086C 32.1875 1.50195 29.5391 0.005859 24.7812 0.005859C 24.707 -0.001953 24.6367 -0.001953 24.5625 0.005859ZM 0 11.2246L 0 33.2246L 30 33.2246L 30 31.2246L 2 31.2246L 2 13.2246L 30 13.2246L 30 11.2246L 0 11.2246ZM 35 13.2246L 46 13.2246L 46 31.2246L 35 31.2246L 35 13.2246Z" fill="#C4C4C4"/>
<g mask="url(#path-1-inside-1)">
<path d="M 24.5625 0.005859L 24.4578 -0.988648L 24.4567 -0.98853L 24.5625 0.005859ZM 23.6719 1.11523L 24.6663 1.00944L 24.6655 1.00248L 23.6719 1.11523ZM 24.7812 2.00586L 24.7812 1.00586L 24.7247 1.00586L 24.6685 1.01224L 24.7812 2.00586ZM 32.0312 4.41211L 31.2665 5.05641L 31.2667 5.05667L 32.0312 4.41211ZM 33 6.50586L 34 6.50586L 34 6.48862L 33.9994 6.4714L 33 6.50586ZM 33 11.9121L 33.9578 12.1995L 34 12.0589L 34 11.9121L 33 11.9121ZM 33 12.5059L 34 12.5059L 34 12.3591L 33.9578 12.2185L 33 12.5059ZM 33 32.0371L 33.9795 32.2388L 34 32.139L 34 32.0371L 33 32.0371ZM 33 32.4434L 34 32.4434L 34 32.3415L 33.9795 32.2417L 33 32.4434ZM 33 37.9121L 32 37.9121L 32 37.9278L 32.0005 37.9435L 33 37.9121ZM 24.7812 42.4434L 24.7704 43.4434L 24.7812 43.4434L 24.7812 42.4434ZM 23.9023 42.9395L 23.0401 42.4329L 23.0354 42.441L 23.9023 42.9395ZM 23.9023 43.9473L 23.0354 44.4458L 23.0401 44.4538L 23.9023 43.9473ZM 24.7812 44.4434L 24.7812 43.4433L 24.7704 43.4434L 24.7812 44.4434ZM 33.625 41.3184L 34.395 41.9564L 34.3974 41.9535L 33.625 41.3184ZM 34 40.7871L 34.8321 40.2324L 34 38.9843L 33.1679 40.2324L 34 40.7871ZM 34.375 41.3184L 33.6026 41.9535L 33.605 41.9564L 34.375 41.3184ZM 43.2188 44.4434L 43.2296 43.4434L 43.2188 43.4434L 43.2188 44.4434ZM 44.0977 43.9473L 44.9599 44.4538L 44.9646 44.4457L 44.0977 43.9473ZM 44.0977 42.9395L 44.9646 42.441L 44.9599 42.4329L 44.0977 42.9395ZM 43.2188 42.4434L 43.2188 43.4434L 43.2296 43.4433L 43.2188 42.4434ZM 35 37.9121L 35.9995 37.9435L 36 37.9278L 36 37.9121L 35 37.9121ZM 35 33.2246L 35 32.2246L 34 32.2246L 34 33.2246L 35 33.2246ZM 48 33.2246L 48 34.2246L 49 34.2246L 49 33.2246L 48 33.2246ZM 48 11.2246L 49 11.2246L 49 10.2246L 48 10.2246L 48 11.2246ZM 35 11.2246L 34 11.2246L 34 12.2246L 35 12.2246L 35 11.2246ZM 35 6.50586L 34.0006 6.4714L 34 6.48862L 34 6.50586L 35 6.50586ZM 35.9688 4.41211L 36.7333 5.05667L 36.7335 5.05641L 35.9688 4.41211ZM 43.2188 2.00586L 43.2296 1.00586L 43.2188 1.00586L 43.2188 2.00586ZM 44.0977 1.50976L 44.9599 2.01633L 44.9646 2.00824L 44.0977 1.50976ZM 44.0977 0.501953L 44.9646 0.00345908L 44.9599 -0.00459451L 44.0977 0.501953ZM 43.2188 0.005859L 43.2188 1.00592L 43.2296 1.0058L 43.2188 0.005859ZM 34.4375 3.13086L 35.1968 3.78167L 35.2016 3.7759L 34.4375 3.13086ZM 34 3.72461L 33.1706 4.28321L 34 5.5148L 34.8294 4.28321L 34 3.72461ZM 33.5625 3.13086L 32.7983 3.77592L 32.8032 3.78165L 33.5625 3.13086ZM 24.7812 0.005859L 24.6766 1.00037L 24.7288 1.00586L 24.7812 1.00586L 24.7812 0.005859ZM 0 11.2246L 0 10.2246L -1 10.2246L -1 11.2246L 0 11.2246ZM 0 33.2246L -1 33.2246L -1 34.2246L 0 34.2246L 0 33.2246ZM 30 33.2246L 30 34.2246L 31 34.2246L 31 33.2246L 30 33.2246ZM 30 31.2246L 31 31.2246L 31 30.2246L 30 30.2246L 30 31.2246ZM 2 31.2246L 1 31.2246L 1 32.2246L 2 32.2246L 2 31.2246ZM 2 13.2246L 2 12.2246L 1 12.2246L 1 13.2246L 2 13.2246ZM 30 13.2246L 30 14.2246L 31 14.2246L 31 13.2246L 30 13.2246ZM 30 11.2246L 31 11.2246L 31 10.2246L 30 10.2246L 30 11.2246ZM 35 13.2246L 35 12.2246L 34 12.2246L 34 13.2246L 35 13.2246ZM 46 13.2246L 47 13.2246L 47 12.2246L 46 12.2246L 46 13.2246ZM 46 31.2246L 46 32.2246L 47 32.2246L 47 31.2246L 46 31.2246ZM 35 31.2246L 34 31.2246L 34 32.2246L 35 32.2246L 35 31.2246ZM 24.4567 -0.98853C 23.3557 -0.871402 22.553 0.12403 22.6783 1.22799L 24.6655 1.00248C 24.6654 1.00195 24.6655 1.00227 24.6654 1.00312C 24.6654 1.00391 24.6652 1.00453 24.6651 1.00486C 24.665 1.00533 24.6653 1.00415 24.6668 1.00229C 24.6683 1.00041 24.6695 0.999683 24.6695 0.999718C 24.6693 0.999789 24.6689 0.999981 24.6684 1.00016C 24.6678 1.00035 24.6676 1.00032 24.6683 1.00025L 24.4567 -0.98853ZM 22.6775 1.22102C 22.7946 2.32202 23.79 3.12475 24.894 2.99948L 24.6685 1.01224C 24.668 1.0123 24.6683 1.01222 24.6691 1.0123C 24.6699 1.01237 24.6705 1.01252 24.6709 1.01262C 24.6713 1.01275 24.6702 1.01245 24.6683 1.01095C 24.6664 1.00945 24.6657 1.00821 24.6657 1.00828C 24.6658 1.00841 24.666 1.00879 24.6662 1.00934C 24.6664 1.00996 24.6663 1.01011 24.6663 1.00945L 22.6775 1.22102ZM 24.7812 3.00586C 28.9237 3.00586 30.5447 4.19961 31.2665 5.05641L 32.796 3.76781C 31.596 2.34335 29.3419 1.00586 24.7812 1.00586L 24.7812 3.00586ZM 31.2667 5.05667C 31.993 5.91813 32.0025 6.59639 32.0006 6.54032L 33.9994 6.4714C 33.9897 6.18876 33.8742 5.04671 32.7958 3.76754L 31.2667 5.05667ZM 32 6.50586C 32 6.50587 32 6.50587 32 6.50588C 32 6.50589 32 6.5059 32 6.50591C 32 6.50591 32 6.50592 32 6.50593C 32 6.50594 32 6.50595 32 6.50595C 32 6.50596 32 6.50597 32 6.50598C 32 6.50599 32 6.506 32 6.50601C 32 6.50601 32 6.50602 32 6.50603C 32 6.50604 32 6.50605 32 6.50606C 32 6.50607 32 6.50608 32 6.50609C 32 6.5061 32 6.5061 32 6.50611C 32 6.50612 32 6.50613 32 6.50614C 32 6.50615 32 6.50616 32 6.50617C 32 6.50618 32 6.50619 32 6.5062C 32 6.50621 32 6.50622 32 6.50623C 32 6.50624 32 6.50625 32 6.50626C 32 6.50627 32 6.50628 32 6.50629C 32 6.5063 32 6.50631 32 6.50632C 32 6.50633 32 6.50634 32 6.50636C 32 6.50637 32 6.50638 32 6.50639C 32 6.5064 32 6.50641 32 6.50642C 32 6.50643 32 6.50644 32 6.50645C 32 6.50647 32 6.50648 32 6.50649C 32 6.5065 32 6.50651 32 6.50652C 32 6.50653 32 6.50655 32 6.50656C 32 6.50657 32 6.50658 32 6.50659C 32 6.5066 32 6.50662 32 6.50663C 32 6.50664 32 6.50665 32 6.50666C 32 6.50668 32 6.50669 32 6.5067C 32 6.50671 32 6.50673 32 6.50674C 32 6.50675 32 6.50676 32 6.50678C 32 6.50679 32 6.5068 32 6.50681C 32 6.50683 32 6.50684 32 6.50685C 32 6.50687 32 6.50688 32 6.50689C 32 6.50691 32 6.50692 32 6.50693C 32 6.50695 32 6.50696 32 6.50697C 32 6.50699 32 6.507 32 6.50701C 32 6.50703 32 6.50704 32 6.50705C 32 6.50707 32 6.50708 32 6.5071C 32 6.50711 32 6.50712 32 6.50714C 32 6.50715 32 6.50716 32 6.50718C 32 6.50719 32 6.50721 32 6.50722C 32 6.50724 32 6.50725 32 6.50727C 32 6.50728 32 6.50729 32 6.50731C 32 6.50732 32 6.50734 32 6.50735C 32 6.50737 32 6.50738 32 6.5074C 32 6.50741 32 6.50743 32 6.50744C 32 6.50746 32 6.50747 32 6.50749C 32 6.5075 32 6.50752 32 6.50753C 32 6.50755 32 6.50756 32 6.50758C 32 6.5076 32 6.50761 32 6.50763C 32 6.50764 32 6.50766 32 6.50767C 32 6.50769 32 6.50771 32 6.50772C 32 6.50774 32 6.50775 32 6.50777C 32 6.50778 32 6.5078 32 6.50782C 32 6.50783 32 6.50785 32 6.50787C 32 6.50788 32 6.5079 32 6.50792C 32 6.50793 32 6.50795 32 6.50796C 32 6.50798 32 6.508 32 6.50801C 32 6.50803 32 6.50805 32 6.50807C 32 6.50808 32 6.5081 32 6.50812C 32 6.50813 32 6.50815 32 6.50817C 32 6.50818 32 6.5082 32 6.50822C 32 6.50824 32 6.50825 32 6.50827C 32 6.50829 32 6.50831 32 6.50832C 32 6.50834 32 6.50836 32 6.50838C 32 6.50839 32 6.50841 32 6.50843C 32 6.50845 32 6.50846 32 6.50848C 32 6.5085 32 6.50852 32 6.50854C 32 6.50855 32 6.50857 32 6.50859C 32 6.50861 32 6.50863 32 6.50865C 32 6.50866 32 6.50868 32 6.5087C 32 6.50872 32 6.50874 32 6.50876C 32 6.50877 32 6.50879 32 6.50881C 32 6.50883 32 6.50885 32 6.50887C 32 6.50889 32 6.50891 32 6.50892C 32 6.50894 32 6.50896 32 6.50898C 32 6.509 32 6.50902 32 6.50904C 32 6.50906 32 6.50908 32 6.5091C 32 6.50912 32 6.50914 32 6.50915C 32 6.50917 32 6.50919 32 6.50921C 32 6.50923 32 6.50925 32 6.50927C 32 6.50929 32 6.50931 32 6.50933C 32 6.50935 32 6.50937 32 6.50939C 32 6.50941 32 6.50943 32 6.50945C 32 6.50947 32 6.50949 32 6.50951C 32 6.50953 32 6.50955 32 6.50957C 32 6.50959 32 6.50961 32 6.50963C 32 6.50965 32 6.50967 32 6.50969C 32 6.50971 32 6.50973 32 6.50975C 32 6.50977 32 6.50979 32 6.50982C 32 6.50984 32 6.50986 32 6.50988C 32 6.5099 32 6.50992 32 6.50994C 32 6.50996 32 6.50998 32 6.51C 32 6.51002 32 6.51005 32 6.51007C 32 6.51009 32 6.51011 32 6.51013C 32 6.51015 32 6.51017 32 6.51019C 32 6.51021 32 6.51024 32 6.51026C 32 6.51028 32 6.5103 32 6.51032C 32 6.51034 32 6.51037 32 6.51039C 32 6.51041 32 6.51043 32 6.51045C 32 6.51047 32 6.5105 32 6.51052C 32 6.51054 32 6.51056 32 6.51058C 32 6.5106 32 6.51063 32 6.51065C 32 6.51067 32 6.51069 32 6.51071C 32 6.51074 32 6.51076 32 6.51078C 32 6.5108 32 6.51083 32 6.51085C 32 6.51087 32 6.51089 32 6.51092C 32 6.51094 32 6.51096 32 6.51098C 32 6.51101 32 6.51103 32 6.51105C 32 6.51107 32 6.5111 32 6.51112C 32 6.51114 32 6.51116 32 6.51119C 32 6.51121 32 6.51123 32 6.51126C 32 6.51128 32 6.5113 32 6.51132C 32 6.51135 32 6.51137 32 6.51139C 32 6.51142 32 6.51144 32 6.51146C 32 6.51149 32 6.51151 32 6.51153C 32 6.51156 32 6.51158 32 6.5116C 32 6.51163 32 6.51165 32 6.51167C 32 6.5117 32 6.51172 32 6.51174C 32 6.51177 32 6.51179 32 6.51181C 32 6.51184 32 6.51186 32 6.51189C 32 6.51191 32 6.51193 32 6.51196C 32 6.51198 32 6.512 32 6.51203C 32 6.51205 32 6.51208 32 6.5121C 32 6.51212 32 6.51215 32 6.51217C 32 6.5122 32 6.51222 32 6.51224C 32 6.51227 32 6.51229 32 6.51232C 32 6.51234 32 6.51237 32 6.51239C 32 6.51241 32 6.51244 32 6.51246C 32 6.51249 32 6.51251 32 6.51254C 32 6.51256 32 6.51259 32 6.51261C 32 6.51263 32 6.51266 32 6.51268C 32 6.51271 32 6.51273 32 6.51276C 32 6.51278 32 6.51281 32 6.51283C 32 6.51286 32 6.51288 32 6.51291C 32 6.51293 32 6.51296 32 6.51298C 32 6.51301 32 6.51303 32 6.51306C 32 6.51308 32 6.51311 32 6.51313C 32 6.51316 32 6.51318 32 6.51321C 32 6.51323 32 6.51326 32 6.51328C 32 6.51331 32 6.51333 32 6.51336C 32 6.51338 32 6.51341 32 6.51343C 32 6.51346 32 6.51348 32 6.51351C 32 6.51354 32 6.51356 32 6.51359C 32 6.51361 32 6.51364 32 6.51366C 32 6.51369 32 6.51371 32 6.51374C 32 6.51377 32 6.51379 32 6.51382C 32 6.51384 32 6.51387 32 6.5139C 32 6.51392 32 6.51395 32 6.51397C 32 6.514 32 6.51402 32 6.51405C 32 6.51408 32 6.5141 32 6.51413C 32 6.51415 32 6.51418 32 6.51421C 32 6.51423 32 6.51426 32 6.51428C 32 6.51431 32 6.51434 32 6.51436C 32 6.51439 32 6.51442 32 6.51444C 32 6.51447 32 6.51449 32 6.51452C 32 6.51455 32 6.51457 32 6.5146C 32 6.51463 32 6.51465 32 6.51468C 32 6.51471 32 6.51473 32 6.51476C 32 6.51478 32 6.51481 32 6.51484C 32 6.51486 32 6.51489 32 6.51492C 32 6.51494 32 6.51497 32 6.515C 32 6.51502 32 6.51505 32 6.51508C 32 6.5151 32 6.51513 32 6.51516C 32 6.51518 32 6.51521 32 6.51524C 32 6.51526 32 6.51529 32 6.51532C 32 6.51535 32 6.51537 32 6.5154C 32 6.51543 32 6.51545 32 6.51548C 32 6.51551 32 6.51553 32 6.51556C 32 6.51559 32 6.51562 32 6.51564C 32 6.51567 32 6.5157 32 6.51572C 32 6.51575 32 6.51578 32 6.51581C 32 6.51583 32 6.51586 32 6.51589C 32 6.51591 32 6.51594 32 6.51597C 32 6.516 32 6.51602 32 6.51605C 32 6.51608 32 6.51611 32 6.51613C 32 6.51616 32 6.51619 32 6.51621C 32 6.51624 32 6.51627 32 6.5163C 32 6.51632 32 6.51635 32 6.51638C 32 6.51641 32 6.51644 32 6.51646C 32 6.51649 32 6.51652 32 6.51655C 32 6.51657 32 6.5166 32 6.51663C 32 6.51666 32 6.51668 32 6.51671C 32 6.51674 32 6.51677 32 6.51679C 32 6.51682 32 6.51685 32 6.51688C 32 6.51691 32 6.51693 32 6.51696C 32 6.51699 32 6.51702 32 6.51704C 32 6.51707 32 6.5171 32 6.51713C 32 6.51716 32 6.51718 32 6.51721C 32 6.51724 32 6.51727 32 6.5173C 32 6.51732 32 6.51735 32 6.51738C 32 6.51741 32 6.51744 32 6.51746C 32 6.51749 32 6.51752 32 6.51755C 32 6.51758 32 6.5176 32 6.51763C 32 6.51766 32 6.51769 32 6.51772C 32 6.51774 32 6.51777 32 6.5178C 32 6.51783 32 6.51786 32 6.51788C 32 6.51791 32 6.51794 32 6.51797C 32 6.518 32 6.51803 32 6.51805C 32 6.51808 32 6.51811 32 6.51814C 32 6.51817 32 6.5182 32 6.51822C 32 6.51825 32 6.51828 32 6.51831C 32 6.51834 32 6.51836 32 6.51839C 32 6.51842 32 6.51845 32 6.51848C 32 6.51851 32 6.51854 32 6.51856C 32 6.51859 32 6.51862 32 6.51865C 32 6.51868 32 6.51871 32 6.51873C 32 6.51876 32 6.51879 32 6.51882C 32 6.51885 32 6.51888 32 6.5189C 32 6.51893 32 6.51896 32 6.51899C 32 6.51902 32 6.51905 32 6.51908C 32 6.5191 32 6.51913 32 6.51916C 32 6.51919 32 6.51922 32 6.51925C 32 6.51928 32 6.5193 32 6.51933C 32 6.51936 32 6.51939 32 6.51942C 32 6.51945 32 6.51948 32 6.5195C 32 6.51953 32 6.51956 32 6.51959C 32 6.51962 32 6.51965 32 6.51968C 32 6.5197 32 6.51973 32 6.51976C 32 6.51979 32 6.51982 32 6.51985C 32 6.51988 32 6.5199 32 6.51993C 32 6.51996 32 6.51999 32 6.52002C 32 6.52005 32 6.52008 32 6.52011C 32 6.52013 32 6.52016 32 6.52019C 32 6.52022 32 6.52025 32 6.52028C 32 6.52031 32 6.52034 32 6.52036C 32 6.52039 32 6.52042 32 6.52045C 32 6.52048 32 6.52051 32 6.52054C 32 6.52057 32 6.52059 32 6.52062C 32 6.52065 32 6.52068 32 6.52071C 32 6.52074 32 6.52077 32 6.52079C 32 6.52082 32 6.52085 32 6.52088C 32 6.52091 32 6.52094 32 6.52097C 32 6.521 32 6.52102 32 6.52105C 32 6.52108 32 6.52111 32 6.52114C 32 6.52117 32 6.5212 32 6.52123C 32 6.52126 32 6.52128 32 6.52131C 32 6.52134 32 6.52137 32 6.5214C 32 6.52143 32 6.52146 32 6.52148C 32 6.52151 32 6.52154 32 6.52157C 32 6.5216 32 6.52163 32 6.52166C 32 6.52169 32 6.52172 32 6.52174C 32 6.52177 32 6.5218 32 6.52183C 32 6.52186 32 6.52189 32 6.52192C 32 6.52194 32 6.52197 32 6.522C 32 6.52203 32 6.52206 32 6.52209C 32 6.52212 32 6.52215 32 6.52217C 32 6.5222 32 6.52223 32 6.52226C 32 6.52229 32 6.52232 32 6.52235C 32 6.52238 32 6.5224 32 6.52243C 32 6.52246 32 6.52249 32 6.52252C 32 6.52255 32 6.52258 32 6.5226C 32 6.52263 32 6.52266 32 6.52269C 32 6.52272 32 6.52275 32 6.52278C 32 6.52281 32 6.52283 32 6.52286C 32 6.52289 32 6.52292 32 6.52295C 32 6.52298 32 6.52301 32 6.52303C 32 6.52306 32 6.52309 32 6.52312C 32 6.52315 32 6.52318 32 6.52321C 32 6.52323 32 6.52326 32 6.52329C 32 6.52332 32 6.52335 32 6.52338C 32 6.52341 32 6.52343 32 6.52346C 32 6.52349 32 6.52352 32 6.52355C 32 6.52358 32 6.52361 32 6.52363C 32 6.52366 32 6.52369 32 6.52372C 32 6.52375 32 6.52378 32 6.5238C 32 6.52383 32 6.52386 32 6.52389C 32 6.52392 32 6.52395 32 6.52397C 32 6.524 32 6.52403 32 6.52406C 32 6.52409 32 6.52412 32 6.52414C 32 6.52417 32 6.5242 32 6.52423C 32 6.52426 32 6.52429 32 6.52431C 32 6.52434 32 6.52437 32 6.5244C 32 6.52443 32 6.52446 32 6.52448C 32 6.52451 32 6.52454 32 6.52457C 32 6.5246 32 6.52463 32 6.52465C 32 6.52468 32 6.52471 32 6.52474C 32 6.52477 32 6.52479 32 6.52482C 32 6.52485 32 6.52488 32 6.52491C 32 6.52493 32 6.52496 32 6.52499C 32 6.52502 32 6.52505 32 6.52507C 32 6.5251 32 6.52513 32 6.52516C 32 6.52519 32 6.52521 32 6.52524C 32 6.52527 32 6.5253 32 6.52533C 32 6.52535 32 6.52538 32 6.52541C 32 6.52544 32 6.52547 32 6.52549C 32 6.52552 32 6.52555 32 6.52558C 32 6.5256 32 6.52563 32 6.52566C 32 6.52569 32 6.52572 32 6.52574C 32 6.52577 32 6.5258 32 6.52583C 32 6.52585 32 6.52588 32 6.52591C 32 6.52594 32 6.52596 32 6.52599C 32 6.52602 32 6.52605 32 6.52607C 32 6.5261 32 6.52613 32 6.52616C 32 6.52618 32 6.52621 32 6.52624C 32 6.52627 32 6.52629 32 6.52632C 32 6.52635 32 6.52638 32 6.5264C 32 6.52643 32 6.52646 32 6.52649C 32 6.52651 32 6.52654 32 6.52657C 32 6.5266 32 6.52662 32 6.52665C 32 6.52668 32 6.5267 32 6.52673C 32 6.52676 32 6.52679 32 6.52681C 32 6.52684 32 6.52687 32 6.52689C 32 6.52692 32 6.52695 32 6.52698C 32 6.527 32 6.52703 32 6.52706C 32 6.52708 32 6.52711 32 6.52714C 32 6.52716 32 6.52719 32 6.52722C 32 6.52724 32 6.52727 32 6.5273C 32 6.52733 32 6.52735 32 6.52738C 32 6.52741 32 6.52743 32 6.52746C 32 6.52749 32 6.52751 32 6.52754C 32 6.52757 32 6.52759 32 6.52762C 32 6.52765 32 6.52767 32 6.5277C 32 6.52772 32 6.52775 32 6.52778C 32 6.5278 32 6.52783 32 6.52786C 32 6.52788 32 6.52791 32 6.52794C 32 6.52796 32 6.52799 32 6.52802C 32 6.52804 32 6.52807 32 6.52809C 32 6.52812 32 6.52815 32 6.52817C 32 6.5282 32 6.52822 32 6.52825C 32 6.52828 32 6.5283 32 6.52833C 32 6.52836 32 6.52838 32 6.52841C 32 6.52843 32 6.52846 32 6.52849C 32 6.52851 32 6.52854 32 6.52856C 32 6.52859 32 6.52861 32 6.52864C 32 6.52867 32 6.52869 32 6.52872C 32 6.52874 32 6.52877 32 6.52879C 32 6.52882 32 6.52885 32 6.52887C 32 6.5289 32 6.52892 32 6.52895C 32 6.52897 32 6.529 32 6.52902C 32 6.52905 32 6.52908 32 6.5291C 32 6.52913 32 6.52915 32 6.52918C 32 6.5292 32 6.52923 32 6.52925C 32 6.52928 32 6.5293 32 6.52933C 32 6.52935 32 6.52938 32 6.5294C 32 6.52943 32 6.52945 32 6.52948C 32 6.5295 32 6.52953 32 6.52955C 32 6.52958 32 6.5296 32 6.52963C 32 6.52965 32 6.52968 32 6.5297C 32 6.52973 32 6.52975 32 6.52978C 32 6.5298 32 6.52983 32 6.52985C 32 6.52988 32 6.5299 32 6.52992C 32 6.52995 32 6.52997 32 6.53C 32 6.53002 32 6.53005 32 6.53007C 32 6.5301 32 6.53012 32 6.53014C 32 6.53017 32 6.53019 32 6.53022C 32 6.53024 32 6.53026 32 6.53029C 32 6.53031 32 6.53034 32 6.53036C 32 6.53039 32 6.53041 32 6.53043C 32 6.53046 32 6.53048 32 6.53051C 32 6.53053 32 6.53055 32 6.53058C 32 6.5306 32 6.53062 32 6.53065C 32 6.53067 32 6.53069 32 6.53072C 32 6.53074 32 6.53077 32 6.53079C 32 6.53081 32 6.53084 32 6.53086C 32 6.53088 32 6.53091 32 6.53093C 32 6.53095 32 6.53098 32 6.531C 32 6.53102 32 6.53105 32 6.53107C 32 6.53109 32 6.53112 32 6.53114C 32 6.53116 32 6.53118 32 6.53121C 32 6.53123 32 6.53125 32 6.53128C 32 6.5313 32 6.53132 32 6.53134C 32 6.53137 32 6.53139 32 6.53141C 32 6.53144 32 6.53146 32 6.53148C 32 6.5315 32 6.53153 32 6.53155C 32 6.53157 32 6.53159 32 6.53162C 32 6.53164 32 6.53166 32 6.53168C 32 6.53171 32 6.53173 32 6.53175C 32 6.53177 32 6.53179 32 6.53182C 32 6.53184 32 6.53186 32 6.53188C 32 6.5319 32 6.53193 32 6.53195C 32 6.53197 32 6.53199 32 6.53201C 32 6.53204 32 6.53206 32 6.53208C 32 6.5321 32 6.53212 32 6.53214C 32 6.53217 32 6.53219 32 6.53221C 32 6.53223 32 6.53225 32 6.53227C 32 6.53229 32 6.53232 32 6.53234C 32 6.53236 32 6.53238 32 6.5324C 32 6.53242 32 6.53244 32 6.53246C 32 6.53248 32 6.53251 32 6.53253C 32 6.53255 32 6.53257 32 6.53259C 32 6.53261 32 6.53263 32 6.53265C 32 6.53267 32 6.53269 32 6.53271C 32 6.53273 32 6.53275 32 6.53278C 32 6.5328 32 6.53282 32 6.53284C 32 6.53286 32 6.53288 32 6.5329C 32 6.53292 32 6.53294 32 6.53296C 32 6.53298 32 6.533 32 6.53302C 32 6.53304 32 6.53306 32 6.53308C 32 6.5331 32 6.53312 32 6.53314C 32 6.53316 32 6.53318 32 6.5332C 32 6.53322 32 6.53324 32 6.53326C 32 6.53328 32 6.5333 32 6.53332C 32 6.53333 32 6.53335 32 6.53337C 32 6.53339 32 6.53341 32 6.53343C 32 6.53345 32 6.53347 32 6.53349C 32 6.53351 32 6.53353 32 6.53355C 32 6.53357 32 6.53358 32 6.5336C 32 6.53362 32 6.53364 32 6.53366C 32 6.53368 32 6.5337 32 6.53372C 32 6.53373 32 6.53375 32 6.53377C 32 6.53379 32 6.53381 32 6.53383C 32 6.53384 32 6.53386 32 6.53388C 32 6.5339 32 6.53392 32 6.53394C 32 6.53395 32 6.53397 32 6.53399C 32 6.53401 32 6.53403 32 6.53404C 32 6.53406 32 6.53408 32 6.5341C 32 6.53411 32 6.53413 32 6.53415C 32 6.53417 32 6.53418 32 6.5342C 32 6.53422 32 6.53424 32 6.53425C 32 6.53427 32 6.53429 32 6.53431C 32 6.53432 32 6.53434 32 6.53436C 32 6.53438 32 6.53439 32 6.53441C 32 6.53443 32 6.53444 32 6.53446C 32 6.53448 32 6.53449 32 6.53451C 32 6.53453 32 6.53454 32 6.53456C 32 6.53458 32 6.53459 32 6.53461C 32 6.53463 32 6.53464 32 6.53466C 32 6.53467 32 6.53469 32 6.53471C 32 6.53472 32 6.53474 32 6.53475C 32 6.53477 32 6.53479 32 6.5348C 32 6.53482 32 6.53483 32 6.53485C 32 6.53487 32 6.53488 32 6.5349C 32 6.53491 32 6.53493 32 6.53494C 32 6.53496 32 6.53497 32 6.53499C 32 6.535 32 6.53502 32 6.53504C 32 6.53505 32 6.53507 32 6.53508C 32 6.5351 32 6.53511 32 6.53513C 32 6.53514 32 6.53515 32 6.53517C 32 6.53518 32 6.5352 32 6.53521C 32 6.53523 32 6.53524 32 6.53526C 32 6.53527 32 6.53529 32 6.5353C 32 6.53531 32 6.53533 32 6.53534C 32 6.53536 32 6.53537 32 6.53538C 32 6.5354 32 6.53541 32 6.53543C 32 6.53544 32 6.53545 32 6.53547C 32 6.53548 32 6.53549 32 6.53551C 32 6.53552 32 6.53554 32 6.53555C 32 6.53556 32 6.53558 32 6.53559C 32 6.5356 32 6.53561 32 6.53563C 32 6.53564 32 6.53565 32 6.53567C 32 6.53568 32 6.53569 32 6.53571C 32 6.53572 32 6.53573 32 6.53574C 32 6.53576 32 6.53577 32 6.53578C 32 6.53579 32 6.53581 32 6.53582C 32 6.53583 32 6.53584 32 6.53585C 32 6.53587 32 6.53588 32 6.53589C 32 6.5359 32 6.53591 32 6.53593C 32 6.53594 32 6.53595 32 6.53596C 32 6.53597 32 6.53598 32 6.536C 32 6.53601 32 6.53602 32 6.53603C 32 6.53604 32 6.53605 32 6.53606C 32 6.53608 32 6.53609 32 6.5361C 32 6.53611 32 6.53612 32 6.53613C 32 6.53614 32 6.53615 32 6.53616C 32 6.53617 32 6.53618 32 6.53619C 32 6.5362 32 6.53621 32 6.53623C 32 6.53624 32 6.53625 32 6.53626C 32 6.53627 32 6.53628 32 6.53629C 32 6.5363 32 6.53631 32 6.53632C 32 6.53633 32 6.53634 32 6.53635C 32 6.53636 32 6.53636 32 6.53637C 32 6.53638 32 6.53639 32 6.5364C 32 6.53641 32 6.53642 32 6.53643C 32 6.53644 32 6.53645 32 6.53646C 32 6.53647 32 6.53647 32 6.53648C 32 6.53649 32 6.5365 32 6.53651C 32 6.53652 32 6.53653 32 6.53654C 32 6.53654 32 6.53655 32 6.53656C 32 6.53657 32 6.53658 32 6.53658C 32 6.53659 32 6.5366 32 6.53661C 32 6.53662 32 6.53662 32 6.53663C 32 6.53664 32 6.53665 32 6.53666C 32 6.53666 32 6.53667 32 6.53668C 32 6.53668 32 6.53669 32 6.5367C 32 6.53671 32 6.53671 32 6.53672C 32 6.53673 32 6.53674 32 6.53674C 32 6.53675 32 6.53676 32 6.53676C 32 6.53677 32 6.53678 32 6.53678C 32 6.53679 32 6.53679 32 6.5368C 32 6.53681 32 6.53681 32 6.53682C 32 6.53683 32 6.53683 32 6.53684C 32 6.53684 32 6.53685 32 6.53685C 32 6.53686 32 6.53687 32 6.53687C 32 6.53688 32 6.53688 32 6.53689C 32 6.53689 32 6.5369 32 6.5369C 32 6.53691 32 6.53691 32 6.53692C 32 6.53692 32 6.53693 32 6.53693C 32 6.53694 32 6.53694 32 6.53695C 32 6.53695 32 6.53696 32 6.53696C 32 6.53697 32 6.53697 32 6.53697C 32 6.53698 32 6.53698 32 6.53699C 32 6.53699 32 6.53699 32 6.537C 32 6.537 32 6.53701 32 6.53701C 32 6.53701 32 6.53702 32 6.53702C 32 6.53702 32 6.53703 32 6.53703C 32 6.53703 32 6.53704 32 6.53704C 32 6.53704 32 6.53705 32 6.53705C 32 6.53705 32 6.53705 32 6.53706C 32 6.53706 32 6.53706 32 6.53706C 32 6.53707 32 6.53707 32 6.53707C 32 6.53707 32 6.53708 32 6.53708C 32 6.53708 32 6.53708 32 6.53708C 32 6.53709 32 6.53709 32 6.53709C 32 6.53709 32 6.53709 32 6.53709C 32 6.5371 32 6.5371 32 6.5371C 32 6.5371 32 6.5371 32 6.5371C 32 6.5371 32 6.5371 32 6.5371C 32 6.5371 32 6.53711 32 6.53711C 32 6.53711 32 6.53711 32 6.53711C 32 6.53711 32 6.53711 32 6.53711C 32 6.53711 32 6.53711 33 6.53711C 34 6.53711 34 6.53711 34 6.53711C 34 6.53711 34 6.53711 34 6.53711C 34 6.53711 34 6.53711 34 6.53711C 34 6.53711 34 6.5371 34 6.5371C 34 6.5371 34 6.5371 34 6.5371C 34 6.5371 34 6.5371 34 6.5371C 34 6.5371 34 6.5371 34 6.53709C 34 6.53709 34 6.53709 34 6.53709C 34 6.53709 34 6.53709 34 6.53708C 34 6.53708 34 6.53708 34 6.53708C 34 6.53708 34 6.53707 34 6.53707C 34 6.53707 34 6.53707 34 6.53706C 34 6.53706 34 6.53706 34 6.53706C 34 6.53705 34 6.53705 34 6.53705C 34 6.53705 34 6.53704 34 6.53704C 34 6.53704 34 6.53703 34 6.53703C 34 6.53703 34 6.53702 34 6.53702C 34 6.53702 34 6.53701 34 6.53701C 34 6.53701 34 6.537 34 6.537C 34 6.53699 34 6.53699 34 6.53699C 34 6.53698 34 6.53698 34 6.53697C 34 6.53697 34 6.53697 34 6.53696C 34 6.53696 34 6.53695 34 6.53695C 34 6.53694 34 6.53694 34 6.53693C 34 6.53693 34 6.53692 34 6.53692C 34 6.53691 34 6.53691 34 6.5369C 34 6.5369 34 6.53689 34 6.53689C 34 6.53688 34 6.53688 34 6.53687C 34 6.53687 34 6.53686 34 6.53685C 34 6.53685 34 6.53684 34 6.53684C 34 6.53683 34 6.53683 34 6.53682C 34 6.53681 34 6.53681 34 6.5368C 34 6.53679 34 6.53679 34 6.53678C 34 6.53678 34 6.53677 34 6.53676C 34 6.53676 34 6.53675 34 6.53674C 34 6.53674 34 6.53673 34 6.53672C 34 6.53671 34 6.53671 34 6.5367C 34 6.53669 34 6.53668 34 6.53668C 34 6.53667 34 6.53666 34 6.53666C 34 6.53665 34 6.53664 34 6.53663C 34 6.53662 34 6.53662 34 6.53661C 34 6.5366 34 6.53659 34 6.53658C 34 6.53658 34 6.53657 34 6.53656C 34 6.53655 34 6.53654 34 6.53654C 34 6.53653 34 6.53652 34 6.53651C 34 6.5365 34 6.53649 34 6.53648C 34 6.53647 34 6.53647 34 6.53646C 34 6.53645 34 6.53644 34 6.53643C 34 6.53642 34 6.53641 34 6.5364C 34 6.53639 34 6.53638 34 6.53637C 34 6.53636 34 6.53636 34 6.53635C 34 6.53634 34 6.53633 34 6.53632C 34 6.53631 34 6.5363 34 6.53629C 34 6.53628 34 6.53627 34 6.53626C 34 6.53625 34 6.53624 34 6.53623C 34 6.53621 34 6.5362 34 6.53619C 34 6.53618 34 6.53617 34 6.53616C 34 6.53615 34 6.53614 34 6.53613C 34 6.53612 34 6.53611 34 6.5361C 34 6.53609 34 6.53608 34 6.53606C 34 6.53605 34 6.53604 34 6.53603C 34 6.53602 34 6.53601 34 6.536C 34 6.53598 34 6.53597 34 6.53596C 34 6.53595 34 6.53594 34 6.53593C 34 6.53591 34 6.5359 34 6.53589C 34 6.53588 34 6.53587 34 6.53585C 34 6.53584 34 6.53583 34 6.53582C 34 6.53581 34 6.53579 34 6.53578C 34 6.53577 34 6.53576 34 6.53574C 34 6.53573 34 6.53572 34 6.53571C 34 6.53569 34 6.53568 34 6.53567C 34 6.53565 34 6.53564 34 6.53563C 34 6.53561 34 6.5356 34 6.53559C 34 6.53558 34 6.53556 34 6.53555C 34 6.53554 34 6.53552 34 6.53551C 34 6.53549 34 6.53548 34 6.53547C 34 6.53545 34 6.53544 34 6.53543C 34 6.53541 34 6.5354 34 6.53538C 34 6.53537 34 6.53536 34 6.53534C 34 6.53533 34 6.53531 34 6.5353C 34 6.53529 34 6.53527 34 6.53526C 34 6.53524 34 6.53523 34 6.53521C 34 6.5352 34 6.53518 34 6.53517C 34 6.53515 34 6.53514 34 6.53513C 34 6.53511 34 6.5351 34 6.53508C 34 6.53507 34 6.53505 34 6.53504C 34 6.53502 34 6.535 34 6.53499C 34 6.53497 34 6.53496 34 6.53494C 34 6.53493 34 6.53491 34 6.5349C 34 6.53488 34 6.53487 34 6.53485C 34 6.53483 34 6.53482 34 6.5348C 34 6.53479 34 6.53477 34 6.53475C 34 6.53474 34 6.53472 34 6.53471C 34 6.53469 34 6.53467 34 6.53466C 34 6.53464 34 6.53463 34 6.53461C 34 6.53459 34 6.53458 34 6.53456C 34 6.53454 34 6.53453 34 6.53451C 34 6.53449 34 6.53448 34 6.53446C 34 6.53444 34 6.53443 34 6.53441C 34 6.53439 34 6.53438 34 6.53436C 34 6.53434 34 6.53432 34 6.53431C 34 6.53429 34 6.53427 34 6.53425C 34 6.53424 34 6.53422 34 6.5342C 34 6.53418 34 6.53417 34 6.53415C 34 6.53413 34 6.53411 34 6.5341C 34 6.53408 34 6.53406 34 6.53404C 34 6.53403 34 6.53401 34 6.53399C 34 6.53397 34 6.53395 34 6.53394C 34 6.53392 34 6.5339 34 6.53388C 34 6.53386 34 6.53384 34 6.53383C 34 6.53381 34 6.53379 34 6.53377C 34 6.53375 34 6.53373 34 6.53372C 34 6.5337 34 6.53368 34 6.53366C 34 6.53364 34 6.53362 34 6.5336C 34 6.53358 34 6.53357 34 6.53355C 34 6.53353 34 6.53351 34 6.53349C 34 6.53347 34 6.53345 34 6.53343C 34 6.53341 34 6.53339 34 6.53337C 34 6.53335 34 6.53333 34 6.53332C 34 6.5333 34 6.53328 34 6.53326C 34 6.53324 34 6.53322 34 6.5332C 34 6.53318 34 6.53316 34 6.53314C 34 6.53312 34 6.5331 34 6.53308C 34 6.53306 34 6.53304 34 6.53302C 34 6.533 34 6.53298 34 6.53296C 34 6.53294 34 6.53292 34 6.5329C 34 6.53288 34 6.53286 34 6.53284C 34 6.53282 34 6.5328 34 6.53278C 34 6.53275 34 6.53273 34 6.53271C 34 6.53269 34 6.53267 34 6.53265C 34 6.53263 34 6.53261 34 6.53259C 34 6.53257 34 6.53255 34 6.53253C 34 6.53251 34 6.53248 34 6.53246C 34 6.53244 34 6.53242 34 6.5324C 34 6.53238 34 6.53236 34 6.53234C 34 6.53232 34 6.53229 34 6.53227C 34 6.53225 34 6.53223 34 6.53221C 34 6.53219 34 6.53217 34 6.53214C 34 6.53212 34 6.5321 34 6.53208C 34 6.53206 34 6.53204 34 6.53201C 34 6.53199 34 6.53197 34 6.53195C 34 6.53193 34 6.5319 34 6.53188C 34 6.53186 34 6.53184 34 6.53182C 34 6.53179 34 6.53177 34 6.53175C 34 6.53173 34 6.53171 34 6.53168C 34 6.53166 34 6.53164 34 6.53162C 34 6.53159 34 6.53157 34 6.53155C 34 6.53153 34 6.5315 34 6.53148C 34 6.53146 34 6.53144 34 6.53141C 34 6.53139 34 6.53137 34 6.53134C 34 6.53132 34 6.5313 34 6.53128C 34 6.53125 34 6.53123 34 6.53121C 34 6.53118 34 6.53116 34 6.53114C 34 6.53112 34 6.53109 34 6.53107C 34 6.53105 34 6.53102 34 6.531C 34 6.53098 34 6.53095 34 6.53093C 34 6.53091 34 6.53088 34 6.53086C 34 6.53084 34 6.53081 34 6.53079C 34 6.53077 34 6.53074 34 6.53072C 34 6.53069 34 6.53067 34 6.53065C 34 6.53062 34 6.5306 34 6.53058C 34 6.53055 34 6.53053 34 6.53051C 34 6.53048 34 6.53046 34 6.53043C 34 6.53041 34 6.53039 34 6.53036C 34 6.53034 34 6.53031 34 6.53029C 34 6.53026 34 6.53024 34 6.53022C 34 6.53019 34 6.53017 34 6.53014C 34 6.53012 34 6.5301 34 6.53007C 34 6.53005 34 6.53002 34 6.53C 34 6.52997 34 6.52995 34 6.52992C 34 6.5299 34 6.52988 34 6.52985C 34 6.52983 34 6.5298 34 6.52978C 34 6.52975 34 6.52973 34 6.5297C 34 6.52968 34 6.52965 34 6.52963C 34 6.5296 34 6.52958 34 6.52955C 34 6.52953 34 6.5295 34 6.52948C 34 6.52945 34 6.52943 34 6.5294C 34 6.52938 34 6.52935 34 6.52933C 34 6.5293 34 6.52928 34 6.52925C 34 6.52923 34 6.5292 34 6.52918C 34 6.52915 34 6.52913 34 6.5291C 34 6.52908 34 6.52905 34 6.52902C 34 6.529 34 6.52897 34 6.52895C 34 6.52892 34 6.5289 34 6.52887C 34 6.52885 34 6.52882 34 6.52879C 34 6.52877 34 6.52874 34 6.52872C 34 6.52869 34 6.52867 34 6.52864C 34 6.52861 34 6.52859 34 6.52856C 34 6.52854 34 6.52851 34 6.52849C 34 6.52846 34 6.52843 34 6.52841C 34 6.52838 34 6.52836 34 6.52833C 34 6.5283 34 6.52828 34 6.52825C 34 6.52822 34 6.5282 34 6.52817C 34 6.52815 34 6.52812 34 6.52809C 34 6.52807 34 6.52804 34 6.52802C 34 6.52799 34 6.52796 34 6.52794C 34 6.52791 34 6.52788 34 6.52786C 34 6.52783 34 6.5278 34 6.52778C 34 6.52775 34 6.52772 34 6.5277C 34 6.52767 34 6.52765 34 6.52762C 34 6.52759 34 6.52757 34 6.52754C 34 6.52751 34 6.52749 34 6.52746C 34 6.52743 34 6.52741 34 6.52738C 34 6.52735 34 6.52733 34 6.5273C 34 6.52727 34 6.52724 34 6.52722C 34 6.52719 34 6.52716 34 6.52714C 34 6.52711 34 6.52708 34 6.52706C 34 6.52703 34 6.527 34 6.52698C 34 6.52695 34 6.52692 34 6.52689C 34 6.52687 34 6.52684 34 6.52681C 34 6.52679 34 6.52676 34 6.52673C 34 6.5267 34 6.52668 34 6.52665C 34 6.52662 34 6.5266 34 6.52657C 34 6.52654 34 6.52651 34 6.52649C 34 6.52646 34 6.52643 34 6.5264C 34 6.52638 34 6.52635 34 6.52632C 34 6.52629 34 6.52627 34 6.52624C 34 6.52621 34 6.52618 34 6.52616C 34 6.52613 34 6.5261 34 6.52607C 34 6.52605 34 6.52602 34 6.52599C 34 6.52596 34 6.52594 34 6.52591C 34 6.52588 34 6.52585 34 6.52583C 34 6.5258 34 6.52577 34 6.52574C 34 6.52572 34 6.52569 34 6.52566C 34 6.52563 34 6.5256 34 6.52558C 34 6.52555 34 6.52552 34 6.52549C 34 6.52547 34 6.52544 34 6.52541C 34 6.52538 34 6.52535 34 6.52533C 34 6.5253 34 6.52527 34 6.52524C 34 6.52521 34 6.52519 34 6.52516C 34 6.52513 34 6.5251 34 6.52507C 34 6.52505 34 6.52502 34 6.52499C 34 6.52496 34 6.52493 34 6.52491C 34 6.52488 34 6.52485 34 6.52482C 34 6.52479 34 6.52477 34 6.52474C 34 6.52471 34 6.52468 34 6.52465C 34 6.52463 34 6.5246 34 6.52457C 34 6.52454 34 6.52451 34 6.52448C 34 6.52446 34 6.52443 34 6.5244C 34 6.52437 34 6.52434 34 6.52431C 34 6.52429 34 6.52426 34 6.52423C 34 6.5242 34 6.52417 34 6.52414C 34 6.52412 34 6.52409 34 6.52406C 34 6.52403 34 6.524 34 6.52397C 34 6.52395 34 6.52392 34 6.52389C 34 6.52386 34 6.52383 34 6.5238C 34 6.52378 34 6.52375 34 6.52372C 34 6.52369 34 6.52366 34 6.52363C 34 6.52361 34 6.52358 34 6.52355C 34 6.52352 34 6.52349 34 6.52346C 34 6.52343 34 6.52341 34 6.52338C 34 6.52335 34 6.52332 34 6.52329C 34 6.52326 34 6.52323 34 6.52321C 34 6.52318 34 6.52315 34 6.52312C 34 6.52309 34 6.52306 34 6.52303C 34 6.52301 34 6.52298 34 6.52295C 34 6.52292 34 6.52289 34 6.52286C 34 6.52283 34 6.52281 34 6.52278C 34 6.52275 34 6.52272 34 6.52269C 34 6.52266 34 6.52263 34 6.5226C 34 6.52258 34 6.52255 34 6.52252C 34 6.52249 34 6.52246 34 6.52243C 34 6.5224 34 6.52238 34 6.52235C 34 6.52232 34 6.52229 34 6.52226C 34 6.52223 34 6.5222 34 6.52217C 34 6.52215 34 6.52212 34 6.52209C 34 6.52206 34 6.52203 34 6.522C 34 6.52197 34 6.52194 34 6.52192C 34 6.52189 34 6.52186 34 6.52183C 34 6.5218 34 6.52177 34 6.52174C 34 6.52172 34 6.52169 34 6.52166C 34 6.52163 34 6.5216 34 6.52157C 34 6.52154 34 6.52151 34 6.52148C 34 6.52146 34 6.52143 34 6.5214C 34 6.52137 34 6.52134 34 6.52131C 34 6.52128 34 6.52126 34 6.52123C 34 6.5212 34 6.52117 34 6.52114C 34 6.52111 34 6.52108 34 6.52105C 34 6.52102 34 6.521 34 6.52097C 34 6.52094 34 6.52091 34 6.52088C 34 6.52085 34 6.52082 34 6.52079C 34 6.52077 34 6.52074 34 6.52071C 34 6.52068 34 6.52065 34 6.52062C 34 6.52059 34 6.52057 34 6.52054C 34 6.52051 34 6.52048 34 6.52045C 34 6.52042 34 6.52039 34 6.52036C 34 6.52034 34 6.52031 34 6.52028C 34 6.52025 34 6.52022 34 6.52019C 34 6.52016 34 6.52013 34 6.52011C 34 6.52008 34 6.52005 34 6.52002C 34 6.51999 34 6.51996 34 6.51993C 34 6.5199 34 6.51988 34 6.51985C 34 6.51982 34 6.51979 34 6.51976C 34 6.51973 34 6.5197 34 6.51968C 34 6.51965 34 6.51962 34 6.51959C 34 6.51956 34 6.51953 34 6.5195C 34 6.51948 34 6.51945 34 6.51942C 34 6.51939 34 6.51936 34 6.51933C 34 6.5193 34 6.51928 34 6.51925C 34 6.51922 34 6.51919 34 6.51916C 34 6.51913 34 6.5191 34 6.51908C 34 6.51905 34 6.51902 34 6.51899C 34 6.51896 34 6.51893 34 6.5189C 34 6.51888 34 6.51885 34 6.51882C 34 6.51879 34 6.51876 34 6.51873C 34 6.51871 34 6.51868 34 6.51865C 34 6.51862 34 6.51859 34 6.51856C 34 6.51854 34 6.51851 34 6.51848C 34 6.51845 34 6.51842 34 6.51839C 34 6.51836 34 6.51834 34 6.51831C 34 6.51828 34 6.51825 34 6.51822C 34 6.5182 34 6.51817 34 6.51814C 34 6.51811 34 6.51808 34 6.51805C 34 6.51803 34 6.518 34 6.51797C 34 6.51794 34 6.51791 34 6.51788C 34 6.51786 34 6.51783 34 6.5178C 34 6.51777 34 6.51774 34 6.51772C 34 6.51769 34 6.51766 34 6.51763C 34 6.5176 34 6.51758 34 6.51755C 34 6.51752 34 6.51749 34 6.51746C 34 6.51744 34 6.51741 34 6.51738C 34 6.51735 34 6.51732 34 6.5173C 34 6.51727 34 6.51724 34 6.51721C 34 6.51718 34 6.51716 34 6.51713C 34 6.5171 34 6.51707 34 6.51704C 34 6.51702 34 6.51699 34 6.51696C 34 6.51693 34 6.51691 34 6.51688C 34 6.51685 34 6.51682 34 6.51679C 34 6.51677 34 6.51674 34 6.51671C 34 6.51668 34 6.51666 34 6.51663C 34 6.5166 34 6.51657 34 6.51655C 34 6.51652 34 6.51649 34 6.51646C 34 6.51644 34 6.51641 34 6.51638C 34 6.51635 34 6.51632 34 6.5163C 34 6.51627 34 6.51624 34 6.51621C 34 6.51619 34 6.51616 34 6.51613C 34 6.51611 34 6.51608 34 6.51605C 34 6.51602 34 6.516 34 6.51597C 34 6.51594 34 6.51591 34 6.51589C 34 6.51586 34 6.51583 34 6.51581C 34 6.51578 34 6.51575 34 6.51572C 34 6.5157 34 6.51567 34 6.51564C 34 6.51562 34 6.51559 34 6.51556C 34 6.51553 34 6.51551 34 6.51548C 34 6.51545 34 6.51543 34 6.5154C 34 6.51537 34 6.51535 34 6.51532C 34 6.51529 34 6.51526 34 6.51524C 34 6.51521 34 6.51518 34 6.51516C 34 6.51513 34 6.5151 34 6.51508C 34 6.51505 34 6.51502 34 6.515C 34 6.51497 34 6.51494 34 6.51492C 34 6.51489 34 6.51486 34 6.51484C 34 6.51481 34 6.51478 34 6.51476C 34 6.51473 34 6.51471 34 6.51468C 34 6.51465 34 6.51463 34 6.5146C 34 6.51457 34 6.51455 34 6.51452C 34 6.51449 34 6.51447 34 6.51444C 34 6.51442 34 6.51439 34 6.51436C 34 6.51434 34 6.51431 34 6.51428C 34 6.51426 34 6.51423 34 6.51421C 34 6.51418 34 6.51415 34 6.51413C 34 6.5141 34 6.51408 34 6.51405C 34 6.51402 34 6.514 34 6.51397C 34 6.51395 34 6.51392 34 6.5139C 34 6.51387 34 6.51384 34 6.51382C 34 6.51379 34 6.51377 34 6.51374C 34 6.51371 34 6.51369 34 6.51366C 34 6.51364 34 6.51361 34 6.51359C 34 6.51356 34 6.51354 34 6.51351C 34 6.51348 34 6.51346 34 6.51343C 34 6.51341 34 6.51338 34 6.51336C 34 6.51333 34 6.51331 34 6.51328C 34 6.51326 34 6.51323 34 6.51321C 34 6.51318 34 6.51316 34 6.51313C 34 6.51311 34 6.51308 34 6.51306C 34 6.51303 34 6.51301 34 6.51298C 34 6.51296 34 6.51293 34 6.51291C 34 6.51288 34 6.51286 34 6.51283C 34 6.51281 34 6.51278 34 6.51276C 34 6.51273 34 6.51271 34 6.51268C 34 6.51266 34 6.51263 34 6.51261C 34 6.51259 34 6.51256 34 6.51254C 34 6.51251 34 6.51249 34 6.51246C 34 6.51244 34 6.51241 34 6.51239C 34 6.51237 34 6.51234 34 6.51232C 34 6.51229 34 6.51227 34 6.51224C 34 6.51222 34 6.5122 34 6.51217C 34 6.51215 34 6.51212 34 6.5121C 34 6.51208 34 6.51205 34 6.51203C 34 6.512 34 6.51198 34 6.51196C 34 6.51193 34 6.51191 34 6.51189C 34 6.51186 34 6.51184 34 6.51181C 34 6.51179 34 6.51177 34 6.51174C 34 6.51172 34 6.5117 34 6.51167C 34 6.51165 34 6.51163 34 6.5116C 34 6.51158 34 6.51156 34 6.51153C 34 6.51151 34 6.51149 34 6.51146C 34 6.51144 34 6.51142 34 6.51139C 34 6.51137 34 6.51135 34 6.51132C 34 6.5113 34 6.51128 34 6.51126C 34 6.51123 34 6.51121 34 6.51119C 34 6.51116 34 6.51114 34 6.51112C 34 6.5111 34 6.51107 34 6.51105C 34 6.51103 34 6.51101 34 6.51098C 34 6.51096 34 6.51094 34 6.51092C 34 6.51089 34 6.51087 34 6.51085C 34 6.51083 34 6.5108 34 6.51078C 34 6.51076 34 6.51074 34 6.51071C 34 6.51069 34 6.51067 34 6.51065C 34 6.51063 34 6.5106 34 6.51058C 34 6.51056 34 6.51054 34 6.51052C 34 6.5105 34 6.51047 34 6.51045C 34 6.51043 34 6.51041 34 6.51039C 34 6.51037 34 6.51034 34 6.51032C 34 6.5103 34 6.51028 34 6.51026C 34 6.51024 34 6.51021 34 6.51019C 34 6.51017 34 6.51015 34 6.51013C 34 6.51011 34 6.51009 34 6.51007C 34 6.51005 34 6.51002 34 6.51C 34 6.50998 34 6.50996 34 6.50994C 34 6.50992 34 6.5099 34 6.50988C 34 6.50986 34 6.50984 34 6.50982C 34 6.50979 34 6.50977 34 6.50975C 34 6.50973 34 6.50971 34 6.50969C 34 6.50967 34 6.50965 34 6.50963C 34 6.50961 34 6.50959 34 6.50957C 34 6.50955 34 6.50953 34 6.50951C 34 6.50949 34 6.50947 34 6.50945C 34 6.50943 34 6.50941 34 6.50939C 34 6.50937 34 6.50935 34 6.50933C 34 6.50931 34 6.50929 34 6.50927C 34 6.50925 34 6.50923 34 6.50921C 34 6.50919 34 6.50917 34 6.50915C 34 6.50914 34 6.50912 34 6.5091C 34 6.50908 34 6.50906 34 6.50904C 34 6.50902 34 6.509 34 6.50898C 34 6.50896 34 6.50894 34 6.50892C 34 6.50891 34 6.50889 34 6.50887C 34 6.50885 34 6.50883 34 6.50881C 34 6.50879 34 6.50877 34 6.50876C 34 6.50874 34 6.50872 34 6.5087C 34 6.50868 34 6.50866 34 6.50865C 34 6.50863 34 6.50861 34 6.50859C 34 6.50857 34 6.50855 34 6.50854C 34 6.50852 34 6.5085 34 6.50848C 34 6.50846 34 6.50845 34 6.50843C 34 6.50841 34 6.50839 34 6.50838C 34 6.50836 34 6.50834 34 6.50832C 34 6.50831 34 6.50829 34 6.50827C 34 6.50825 34 6.50824 34 6.50822C 34 6.5082 34 6.50818 34 6.50817C 34 6.50815 34 6.50813 34 6.50812C 34 6.5081 34 6.50808 34 6.50807C 34 6.50805 34 6.50803 34 6.50801C 34 6.508 34 6.50798 34 6.50796C 34 6.50795 34 6.50793 34 6.50792C 34 6.5079 34 6.50788 34 6.50787C 34 6.50785 34 6.50783 34 6.50782C 34 6.5078 34 6.50778 34 6.50777C 34 6.50775 34 6.50774 34 6.50772C 34 6.50771 34 6.50769 34 6.50767C 34 6.50766 34 6.50764 34 6.50763C 34 6.50761 34 6.5076 34 6.50758C 34 6.50756 34 6.50755 34 6.50753C 34 6.50752 34 6.5075 34 6.50749C 34 6.50747 34 6.50746 34 6.50744C 34 6.50743 34 6.50741 34 6.5074C 34 6.50738 34 6.50737 34 6.50735C 34 6.50734 34 6.50732 34 6.50731C 34 6.50729 34 6.50728 34 6.50727C 34 6.50725 34 6.50724 34 6.50722C 34 6.50721 34 6.50719 34 6.50718C 34 6.50716 34 6.50715 34 6.50714C 34 6.50712 34 6.50711 34 6.5071C 34 6.50708 34 6.50707 34 6.50705C 34 6.50704 34 6.50703 34 6.50701C 34 6.507 34 6.50699 34 6.50697C 34 6.50696 34 6.50695 34 6.50693C 34 6.50692 34 6.50691 34 6.50689C 34 6.50688 34 6.50687 34 6.50685C 34 6.50684 34 6.50683 34 6.50681C 34 6.5068 34 6.50679 34 6.50678C 34 6.50676 34 6.50675 34 6.50674C 34 6.50673 34 6.50671 34 6.5067C 34 6.50669 34 6.50668 34 6.50666C 34 6.50665 34 6.50664 34 6.50663C 34 6.50662 34 6.5066 34 6.50659C 34 6.50658 34 6.50657 34 6.50656C 34 6.50655 34 6.50653 34 6.50652C 34 6.50651 34 6.5065 34 6.50649C 34 6.50648 34 6.50647 34 6.50645C 34 6.50644 34 6.50643 34 6.50642C 34 6.50641 34 6.5064 34 6.50639C 34 6.50638 34 6.50637 34 6.50636C 34 6.50634 34 6.50633 34 6.50632C 34 6.50631 34 6.5063 34 6.50629C 34 6.50628 34 6.50627 34 6.50626C 34 6.50625 34 6.50624 34 6.50623C 34 6.50622 34 6.50621 34 6.5062C 34 6.50619 34 6.50618 34 6.50617C 34 6.50616 34 6.50615 34 6.50614C 34 6.50613 34 6.50612 34 6.50611C 34 6.5061 34 6.5061 34 6.50609C 34 6.50608 34 6.50607 34 6.50606C 34 6.50605 34 6.50604 34 6.50603C 34 6.50602 34 6.50601 34 6.50601C 34 6.506 34 6.50599 34 6.50598C 34 6.50597 34 6.50596 34 6.50595C 34 6.50595 34 6.50594 34 6.50593C 34 6.50592 34 6.50591 34 6.50591C 34 6.5059 34 6.50589 34 6.50588C 34 6.50587 34 6.50587 34 6.50586L 32 6.50586ZM 32 6.53711L 32 6.56836L 34 6.56836L 34 6.53711L 32 6.53711ZM 32 6.56836L 32 11.9121L 34 11.9121L 34 6.56836L 32 6.56836ZM 32.0422 11.6248C 31.9273 12.0075 31.9273 12.4105 32.0422 12.7932L 33.9578 12.2185C 33.9561 12.2128 33.9561 12.2099 33.9561 12.209C 33.9561 12.208 33.9561 12.2052 33.9578 12.1995L 32.0422 11.6248ZM 32 12.5059L 32 32.0371L 34 32.0371L 34 12.5059L 32 12.5059ZM 32.0205 31.8355C 31.9658 32.1013 31.9658 32.3792 32.0205 32.645L 33.9795 32.2417C 33.9798 32.2431 33.9795 32.2424 33.9795 32.2402C 33.9795 32.2381 33.9798 32.2373 33.9795 32.2388L 32.0205 31.8355ZM 32 32.4434L 32 37.9121L 34 37.9121L 34 32.4434L 32 32.4434ZM 33 37.9121C 32.0005 37.9435 32.0005 37.943 32.0005 37.9425C 32.0005 37.9424 32.0004 37.9419 32.0004 37.9416C 32.0004 37.941 32.0004 37.9404 32.0004 37.9398C 32.0004 37.9387 32.0003 37.9376 32.0003 37.9365C 32.0003 37.9344 32.0002 37.9326 32.0002 37.9309C 32.0001 37.9276 32.0001 37.9252 32.0001 37.9236C 32.0001 37.9204 32.0002 37.9206 32.0001 37.924C 31.9998 37.9307 31.999 37.9501 31.9958 37.9804C 31.9893 38.0412 31.9737 38.1454 31.9356 38.2813C 31.8601 38.5505 31.6945 38.9526 31.3244 39.3982L 32.8631 40.676C 33.4305 39.9927 33.718 39.3323 33.8613 38.8212C 33.9326 38.567 33.9677 38.3516 33.9847 38.1904C 33.9932 38.1097 33.9972 38.0424 33.999 37.9903C 33.9998 37.9642 34.0001 37.9419 34.0001 37.9236C 34.0001 37.9144 34 37.9062 33.9999 37.8991C 33.9999 37.8955 33.9998 37.8922 33.9997 37.8892C 33.9997 37.8876 33.9997 37.8862 33.9996 37.8848C 33.9996 37.8841 33.9996 37.8834 33.9996 37.8827C 33.9996 37.8824 33.9995 37.8819 33.9995 37.8817C 33.9995 37.8812 33.9995 37.8808 33 37.9121ZM 31.3244 39.3982C 30.6297 40.2349 29.0152 41.4434 24.7812 41.4434L 24.7812 43.4434C 29.4223 43.4434 31.6828 42.0972 32.8631 40.676L 31.3244 39.3982ZM 24.7921 41.4434C 24.0772 41.4356 23.4067 41.8089 23.0401 42.4329L 24.7646 43.446C 24.7652 43.445 24.7666 43.4433 24.7704 43.4433L 24.7921 41.4434ZM 23.0354 42.441C 22.6783 43.0621 22.6783 43.8246 23.0354 44.4457L 24.7692 43.4488C 24.7678 43.4463 24.7676 43.4447 24.7676 43.4434C 24.7676 43.442 24.7678 43.4404 24.7692 43.4379L 23.0354 42.441ZM 23.0401 44.4538C 23.4067 45.0778 24.0772 45.4511 24.7921 45.4433L 24.7704 43.4434C 24.7666 43.4435 24.7652 43.4417 24.7646 43.4407L 23.0401 44.4538ZM 24.7812 45.4434C 29.8243 45.4434 32.7945 43.888 34.395 41.9564L 32.855 40.6803C 31.7367 42.03 29.4101 43.4434 24.7812 43.4434L 24.7812 45.4434ZM 34.3974 41.9535C 34.5828 41.728 34.7329 41.4905 34.8321 41.3418L 33.1679 40.2324C 33.0327 40.4352 32.9563 40.5571 32.8526 40.6833L 34.3974 41.9535ZM 33.1679 41.3418C 33.2671 41.4905 33.4172 41.728 33.6026 41.9535L 35.1474 40.6833C 35.0437 40.5571 34.9673 40.4352 34.8321 40.2324L 33.1679 41.3418ZM 33.605 41.9564C 35.2055 43.888 38.1757 45.4434 43.2188 45.4434L 43.2188 43.4434C 38.5899 43.4434 36.2633 42.03 35.145 40.6803L 33.605 41.9564ZM 43.2079 45.4433C 43.9228 45.4511 44.5933 45.0778 44.9599 44.4538L 43.2354 43.4407C 43.2348 43.4417 43.2334 43.4435 43.2296 43.4434L 43.2079 45.4433ZM 44.9646 44.4457C 45.3217 43.8246 45.3217 43.0621 44.9646 42.441L 43.2308 43.4379C 43.2322 43.4404 43.2324 43.442 43.2324 43.4434C 43.2324 43.4447 43.2322 43.4463 43.2308 43.4488L 44.9646 44.4457ZM 44.9599 42.4329C 44.5933 41.8089 43.9228 41.4356 43.2079 41.4434L 43.2296 43.4433C 43.2334 43.4433 43.2348 43.445 43.2354 43.446L 44.9599 42.4329ZM 43.2188 41.4434C 38.9848 41.4434 37.3703 40.2349 36.6756 39.3982L 35.1369 40.676C 36.3172 42.0972 38.5777 43.4434 43.2188 43.4434L 43.2188 41.4434ZM 36.6756 39.3982C 36.3055 38.9526 36.1399 38.5505 36.0644 38.2813C 36.0263 38.1454 36.0107 38.0412 36.0042 37.9804C 36.001 37.9501 36.0002 37.9307 35.9999 37.924C 35.9998 37.9206 35.9999 37.9204 35.9999 37.9236C 35.9999 37.9252 35.9999 37.9276 35.9998 37.9309C 35.9998 37.9326 35.9997 37.9344 35.9997 37.9365C 35.9997 37.9376 35.9996 37.9387 35.9996 37.9398C 35.9996 37.9404 35.9996 37.941 35.9996 37.9416C 35.9996 37.9419 35.9995 37.9424 35.9995 37.9425C 35.9995 37.943 35.9995 37.9435 35 37.9121C 34.0005 37.8808 34.0005 37.8812 34.0005 37.8817C 34.0005 37.8819 34.0004 37.8824 34.0004 37.8827C 34.0004 37.8834 34.0004 37.8841 34.0004 37.8848C 34.0003 37.8862 34.0003 37.8876 34.0003 37.8892C 34.0002 37.8922 34.0001 37.8955 34.0001 37.8991C 34 37.9062 33.9999 37.9144 33.9999 37.9236C 33.9999 37.9419 34.0002 37.9642 34.001 37.9903C 34.0028 38.0424 34.0068 38.1097 34.0153 38.1904C 34.0323 38.3516 34.0674 38.567 34.1387 38.8212C 34.282 39.3323 34.5695 39.9927 35.1369 40.676L 36.6756 39.3982ZM 36 37.9121L 36 33.2246L 34 33.2246L 34 37.9121L 36 37.9121ZM 35 34.2246L 48 34.2246L 48 32.2246L 35 32.2246L 35 34.2246ZM 49 33.2246L 49 11.2246L 47 11.2246L 47 33.2246L 49 33.2246ZM 48 10.2246L 35 10.2246L 35 12.2246L 48 12.2246L 48 10.2246ZM 36 11.2246L 36 6.50586L 34 6.50586L 34 11.2246L 36 11.2246ZM 35.9994 6.54032C 35.9975 6.59639 36.007 5.91813 36.7333 5.05667L 35.2042 3.76754C 34.1258 5.04671 34.0103 6.18876 34.0006 6.4714L 35.9994 6.54032ZM 36.7335 5.05641C 37.4553 4.19961 39.0763 3.00586 43.2188 3.00586L 43.2188 1.00586C 38.6581 1.00586 36.404 2.34335 35.204 3.76781L 36.7335 5.05641ZM 43.2079 3.0058C 43.9228 3.01357 44.5933 2.6403 44.9599 2.01631L 43.2354 1.00322C 43.2348 1.00423 43.2334 1.00596 43.2296 1.00592L 43.2079 3.0058ZM 44.9646 2.00824C 45.3217 1.38711 45.3217 0.624604 44.9646 0.00348083L 43.2308 1.00043C 43.2322 1.00293 43.2324 1.00455 43.2324 1.00586C 43.2324 1.00717 43.2322 1.00878 43.2308 1.01129L 44.9646 2.00824ZM 44.9599 -0.00459451C 44.5933 -0.62858 43.9228 -1.00185 43.2079 -0.994082L 43.2296 1.0058C 43.2334 1.00576 43.2348 1.00749 43.2354 1.0085L 44.9599 -0.00459451ZM 43.2188 -0.994141C 38.2449 -0.994141 35.2837 0.578049 33.6734 2.48582L 35.2016 3.7759C 36.3413 2.42586 38.677 1.00586 43.2188 1.00586L 43.2188 -0.994141ZM 33.6782 2.48007C 33.4722 2.7204 33.299 2.97536 33.1706 3.16601L 34.8294 4.28321C 34.9589 4.09105 35.0746 3.92413 35.1968 3.78165L 33.6782 2.48007ZM 34.8294 3.16601C 34.701 2.97536 34.5278 2.7204 34.3218 2.48007L 32.8032 3.78165C 32.9254 3.92413 33.0411 4.09105 33.1706 4.28321L 34.8294 3.16601ZM 34.3266 2.48582C 32.7163 0.578049 29.7551 -0.994141 24.7812 -0.994141L 24.7812 1.00586C 29.323 1.00586 31.6587 2.42586 32.7984 3.7759L 34.3266 2.48582ZM 24.8859 -0.988647C 24.7421 -1.00378 24.6016 -1.00378 24.4578 -0.988647L 24.6672 1.00037C 24.6693 1.00014 24.6706 1.00006 24.6712 1.00003C 24.6715 1.00001 24.6716 1 24.6717 1C 24.6718 1 24.6719 1 24.6719 1C 24.6719 1 24.6719 1 24.672 1C 24.6721 1 24.6723 1.00001 24.6726 1.00003C 24.6731 1.00006 24.6744 1.00014 24.6766 1.00037L 24.8859 -0.988647ZM -1 11.2246L -1 33.2246L 1 33.2246L 1 11.2246L -1 11.2246ZM 0 34.2246L 30 34.2246L 30 32.2246L 0 32.2246L 0 34.2246ZM 31 33.2246L 31 31.2246L 29 31.2246L 29 33.2246L 31 33.2246ZM 30 30.2246L 2 30.2246L 2 32.2246L 30 32.2246L 30 30.2246ZM 3 31.2246L 3 13.2246L 1 13.2246L 1 31.2246L 3 31.2246ZM 2 14.2246L 30 14.2246L 30 12.2246L 2 12.2246L 2 14.2246ZM 31 13.2246L 31 11.2246L 29 11.2246L 29 13.2246L 31 13.2246ZM 30 10.2246L 0 10.2246L 0 12.2246L 30 12.2246L 30 10.2246ZM 35 14.2246L 46 14.2246L 46 12.2246L 35 12.2246L 35 14.2246ZM 45 13.2246L 45 31.2246L 47 31.2246L 47 13.2246L 45 13.2246ZM 46 30.2246L 35 30.2246L 35 32.2246L 46 32.2246L 46 30.2246ZM 36 31.2246L 36 13.2246L 34 13.2246L 34 31.2246L 36 31.2246Z" fill="#963F95"/>
</g>
</g>
</g>
</svg>
