<svg width="36" height="50" viewBox="0 0 36 50" version="1.1" xmlns="http://www.w3.org/2000/svg" xmlns:xlink="http://www.w3.org/1999/xlink">
<g id="Canvas" fill="none">
<g id="Vector">
<mask id="path-1-inside-1" fill="white">
<path d="M 18 0L 17.2812 0.6875L 9.28125 8.6875C 8.88281 9.08594 8.88281 9.72656 9.28125 10.125C 9.67969 10.5234 10.3203 10.5234 10.7188 10.125L 17 3.84375L 17 31.4062C 16.9961 31.7656 17.1836 32.1016 17.4961 32.2852C 17.8086 32.4648 18.1914 32.4648 18.5039 32.2852C 18.8164 32.1016 19.0039 31.7656 19 31.4062L 19 3.84375L 25.2812 10.125C 25.6797 10.5234 26.3203 10.5234 26.7188 10.125C 27.1172 9.72656 27.1172 9.08594 26.7188 8.6875L 18.7188 0.6875L 18 0ZM 0 15.4062L 0 49.4062L 36 49.4062L 36 15.4062L 26 15.4062C 25.6406 15.4023 25.3047 15.5898 25.1211 15.9023C 24.9414 16.2148 24.9414 16.5977 25.1211 16.9102C 25.3047 17.2227 25.6406 17.4102 26 17.4062L 34 17.4062L 34 47.4062L 2 47.4062L 2 17.4062L 10 17.4062C 10.3594 17.4102 10.6953 17.2227 10.8789 16.9102C 11.0586 16.5977 11.0586 16.2148 10.8789 15.9023C 10.6953 15.5898 10.3594 15.4023 10 15.4062L 0 15.4062Z"/>
</mask>
<path d="M 18 0L 17.2812 0.6875L 9.28125 8.6875C 8.88281 9.08594 8.88281 9.72656 9.28125 10.125C 9.67969 10.5234 10.3203 10.5234 10.7188 10.125L 17 3.84375L 17 31.4062C 16.9961 31.7656 17.1836 32.1016 17.4961 32.2852C 17.8086 32.4648 18.1914 32.4648 18.5039 32.2852C 18.8164 32.1016 19.0039 31.7656 19 31.4062L 19 3.84375L 25.2812 10.125C 25.6797 10.5234 26.3203 10.5234 26.7188 10.125C 27.1172 9.72656 27.1172 9.08594 26.7188 8.6875L 18.7188 0.6875L 18 0ZM 0 15.4062L 0 49.4062L 36 49.4062L 36 15.4062L 26 15.4062C 25.6406 15.4023 25.3047 15.5898 25.1211 15.9023C 24.9414 16.2148 24.9414 16.5977 25.1211 16.9102C 25.3047 17.2227 25.6406 17.4102 26 17.4062L 34 17.4062L 34 47.4062L 2 47.4062L 2 17.4062L 10 17.4062C 10.3594 17.4102 10.6953 17.2227 10.8789 16.9102C 11.0586 16.5977 11.0586 16.2148 10.8789 15.9023C 10.6953 15.5898 10.3594 15.4023 10 15.4062L 0 15.4062Z" fill="#C4C4C4"/>
<g mask="url(#path-1-inside-1)">
<path d="M 18 0L 18.6912 -0.722642L 18 -1.38381L 17.3088 -0.722642L 18 0ZM 17.2812 0.6875L 16.59 -0.0351419L 16.582 -0.0274626L 16.5741 -0.0196068L 17.2812 0.6875ZM 9.28125 8.6875L 8.57414 7.98039L 8.57414 7.98039L 9.28125 8.6875ZM 10.7188 10.125L 10.0116 9.41789L 10.0116 9.41789L 10.7188 10.125ZM 17 3.84375L 18 3.84375L 18 1.42954L 16.2929 3.13664L 17 3.84375ZM 17 31.4062L 18 31.4171L 18 31.4062L 17 31.4062ZM 17.4961 32.2852L 16.9895 33.1474L 16.9976 33.1521L 17.4961 32.2852ZM 18.5039 32.2852L 19.0024 33.1521L 19.0105 33.1474L 18.5039 32.2852ZM 19 31.4062L 17.9999 31.4062L 18.0001 31.4171L 19 31.4062ZM 19 3.84375L 19.7071 3.13664L 18 1.42954L 18 3.84375L 19 3.84375ZM 26.7188 10.125L 26.0116 9.41789L 26.0116 9.41789L 26.7188 10.125ZM 18.7188 0.6875L 19.4259 -0.0196068L 19.418 -0.0274626L 19.41 -0.0351419L 18.7188 0.6875ZM 0 15.4062L 0 14.4062L -1 14.4062L -1 15.4062L 0 15.4062ZM 0 49.4062L -1 49.4062L -1 50.4062L 0 50.4062L 0 49.4062ZM 36 49.4062L 36 50.4062L 37 50.4062L 37 49.4062L 36 49.4062ZM 36 15.4062L 37 15.4062L 37 14.4062L 36 14.4062L 36 15.4062ZM 26 15.4062L 25.9891 16.4062L 26 16.4062L 26 15.4062ZM 25.1211 15.9023L 24.2588 15.3958L 24.2542 15.4039L 25.1211 15.9023ZM 25.1211 16.9102L 24.2542 17.4086L 24.2589 17.4167L 25.1211 16.9102ZM 26 17.4062L 26 16.4062L 25.9891 16.4063L 26 17.4062ZM 34 17.4062L 35 17.4062L 35 16.4062L 34 16.4062L 34 17.4062ZM 34 47.4062L 34 48.4062L 35 48.4062L 35 47.4062L 34 47.4062ZM 2 47.4062L 1 47.4062L 1 48.4062L 2 48.4062L 2 47.4062ZM 2 17.4062L 2 16.4062L 1 16.4062L 1 17.4062L 2 17.4062ZM 10 17.4062L 10.0109 16.4062L 10 16.4062L 10 17.4062ZM 10.8789 16.9102L 11.7412 17.4167L 11.7458 17.4086L 10.8789 16.9102ZM 10.8789 15.9023L 11.7458 15.4038L 11.7411 15.3958L 10.8789 15.9023ZM 10 15.4062L 10 16.4063L 10.0109 16.4062L 10 15.4062ZM 17.3088 -0.722642L 16.59 -0.0351419L 17.9725 1.41014L 18.6912 0.722642L 17.3088 -0.722642ZM 16.5741 -0.0196068L 8.57414 7.98039L 9.98836 9.39461L 17.9884 1.39461L 16.5741 -0.0196068ZM 8.57414 7.98039C 7.78518 8.76936 7.78518 10.0431 8.57414 10.8321L 9.98836 9.41789C 9.98604 9.41558 9.98489 9.41398 9.98436 9.41319C 9.98381 9.41235 9.9835 9.41172 9.98329 9.41121C 9.98285 9.41013 9.98242 9.40844 9.98242 9.40625C 9.98242 9.40406 9.98285 9.40237 9.98329 9.40129C 9.9835 9.40078 9.98381 9.40015 9.98436 9.39931C 9.98489 9.39852 9.98604 9.39692 9.98836 9.39461L 8.57414 7.98039ZM 8.57414 10.8321C 9.3631 11.6211 10.6369 11.6211 11.4259 10.8321L 10.0116 9.41789C 10.0093 9.42021 10.0077 9.42136 10.0069 9.42189C 10.0061 9.42244 10.0055 9.42275 10.005 9.42296C 10.0039 9.4234 10.0022 9.42383 10 9.42383C 9.99781 9.42383 9.99612 9.4234 9.99504 9.42296C 9.99453 9.42275 9.9939 9.42244 9.99306 9.42189C 9.99227 9.42136 9.99067 9.42021 9.98836 9.41789L 8.57414 10.8321ZM 11.4259 10.8321L 17.7071 4.55086L 16.2929 3.13664L 10.0116 9.41789L 11.4259 10.8321ZM 16 3.84375L 16 31.4062L 18 31.4062L 18 3.84375L 16 3.84375ZM 16.0001 31.3954C 15.9923 32.1103 16.3656 32.7808 16.9895 33.1474L 18.0026 31.4229C 18.0016 31.4223 17.9999 31.4209 17.9999 31.4171L 16.0001 31.3954ZM 16.9976 33.1521C 17.6187 33.5092 18.3813 33.5092 19.0024 33.1521L 18.0054 31.4183C 18.0029 31.4197 18.0013 31.4199 18 31.4199C 17.9987 31.4199 17.9971 31.4197 17.9946 31.4183L 16.9976 33.1521ZM 19.0105 33.1474C 19.6344 32.7808 20.0077 32.1103 19.9999 31.3954L 18.0001 31.4171C 18.0001 31.4209 17.9984 31.4223 17.9974 31.4229L 19.0105 33.1474ZM 20 31.4062L 20 3.84375L 18 3.84375L 18 31.4062L 20 31.4062ZM 18.2929 4.55086L 24.5741 10.8321L 25.9884 9.41789L 19.7071 3.13664L 18.2929 4.55086ZM 24.5741 10.8321C 25.3631 11.6211 26.6369 11.6211 27.4259 10.8321L 26.0116 9.41789C 26.0093 9.42021 26.0077 9.42136 26.0069 9.42189C 26.0061 9.42244 26.0055 9.42275 26.005 9.42296C 26.0039 9.4234 26.0022 9.42383 26 9.42383C 25.9978 9.42383 25.9961 9.4234 25.995 9.42296C 25.9945 9.42275 25.9939 9.42244 25.9931 9.42189C 25.9923 9.42136 25.9907 9.42021 25.9884 9.41789L 24.5741 10.8321ZM 27.4259 10.8321C 28.2148 10.0431 28.2148 8.76935 27.4259 7.98039L 26.0116 9.39461C 26.014 9.39692 26.0151 9.39852 26.0156 9.39931C 26.0162 9.40015 26.0165 9.40078 26.0167 9.40129C 26.0171 9.40237 26.0176 9.40406 26.0176 9.40625C 26.0176 9.40844 26.0171 9.41013 26.0167 9.41121C 26.0165 9.41172 26.0162 9.41235 26.0156 9.41319C 26.0151 9.41398 26.014 9.41558 26.0116 9.41789L 27.4259 10.8321ZM 27.4259 7.98039L 19.4259 -0.0196068L 18.0116 1.39461L 26.0116 9.39461L 27.4259 7.98039ZM 19.41 -0.0351419L 18.6912 -0.722642L 17.3088 0.722642L 18.0275 1.41014L 19.41 -0.0351419ZM -1 15.4062L -1 49.4062L 1 49.4062L 1 15.4062L -1 15.4062ZM 0 50.4062L 36 50.4062L 36 48.4062L 0 48.4062L 0 50.4062ZM 37 49.4062L 37 15.4062L 35 15.4062L 35 49.4062L 37 49.4062ZM 36 14.4062L 26 14.4062L 26 16.4062L 36 16.4062L 36 14.4062ZM 26.0109 14.4063C 25.2959 14.3985 24.6255 14.7718 24.2589 15.3958L 25.9833 16.4089C 25.9839 16.4079 25.9853 16.4061 25.9891 16.4062L 26.0109 14.4063ZM 24.2542 15.4039C 23.897 16.025 23.897 16.7875 24.2542 17.4086L 25.988 16.4117C 25.9866 16.4092 25.9863 16.4076 25.9863 16.4062C 25.9863 16.4049 25.9866 16.4033 25.988 16.4008L 24.2542 15.4039ZM 24.2589 17.4167C 24.6255 18.0407 25.2959 18.414 26.0109 18.4062L 25.9891 16.4063C 25.9853 16.4064 25.9839 16.4046 25.9833 16.4036L 24.2589 17.4167ZM 26 18.4062L 34 18.4062L 34 16.4062L 26 16.4062L 26 18.4062ZM 33 17.4062L 33 47.4062L 35 47.4062L 35 17.4062L 33 17.4062ZM 34 46.4062L 2 46.4062L 2 48.4062L 34 48.4062L 34 46.4062ZM 3 47.4062L 3 17.4062L 1 17.4062L 1 47.4062L 3 47.4062ZM 2 18.4062L 10 18.4062L 10 16.4062L 2 16.4062L 2 18.4062ZM 9.98913 18.4062C 10.7041 18.414 11.3745 18.0407 11.7411 17.4167L 10.0167 16.4036C 10.0161 16.4046 10.0147 16.4064 10.0109 16.4063L 9.98913 18.4062ZM 11.7458 17.4086C 12.103 16.7875 12.103 16.025 11.7458 15.4039L 10.012 16.4008C 10.0134 16.4033 10.0137 16.4049 10.0137 16.4062C 10.0137 16.4076 10.0134 16.4092 10.012 16.4117L 11.7458 17.4086ZM 11.7411 15.3958C 11.3745 14.7718 10.7041 14.3985 9.98913 14.4063L 10.0109 16.4062C 10.0147 16.4061 10.0161 16.4079 10.0167 16.4089L 11.7411 15.3958ZM 10 14.4062L 0 14.4062L 0 16.4062L 10 16.4062L 10 14.4062Z" fill="#963F95"/>
</g>
</g>
</g>
</svg>
