<svg width="48" height="26" viewBox="0 0 48 26" version="1.1" xmlns="http://www.w3.org/2000/svg" xmlns:xlink="http://www.w3.org/1999/xlink">
<g id="Canvas" fill="none">
<g id="Vector">
<mask id="path-1-inside-1" fill="white">
<path d="M 23.9961 0C 10.6641 0 0.246094 12.3438 0.246094 12.3438C -0.0820312 12.7188 -0.0820312 13.2812 0.246094 13.6562C 0.246094 13.6562 10.6641 26 23.9961 26C 37.3281 26 47.7461 13.6562 47.7461 13.6562C 48.0742 13.2812 48.0742 12.7188 47.7461 12.3438C 47.7461 12.3438 37.3281 0 23.9961 0ZM 23.9961 2C 26.625 2 29.1367 2.54297 31.4648 3.375C 33.0273 5.14062 33.9961 7.44922 33.9961 10C 33.9961 15.5352 29.5312 20 23.9961 20C 18.4609 20 13.9961 15.5352 13.9961 10C 13.9961 7.44922 14.9336 5.14062 16.4961 3.375C 18.832 2.53906 21.3594 2 23.9961 2ZM 13.1836 4.84375C 12.4336 6.40625 11.9961 8.15625 11.9961 10C 11.9961 16.6172 17.3789 22 23.9961 22C 30.6133 22 35.9961 16.6172 35.9961 10C 35.9961 8.16406 35.5781 6.40625 34.8398 4.84375C 40.4883 7.71484 44.5508 11.8789 45.5898 13C 43.9648 14.7578 34.9688 24 23.9961 24C 13.0234 24 4.02734 14.7578 2.40234 13C 3.44141 11.875 7.52344 7.71484 13.1836 4.84375ZM 23.9961 5C 21.2344 5 18.9961 7.23828 18.9961 10C 18.9961 12.7617 21.2344 15 23.9961 15C 26.7578 15 28.9961 12.7617 28.9961 10C 28.9961 7.23828 26.7578 5 23.9961 5Z"/>
</mask>
<path d="M 23.9961 0C 10.6641 0 0.246094 12.3438 0.246094 12.3438C -0.0820312 12.7188 -0.0820312 13.2812 0.246094 13.6562C 0.246094 13.6562 10.6641 26 23.9961 26C 37.3281 26 47.7461 13.6562 47.7461 13.6562C 48.0742 13.2812 48.0742 12.7188 47.7461 12.3438C 47.7461 12.3438 37.3281 0 23.9961 0ZM 23.9961 2C 26.625 2 29.1367 2.54297 31.4648 3.375C 33.0273 5.14062 33.9961 7.44922 33.9961 10C 33.9961 15.5352 29.5312 20 23.9961 20C 18.4609 20 13.9961 15.5352 13.9961 10C 13.9961 7.44922 14.9336 5.14062 16.4961 3.375C 18.832 2.53906 21.3594 2 23.9961 2ZM 13.1836 4.84375C 12.4336 6.40625 11.9961 8.15625 11.9961 10C 11.9961 16.6172 17.3789 22 23.9961 22C 30.6133 22 35.9961 16.6172 35.9961 10C 35.9961 8.16406 35.5781 6.40625 34.8398 4.84375C 40.4883 7.71484 44.5508 11.8789 45.5898 13C 43.9648 14.7578 34.9688 24 23.9961 24C 13.0234 24 4.02734 14.7578 2.40234 13C 3.44141 11.875 7.52344 7.71484 13.1836 4.84375ZM 23.9961 5C 21.2344 5 18.9961 7.23828 18.9961 10C 18.9961 12.7617 21.2344 15 23.9961 15C 26.7578 15 28.9961 12.7617 28.9961 10C 28.9961 7.23828 26.7578 5 23.9961 5Z" fill="#963F95"/>
<g mask="url(#path-1-inside-1)">
<path d="M 0.246094 12.3438L 0.99867 13.0023L 1.00454 12.9955L 1.0103 12.9887L 0.246094 12.3438ZM 0.246094 13.6562L 1.0103 13.0113L 1.00454 13.0045L 0.99867 12.9977L 0.246094 13.6562ZM 47.7461 13.6562L 46.9935 12.9977L 46.9876 13.0045L 46.9819 13.0113L 47.7461 13.6562ZM 47.7461 12.3438L 46.9819 12.9887L 46.9876 12.9955L 46.9935 13.0023L 47.7461 12.3438ZM 31.4648 3.375L 32.2137 2.71228L 32.0434 2.51982L 31.8014 2.43333L 31.4648 3.375ZM 16.4961 3.375L 16.1592 2.43347L 15.9174 2.51999L 15.7472 2.71228L 16.4961 3.375ZM 13.1836 4.84375L 14.0851 5.27648L 15.3613 2.61784L 12.7312 3.95192L 13.1836 4.84375ZM 34.8398 4.84375L 35.293 3.9523L 32.6867 2.62752L 33.9357 5.27096L 34.8398 4.84375ZM 45.5898 13L 46.3241 13.6788L 46.9525 12.9991L 46.3233 12.3202L 45.5898 13ZM 2.40234 13L 1.66774 12.3215L 1.04079 13.0003L 1.66804 13.6788L 2.40234 13ZM 23.9961 -1C 17.0295 -1 10.8856 2.21852 6.53593 5.36132C 4.35183 6.9394 2.59528 8.51626 1.38354 9.6996C 0.777167 10.2918 0.305856 10.7867 -0.015735 11.1358C -0.176565 11.3104 -0.300054 11.4487 -0.38437 11.5445C -0.426531 11.5924 -0.458908 11.6297 -0.481272 11.6557C -0.492454 11.6687 -0.501133 11.6788 -0.507282 11.686C -0.510356 11.6896 -0.512798 11.6925 -0.514604 11.6946C -0.515506 11.6957 -0.51625 11.6966 -0.516834 11.6973C -0.517126 11.6976 -0.517445 11.698 -0.517591 11.6982C -0.51787 11.6985 -0.518108 11.6988 0.246094 12.3438C 1.0103 12.9887 1.01014 12.9889 1.01002 12.9891C 1.01003 12.989 1.00995 12.9891 1.00997 12.9891C 1.01003 12.989 1.01023 12.9888 1.0106 12.9884C 1.01133 12.9875 1.01269 12.9859 1.01467 12.9836C 1.01864 12.9789 1.02511 12.9714 1.03404 12.961C 1.05192 12.9402 1.07967 12.9082 1.11706 12.8657C 1.19187 12.7807 1.30522 12.6538 1.45529 12.4909C 1.75551 12.1649 2.20226 11.6955 2.78089 11.1305C 3.93915 9.99937 5.62033 8.49029 7.70724 6.98243C 11.8995 3.95336 17.6307 1 23.9961 1L 23.9961 -1ZM -0.506483 11.6852C -1.16451 12.4373 -1.16451 13.5627 -0.506483 14.3148L 0.99867 12.9977C 0.99852 12.9976 0.998753 12.9978 0.999113 12.9984C 0.999452 12.999 0.999705 12.9996 0.999867 13C 1.00015 13.0008 1 13.0007 1 13C 1 12.9993 1.00015 12.9992 0.999867 13C 0.999705 13.0004 0.999452 13.001 0.999113 13.0016C 0.998753 13.0022 0.99852 13.0024 0.99867 13.0023L -0.506483 11.6852ZM 0.246094 13.6562C -0.518108 14.3012 -0.51787 14.3015 -0.517591 14.3018C -0.517445 14.302 -0.517126 14.3024 -0.516834 14.3027C -0.51625 14.3034 -0.515506 14.3043 -0.514604 14.3054C -0.512798 14.3075 -0.510356 14.3104 -0.507282 14.314C -0.501133 14.3212 -0.492454 14.3313 -0.481272 14.3443C -0.458908 14.3703 -0.426531 14.4076 -0.38437 14.4555C -0.300054 14.5513 -0.176565 14.6896 -0.015735 14.8642C 0.305856 15.2133 0.777167 15.7082 1.38354 16.3004C 2.59528 17.4837 4.35183 19.0606 6.53593 20.6387C 10.8856 23.7815 17.0295 27 23.9961 27L 23.9961 25C 17.6307 25 11.8995 22.0466 7.70724 19.0176C 5.62033 17.5097 3.93915 16.0006 2.78089 14.8695C 2.20226 14.3045 1.75551 13.8351 1.45529 13.5091C 1.30522 13.3462 1.19187 13.2193 1.11706 13.1343C 1.07967 13.0918 1.05192 13.0598 1.03404 13.039C 1.02511 13.0286 1.01864 13.0211 1.01467 13.0164C 1.01269 13.0141 1.01133 13.0125 1.0106 13.0116C 1.01023 13.0112 1.01003 13.011 1.00997 13.0109C 1.00995 13.0109 1.01003 13.011 1.01002 13.0109C 1.01014 13.0111 1.0103 13.0113 0.246094 13.6562ZM 23.9961 27C 30.9627 27 37.1066 23.7815 41.4563 20.6387C 43.6404 19.0606 45.3969 17.4837 46.6086 16.3004C 47.215 15.7082 47.6863 15.2133 48.0079 14.8642C 48.1688 14.6896 48.2922 14.5513 48.3766 14.4555C 48.4187 14.4076 48.4511 14.3703 48.4735 14.3443C 48.4846 14.3313 48.4933 14.3212 48.4995 14.314C 48.5025 14.3104 48.505 14.3075 48.5068 14.3054C 48.5077 14.3043 48.5084 14.3034 48.509 14.3027C 48.5093 14.3024 48.5096 14.302 48.5098 14.3018C 48.5101 14.3015 48.5103 14.3012 47.7461 13.6562C 46.9819 13.0113 46.9821 13.0111 46.9822 13.0109C 46.9822 13.011 46.9822 13.0109 46.9822 13.0109C 46.9822 13.011 46.982 13.0112 46.9816 13.0116C 46.9809 13.0125 46.9795 13.0141 46.9775 13.0164C 46.9735 13.0211 46.9671 13.0286 46.9581 13.039C 46.9403 13.0598 46.9125 13.0918 46.8751 13.1343C 46.8003 13.2193 46.687 13.3462 46.5369 13.5091C 46.2367 13.8351 45.7899 14.3045 45.2113 14.8695C 44.053 16.0006 42.3719 17.5097 40.285 19.0176C 36.0926 22.0466 30.3615 25 23.9961 25L 23.9961 27ZM 48.4987 14.3148C 49.1567 13.5627 49.1567 12.4373 48.4987 11.6852L 46.9935 13.0023C 46.9937 13.0024 46.9934 13.0022 46.9931 13.0016C 46.9927 13.001 46.9925 13.0004 46.9923 13C 46.992 12.9992 46.9922 12.9993 46.9922 13C 46.9922 13.0007 46.992 13.0008 46.9923 13C 46.9925 12.9996 46.9927 12.999 46.9931 12.9984C 46.9934 12.9978 46.9937 12.9976 46.9935 12.9977L 48.4987 14.3148ZM 47.7461 12.3438C 48.5103 11.6988 48.5101 11.6985 48.5098 11.6982C 48.5096 11.698 48.5093 11.6976 48.509 11.6973C 48.5084 11.6966 48.5077 11.6957 48.5068 11.6946C 48.505 11.6925 48.5025 11.6896 48.4995 11.686C 48.4933 11.6788 48.4846 11.6687 48.4735 11.6557C 48.4511 11.6297 48.4187 11.5924 48.3766 11.5445C 48.2922 11.4487 48.1688 11.3104 48.0079 11.1358C 47.6863 10.7867 47.215 10.2918 46.6086 9.6996C 45.3969 8.51626 43.6404 6.9394 41.4563 5.36132C 37.1066 2.21852 30.9627 -1 23.9961 -1L 23.9961 1C 30.3615 1 36.0926 3.95336 40.285 6.98243C 42.3719 8.49029 44.053 9.99937 45.2113 11.1305C 45.7899 11.6955 46.2367 12.1649 46.5369 12.4909C 46.687 12.6538 46.8003 12.7807 46.8751 12.8657C 46.9125 12.9082 46.9403 12.9402 46.9581 12.961C 46.9671 12.9714 46.9735 12.9789 46.9775 12.9836C 46.9795 12.9859 46.9809 12.9875 46.9816 12.9884C 46.982 12.9888 46.9822 12.989 46.9822 12.9891C 46.9822 12.9891 46.9822 12.989 46.9822 12.9891C 46.9821 12.9889 46.9819 12.9887 47.7461 12.3438ZM 23.9961 3C 26.4869 3 28.8837 3.5145 31.1283 4.31667L 31.8014 2.43333C 29.3897 1.57144 26.7631 1 23.9961 1L 23.9961 3ZM 30.716 4.03772C 32.1274 5.63261 32.9961 7.70908 32.9961 10L 34.9961 10C 34.9961 7.18936 33.9273 4.64864 32.2137 2.71228L 30.716 4.03772ZM 32.9961 10C 32.9961 14.9829 28.979 19 23.9961 19L 23.9961 21C 30.0835 21 34.9961 16.0874 34.9961 10L 32.9961 10ZM 23.9961 19C 19.0132 19 14.9961 14.9829 14.9961 10L 12.9961 10C 12.9961 16.0874 17.9087 21 23.9961 21L 23.9961 19ZM 14.9961 10C 14.9961 7.7006 15.8394 5.62598 17.245 4.03772L 15.7472 2.71228C 14.0278 4.65527 12.9961 7.19784 12.9961 10L 14.9961 10ZM 16.833 4.31653C 19.0833 3.51126 21.4958 3 23.9961 3L 23.9961 1C 21.2229 1 18.5808 1.56687 16.1592 2.43347L 16.833 4.31653ZM 12.2821 4.41102C 11.4717 6.09938 10.9961 7.99659 10.9961 10L 12.9961 10C 12.9961 8.31591 13.3955 6.71312 14.0851 5.27648L 12.2821 4.41102ZM 10.9961 10C 10.9961 17.1695 16.8266 23 23.9961 23L 23.9961 21C 17.9312 21 12.9961 16.0649 12.9961 10L 10.9961 10ZM 23.9961 23C 31.1656 23 36.9961 17.1695 36.9961 10L 34.9961 10C 34.9961 16.0649 30.061 21 23.9961 21L 23.9961 23ZM 36.9961 10C 36.9961 8.01203 36.5435 6.10868 35.744 4.41654L 33.9357 5.27096C 34.6127 6.70382 34.9961 8.31609 34.9961 10L 36.9961 10ZM 34.3867 5.7352C 39.8807 8.52779 43.8486 12.5924 44.8564 13.6798L 46.3233 12.3202C 45.2529 11.1654 41.0958 6.9019 35.293 3.9523L 34.3867 5.7352ZM 44.8555 12.3212C 44.0714 13.1694 41.4776 15.8563 37.7465 18.3252C 34.0061 20.8003 29.2081 23 23.9961 23L 23.9961 25C 29.7568 25 34.9431 22.5786 38.8502 19.9931C 42.7665 17.4016 45.4833 14.5884 46.3241 13.6788L 44.8555 12.3212ZM 23.9961 23C 18.7841 23 13.986 20.8003 10.2457 18.3252C 6.5146 15.8563 3.92082 13.1694 3.13665 12.3212L 1.66804 13.6788C 2.50887 14.5884 5.22564 17.4016 9.142 19.9931C 13.0491 22.5786 18.2354 25 23.9961 25L 23.9961 23ZM 3.13695 13.6785C 4.14155 12.5908 8.1291 8.52892 13.636 5.73558L 12.7312 3.95192C 6.91777 6.90077 2.74126 11.1592 1.66774 12.3215L 3.13695 13.6785ZM 23.9961 4C 20.6821 4 17.9961 6.686 17.9961 10L 19.9961 10C 19.9961 7.79057 21.7867 6 23.9961 6L 23.9961 4ZM 17.9961 10C 17.9961 13.314 20.6821 16 23.9961 16L 23.9961 14C 21.7867 14 19.9961 12.2094 19.9961 10L 17.9961 10ZM 23.9961 16C 27.3101 16 29.9961 13.314 29.9961 10L 27.9961 10C 27.9961 12.2094 26.2055 14 23.9961 14L 23.9961 16ZM 29.9961 10C 29.9961 6.686 27.3101 4 23.9961 4L 23.9961 6C 26.2055 6 27.9961 7.79057 27.9961 10L 29.9961 10Z" fill="#963F95"/>
</g>
</g>
</g>
</svg>
