<svg width="30" height="30" viewBox="0 0 30 30" version="1.1" xmlns="http://www.w3.org/2000/svg" xmlns:xlink="http://www.w3.org/1999/xlink">
<g id="Canvas" fill="none">
<path id="Vector" d="M 0 0L 0 25.113L 10.8778 25.113L 12.9498 22.83L 2.07197 22.83L 2.07197 2.283L 24.8636 2.283L 24.8636 9.70273L 26.9356 7.41974L 26.9356 0L 0 0ZM 4.14393 4.56599L 4.14393 20.547L 15.0218 20.547L 17.0937 18.264L 6.2159 18.264L 6.2159 6.84899L 20.7197 6.84899L 20.7197 14.2687L 22.7916 11.9857L 22.7916 4.56599L 4.14393 4.56599ZM 26.9356 11.4507C 26.1424 11.4507 25.3654 11.7895 24.7665 12.4495L 14.5038 23.7218L 14.2771 23.9715L 14.2124 24.3282L 13.5002 28.3234L 13.1764 30L 14.698 29.6433L 18.3239 28.8585L 18.6477 28.7872L 18.8743 28.5375L 29.1046 17.2295C 30.2985 15.9141 30.2985 13.7649 29.1046 12.4495C 28.5057 11.7895 27.7287 11.4507 26.9356 11.4507ZM 26.9356 13.6623C 27.1784 13.6623 27.4171 13.8005 27.6478 14.0547C 28.1091 14.563 28.1091 15.1159 27.6478 15.6243L 17.6117 26.6825L 15.8311 27.0749L 16.1872 25.113L 26.1586 14.0904L 26.2233 14.0547C 26.454 13.8005 26.6927 13.6623 26.9356 13.6623Z" fill="#4F4F4F"/>
</g>
</svg>
