<svg width="40" height="20" viewBox="0 0 40 20" version="1.1" xmlns="http://www.w3.org/2000/svg" xmlns:xlink="http://www.w3.org/1999/xlink">
<g id="Canvas" fill="none">
<path id="Vector" d="M 11.2 0C 5.025 0 0 4.48661 0 10C 0 15.5134 5.025 20 11.2 20L 28.8 20C 34.975 20 40 15.5134 40 10C 40 4.48661 34.975 0 28.8 0L 11.2 0ZM 11.2 1.42857C 16.5125 1.42857 20.8 5.2567 20.8 10C 20.8 14.7433 16.5125 18.5714 11.2 18.5714C 5.8875 18.5714 1.6 14.7433 1.6 10C 1.6 5.2567 5.8875 1.42857 11.2 1.42857ZM 16.925 1.42857L 28.8 1.42857C 34.1125 1.42857 38.4 5.2567 38.4 10C 38.4 14.7433 34.1125 18.5714 28.8 18.5714L 16.925 18.5714C 20.1938 16.822 22.4 13.6412 22.4 10C 22.4 6.35882 20.1938 3.17801 16.925 1.42857Z" fill="#653F95"/>
</g>
</svg>
