<svg width="20" height="20" viewBox="0 0 20 20" version="1.1" xmlns="http://www.w3.org/2000/svg" xmlns:xlink="http://www.w3.org/1999/xlink">
<g id="Canvas" fill="none">
<path id="Vector" d="M 12.3898 0C 9.3858 0 6.823 1.71504 5.58071 4.23221C 5.90145 4.15262 6.26131 4.07303 6.58205 4.03246C 7.78366 2.11454 9.94592 0.799001 12.3898 0.799001C 16.1542 0.799001 19.1989 3.83583 19.1989 7.59051C 19.1989 10.0281 17.8815 12.1848 15.9195 13.3833C 15.8789 13.7422 15.7991 14.0621 15.7193 14.382C 18.2821 13.1429 20 10.5868 20 7.59051C 20 3.39576 16.5954 0 12.3898 0ZM 12.3147 3.99501C 12.0941 4.01529 11.9314 4.21192 11.9517 4.43196C 11.9721 4.652 12.1692 4.81429 12.3898 4.79401L 14.6303 4.79401L 12.6902 6.72909C 12.7904 6.81492 12.8952 6.89607 12.9906 6.99126C 13.0845 7.08489 13.1659 7.18945 13.2535 7.29089L 15.1936 5.35581L 15.1936 7.59051C 15.192 7.73408 15.2671 7.86829 15.3923 7.94164C 15.5174 8.01342 15.6708 8.01342 15.7959 7.94164C 15.9211 7.86829 15.9962 7.73408 15.9946 7.59051L 15.9946 3.99501L 12.3898 3.99501C 12.3773 3.99501 12.3648 3.99501 12.3523 3.99501C 12.3398 3.99501 12.3272 3.99501 12.3147 3.99501ZM 13.2535 7.29089L 8.54718 11.985L 10.7877 11.985C 11.0098 11.985 11.1882 12.1629 11.1882 12.3845C 11.1882 12.6061 11.0098 12.784 10.7877 12.784L 7.18285 12.784L 7.18285 9.18851C 7.18285 8.96848 7.36278 8.78901 7.58339 8.78901C 7.804 8.78901 7.98392 8.96848 7.98392 9.18851L 7.98392 11.4232L 8.49711 10.8989L 12.6902 6.72909C 12.1817 6.2937 11.6545 5.9769 11.6388 5.96754C 10.4137 5.19975 9.00717 4.79401 7.57087 4.79401C 5.55568 4.79401 3.65469 5.59145 2.2137 7.02871C -0.737119 9.97191 -0.738684 14.7909 2.2137 17.7778C 3.64531 19.2057 5.54942 20 7.58339 20C 9.61736 20 11.5371 19.2057 12.9906 17.7778C 15.5159 15.2591 15.954 11.4014 14.0545 8.38951C 14.0373 8.36142 13.6978 7.80587 13.2535 7.29089Z" fill="#653F95"/>
</g>
</svg>
